<?xml version="1.0" encoding="UTF-8"?>
<svg version="1.1" xmlns="http://www.w3.org/2000/svg" width="280" height="280">
<path d="M0 0 C21.12 0 42.24 0 64 0 C69.445 12.87 69.445 12.87 75 26 C76.65 29.3 78.3 32.6 80 36 C82.04296875 40.98828125 82.04296875 40.98828125 83.01708984 43.49072266 C84.69010481 47.76177278 86.50491062 51.97202938 88.3125 56.1875 C88.70638916 57.1067627 89.10027832 58.02602539 89.50610352 58.97314453 C92.25190787 65.34608132 95.13727878 71.63177625 98.109375 77.90234375 C101.035565 84.16291766 103.72807774 90.53058083 106.44897461 96.88232422 C108.54996091 101.76428757 110.74702315 106.54783221 113.16235352 111.28149414 C114.26597577 113.54567281 115.08582055 115.85991366 115.875 118.25 C117.25587052 122.16781869 118.84320465 125.81009332 120.75 129.5 C123.45664846 134.75569461 125.79402158 140.10826109 128.0625 145.5625 C131.7742442 154.47990888 135.59348115 163.27445939 140 171.875 C142.66761126 177.14182223 144.79203721 182.50925025 146.84765625 188.0390625 C148.05787892 191.14871938 149.49027442 194.03548249 151.0390625 196.984375 C152.18897187 199.39638001 153.05674836 201.85252731 153.9375 204.375 C155.51800882 208.86860351 157.40961456 213.02539477 159.65625 217.22265625 C161.6669037 221.37839689 163.2854413 225.71360325 165 230 C144.21 230 123.42 230 102 230 C99.49038472 224.98076944 97.19714721 220.12667683 95 215 C94.36009116 213.74695675 93.71392873 212.49709314 93.0625 211.25 C91.46205095 208.10972496 90.22461437 204.95202097 89.0625 201.625 C87.44347576 197.02189186 85.45694324 192.78448772 83.21484375 188.45703125 C82.02389279 186.04832335 81.0262095 183.63224422 80.0625 181.125 C78.60210509 177.35035026 76.91587321 173.78550259 75.0625 170.1875 C72.43784571 165.0431776 70.35943213 159.82973557 68.34765625 154.421875 C66.61710288 150.02777427 64.61976116 145.78944936 62.59057617 141.52734375 C60.7374377 137.62195675 59.00763312 133.69207181 57.375 129.6875 C55.51937687 125.14274434 53.42239062 120.79569011 51.18359375 116.4296875 C49.60481402 113.18876013 48.33128425 109.85626291 47.03125 106.49609375 C45.97523273 103.94005196 44.77208891 101.51747646 43.5 99.0625 C41.27898727 94.735588 39.64365108 90.34917789 38.046875 85.76171875 C36.37021752 81.33859621 34.21051907 77.17643152 32 73 C29.56709908 75.43290092 28.97885777 77.45115573 27.8125 80.6875 C25.66476329 86.42746891 23.22533981 91.93933276 20.59155273 97.47021484 C18.73834752 101.37653517 17.00796485 105.30711451 15.375 109.3125 C13.51937687 113.85725566 11.42239062 118.20430989 9.18359375 122.5703125 C7.60481402 125.81123987 6.33128425 129.14373709 5.03125 132.50390625 C3.97523273 135.05994804 2.77208891 137.48252354 1.5 139.9375 C-0.25599363 143.35875204 -1.6809682 146.74096405 -2.9375 150.375 C-4.29154808 154.27154123 -5.88234883 157.87457425 -7.78125 161.53515625 C-11.01698561 167.92503365 -13.82067997 174.44849476 -16.5625 181.0625 C-24.97167828 201.24690671 -24.97167828 201.24690671 -30 210.875 C-33.0395998 217.08084959 -35.51936011 223.5503363 -38 230 C-58.79 230 -79.58 230 -101 230 C-99.58678642 225.76035926 -98.15319824 222.30786723 -96.13671875 218.40234375 C-94.75823616 215.48905581 -93.63349449 212.51683917 -92.5 209.5 C-90.86416799 205.15278893 -89.09482592 201.03108921 -86.94921875 196.91796875 C-85.92828185 194.85508802 -85.08404856 192.77021661 -84.25 190.625 C-82.32666894 185.70644191 -80.21195025 180.88524136 -78.0625 176.0625 C-77.57668457 174.97219482 -77.57668457 174.97219482 -77.08105469 173.85986328 C-75.68585082 170.73901254 -74.28465484 167.62134795 -72.86083984 164.51342773 C-70.4605354 159.27300549 -68.12257434 154.0091881 -65.84375 148.71484375 C-65.43478737 147.7650338 -65.43478737 147.7650338 -65.01756287 146.79603577 C-63.89534279 144.18736431 -62.77426353 141.57821581 -61.65673828 138.9675293 C-58.66220424 131.97709321 -55.58508751 125.07770376 -52.12304688 118.30249023 C-50.62259447 115.22623661 -49.39317551 112.07182969 -48.15234375 108.88378906 C-45.88263516 103.20374714 -43.39160358 97.61504275 -40.93652344 92.01318359 C-39.99923257 89.87324788 -39.06589199 87.73161854 -38.1328125 85.58984375 C-35.2426061 78.97485929 -32.27163386 72.43699654 -29 66 C-28.3277901 64.3857325 -27.67710761 62.76206542 -27.0625 61.125 C-25.71290333 57.65838895 -24.2114919 54.36510364 -22.5 51.0625 C-20.74400637 47.64124796 -19.3190318 44.25903595 -18.0625 40.625 C-16.73437166 36.8348472 -15.2202352 33.31642098 -13.375 29.75 C-8.51255177 20.02510354 -4.33525522 9.97108701 0 0 Z " fill="#1D1D1D" transform="translate(108,21)"/>
<path d="M0 0 C4.39808061 3.58507239 5.91958465 7.99430038 7.9375 13.125 C9.93007347 18.10843023 11.95587469 23.00856115 14.40234375 27.7890625 C17.46863536 33.80653498 20.03470572 40.01621485 22.625 46.25 C23.57367203 48.52681288 24.52413465 50.80288068 25.4765625 53.078125 C25.88986816 54.07231445 26.30317383 55.06650391 26.72900391 56.09082031 C27.62405242 58.13949455 28.59809996 60.154543 29.62646484 62.13964844 C31.42733668 65.88991762 31.74972333 68.96670067 31 73 C30.35007596 74.63383682 29.63406489 76.24204666 28.875 77.828125 C26.78893008 82.28327895 24.78182575 86.76394012 22.84375 91.28515625 C22.4352179 92.23439217 22.4352179 92.23439217 22.01843262 93.20280457 C20.89560582 95.81172687 19.77444854 98.42135197 18.65673828 101.0324707 C15.64248216 108.06894599 12.5934664 115.05236766 9.06054688 121.84936523 C7.9061833 124.19024662 6.94151454 126.56642429 6 129 C4.67399682 132.42729047 3.1906303 135.67478969 1.5 138.9375 C-0.25599363 142.35875204 -1.6809682 145.74096405 -2.9375 149.375 C-4.29154808 153.27154123 -5.88234883 156.87457425 -7.78125 160.53515625 C-11.01698561 166.92503365 -13.82067997 173.44849476 -16.5625 180.0625 C-24.97167828 200.24690671 -24.97167828 200.24690671 -30 209.875 C-33.0395998 216.08084959 -35.51936011 222.5503363 -38 229 C-58.79 229 -79.58 229 -101 229 C-99.58678642 224.76035926 -98.15319824 221.30786723 -96.13671875 217.40234375 C-94.75823616 214.48905581 -93.63349449 211.51683917 -92.5 208.5 C-90.86416799 204.15278893 -89.09482592 200.03108921 -86.94921875 195.91796875 C-85.92828185 193.85508802 -85.08404856 191.77021661 -84.25 189.625 C-82.32666894 184.70644191 -80.21195025 179.88524136 -78.0625 175.0625 C-77.57668457 173.97219482 -77.57668457 173.97219482 -77.08105469 172.85986328 C-75.68585082 169.73901254 -74.28465484 166.62134795 -72.86083984 163.51342773 C-70.4605354 158.27300549 -68.12257434 153.0091881 -65.84375 147.71484375 C-65.43478737 146.7650338 -65.43478737 146.7650338 -65.01756287 145.79603577 C-63.89534279 143.18736431 -62.77426353 140.57821581 -61.65673828 137.9675293 C-58.66220424 130.97709321 -55.58508751 124.07770376 -52.12304688 117.30249023 C-50.62259447 114.22623661 -49.39317551 111.07182969 -48.15234375 107.88378906 C-45.88263516 102.20374714 -43.39160358 96.61504275 -40.93652344 91.01318359 C-39.99923257 88.87324788 -39.06589199 86.73161854 -38.1328125 84.58984375 C-35.2426061 77.97485929 -32.27163386 71.43699654 -29 65 C-28.3277901 63.3857325 -27.67710761 61.76206542 -27.0625 60.125 C-25.71290333 56.65838895 -24.2114919 53.36510364 -22.5 50.0625 C-20.74400637 46.64124796 -19.3190318 43.25903595 -18.0625 39.625 C-16.72026458 35.79004166 -15.17840124 32.23377603 -13.3125 28.625 C-9.83325293 21.88953452 -6.91786978 14.93296278 -3.98364258 7.94580078 C-3.61134521 7.06263184 -3.23904785 6.17946289 -2.85546875 5.26953125 C-2.52184326 4.47135986 -2.18821777 3.67318848 -1.84448242 2.85083008 C-1 1 -1 1 0 0 Z " fill="#008DC9" transform="translate(108,22)"/>
</svg>
