<?xml version="1.0" encoding="UTF-8"?>
<!DOCTYPE svg PUBLIC "-//W3C//DTD SVG 1.1//EN" "http://www.w3.org/Graphics/SVG/1.1/DTD/svg11.dtd">
<svg xmlns="http://www.w3.org/2000/svg" version="1.1" width="600px" height="600px" style="shape-rendering:geometricPrecision; text-rendering:geometricPrecision; image-rendering:optimizeQuality; fill-rule:evenodd; clip-rule:evenodd" xmlns:xlink="http://www.w3.org/1999/xlink">
<g><path style="opacity:1" fill="#fefefe" d="M -0.5,-0.5 C 199.5,-0.5 399.5,-0.5 599.5,-0.5C 599.5,199.5 599.5,399.5 599.5,599.5C 399.5,599.5 199.5,599.5 -0.5,599.5C -0.5,399.5 -0.5,199.5 -0.5,-0.5 Z"/></g>
<g><path style="opacity:1" fill="#f24e1e" d="M 197.5,18.5 C 231.167,18.5 264.833,18.5 298.5,18.5C 298.5,80.1667 298.5,141.833 298.5,203.5C 264.337,204.498 230.004,204.832 195.5,204.5C 188.562,204.431 181.895,203.098 175.5,200.5C 158.564,195.254 144.564,185.588 133.5,171.5C 130.451,166.592 127.118,161.925 123.5,157.5C 123.092,153.142 121.425,149.475 118.5,146.5C 118.768,144.901 118.434,143.568 117.5,142.5C 116.863,139.544 116.363,136.544 116,133.5C 115.617,132.944 115.117,132.611 114.5,132.5C 114.665,129.482 114.498,126.482 114,123.5C 113.722,122.584 113.222,121.918 112.5,121.5C 112.5,115.5 112.5,109.5 112.5,103.5C 113.222,103.082 113.722,102.416 114,101.5C 114.498,98.1832 114.665,94.8499 114.5,91.5C 115.117,91.3893 115.617,91.056 116,90.5C 116.495,88.5273 116.662,86.5273 116.5,84.5C 118.435,78.7361 120.602,73.0694 123,67.5C 126.782,62.5758 130.282,57.5758 133.5,52.5C 136.55,50.4509 138.883,47.7843 140.5,44.5C 146.586,38.9286 153.252,34.262 160.5,30.5C 166.058,28.1261 171.391,25.4595 176.5,22.5C 176.833,22.5 177.167,22.5 177.5,22.5C 184.277,21.2367 190.944,19.9034 197.5,18.5 Z"/></g>
<g><path style="opacity:1" fill="#fe7262" d="M 301.5,18.5 C 336.168,18.3333 370.835,18.5 405.5,19C 413.438,20.1462 421.104,22.1462 428.5,25C 437.23,29.5715 445.564,34.7382 453.5,40.5C 457.195,44.5259 460.862,48.5259 464.5,52.5C 466.909,54.9024 468.909,57.5691 470.5,60.5C 474.002,68.3889 477.668,76.0556 481.5,83.5C 483.061,91.9237 484.394,100.424 485.5,109C 484.897,116.844 484.231,124.677 483.5,132.5C 476.004,162.503 458.337,184.336 430.5,198C 421.512,201.604 412.179,204.104 402.5,205.5C 367.833,205.5 333.167,205.5 298.5,205.5C 264.167,205.5 229.833,205.5 195.5,205.5C 195.5,205.167 195.5,204.833 195.5,204.5C 230.004,204.832 264.337,204.498 298.5,203.5C 335.173,203.833 371.839,203.5 408.5,202.5C 372.88,202.438 337.213,202.438 301.5,202.5C 301.5,141.167 301.5,79.8333 301.5,18.5 Z"/></g>
<g><path style="opacity:1" fill="#faab97" d="M 197.5,18.5 C 190.944,19.9034 184.277,21.2367 177.5,22.5C 178.429,21.6851 179.429,20.8518 180.5,20C 186.149,19.2425 191.816,18.7425 197.5,18.5 Z"/></g>
<g><path style="opacity:1" fill="#f99e86" d="M 176.5,22.5 C 171.391,25.4595 166.058,28.1261 160.5,30.5C 165.056,26.5211 170.389,23.8544 176.5,22.5 Z"/></g>
<g><path style="opacity:1" fill="#fec2ba" d="M 453.5,40.5 C 458.592,43.2564 462.259,47.2564 464.5,52.5C 460.862,48.5259 457.195,44.5259 453.5,40.5 Z"/></g>
<g><path style="opacity:1" fill="#fab1a0" d="M 140.5,44.5 C 138.883,47.7843 136.55,50.4509 133.5,52.5C 133.539,51.4168 133.873,50.4168 134.5,49.5C 136.563,47.7575 138.563,46.0908 140.5,44.5 Z"/></g>
<g><path style="opacity:1" fill="#fe9d91" d="M 470.5,60.5 C 474.162,65.3769 477.328,70.7102 480,76.5C 480.44,78.8659 480.94,81.1992 481.5,83.5C 477.668,76.0556 474.002,68.3889 470.5,60.5 Z"/></g>
<g><path style="opacity:1" fill="#f79278" d="M 116.5,84.5 C 116.662,86.5273 116.495,88.5273 116,90.5C 115.617,91.056 115.117,91.3893 114.5,91.5C 114.927,88.9902 115.593,86.6568 116.5,84.5 Z"/></g>
<g><path style="opacity:1" fill="#f89b86" d="M 114.5,91.5 C 114.665,94.8499 114.498,98.1832 114,101.5C 113.722,102.416 113.222,103.082 112.5,103.5C 112.198,99.2095 112.864,95.2095 114.5,91.5 Z"/></g>
<g><path style="opacity:1" fill="#ffaca3" d="M 481.5,83.5 C 485.281,91.955 486.948,100.955 486.5,110.5C 486.333,115.5 486.167,120.5 486,125.5C 485.302,128.004 484.469,130.337 483.5,132.5C 484.231,124.677 484.897,116.844 485.5,109C 484.394,100.424 483.061,91.9237 481.5,83.5 Z"/></g>
<g><path style="opacity:1" fill="#fbb09c" d="M 112.5,121.5 C 113.222,121.918 113.722,122.584 114,123.5C 114.498,126.482 114.665,129.482 114.5,132.5C 112.918,129.124 112.251,125.458 112.5,121.5 Z"/></g>
<g><path style="opacity:1" fill="#fbae9b" d="M 114.5,132.5 C 115.117,132.611 115.617,132.944 116,133.5C 116.363,136.544 116.863,139.544 117.5,142.5C 116.883,142.389 116.383,142.056 116,141.5C 115.637,138.456 115.137,135.456 114.5,132.5 Z"/></g>
<g><path style="opacity:1" fill="#fdcbbe" d="M 118.5,146.5 C 121.425,149.475 123.092,153.142 123.5,157.5C 120.641,154.538 118.974,150.871 118.5,146.5 Z"/></g>
<g><path style="opacity:1" fill="#fdccc0" d="M 123.5,157.5 C 127.118,161.925 130.451,166.592 133.5,171.5C 128.216,168.217 124.882,163.551 123.5,157.5 Z"/></g>
<g><path style="opacity:1" fill="#fd6c58" d="M 298.5,18.5 C 299.5,18.5 300.5,18.5 301.5,18.5C 301.5,79.8333 301.5,141.167 301.5,202.5C 337.213,202.438 372.88,202.438 408.5,202.5C 371.839,203.5 335.173,203.833 298.5,203.5C 298.5,141.833 298.5,80.1667 298.5,18.5 Z"/></g>
<g><path style="opacity:1" fill="#fdd2c8" d="M 175.5,200.5 C 181.895,203.098 188.562,204.431 195.5,204.5C 195.5,204.833 195.5,205.167 195.5,205.5C 194.833,205.5 194.167,205.5 193.5,205.5C 187.436,205.306 181.436,204.639 175.5,203.5C 175.5,202.5 175.5,201.5 175.5,200.5 Z"/></g>
<g><path style="opacity:1" fill="#bc59c6" d="M 193.5,205.5 C 194.167,205.5 194.833,205.5 195.5,205.5C 229.833,205.5 264.167,205.5 298.5,205.5C 298.5,205.833 298.5,206.167 298.5,206.5C 298.5,206.833 298.5,207.167 298.5,207.5C 263.5,207.5 228.5,207.5 193.5,207.5C 193.5,207.167 193.5,206.833 193.5,206.5C 193.5,206.167 193.5,205.833 193.5,205.5 Z"/></g>
<g><path style="opacity:1" fill="#a259fe" d="M 193.5,207.5 C 228.5,207.5 263.5,207.5 298.5,207.5C 298.5,269.167 298.5,330.833 298.5,392.5C 262.832,392.667 227.165,392.5 191.5,392C 187.94,390.763 184.273,390.263 180.5,390.5C 177.579,389.304 174.579,388.304 171.5,387.5C 171.047,386.542 170.381,385.708 169.5,385C 167.414,384.685 165.414,384.185 163.5,383.5C 151.983,377.308 141.983,369.308 133.5,359.5C 132.92,357.251 131.587,355.585 129.5,354.5C 129.5,354.167 129.5,353.833 129.5,353.5C 128.173,348.837 125.84,344.837 122.5,341.5C 121.498,339.989 120.831,338.322 120.5,336.5C 113.935,313.57 113.268,290.57 118.5,267.5C 119.795,263.026 121.462,258.693 123.5,254.5C 125.757,251.648 127.757,248.648 129.5,245.5C 131.878,243.122 133.878,240.455 135.5,237.5C 139.751,233.916 143.751,229.916 147.5,225.5C 151.857,222.145 156.523,219.479 161.5,217.5C 164.436,216.594 167.436,215.928 170.5,215.5C 170.5,214.5 170.5,213.5 170.5,212.5C 170.833,212.5 171.167,212.5 171.5,212.5C 178.882,210.689 186.215,209.022 193.5,207.5 Z"/></g>
<g><path style="opacity:1" fill="#dac1e3" d="M 298.5,206.5 C 298.5,206.167 298.5,205.833 298.5,205.5C 333.167,205.5 367.833,205.5 402.5,205.5C 402.5,205.833 402.5,206.167 402.5,206.5C 394.167,206.5 385.833,206.5 377.5,206.5C 351.833,206.5 326.167,206.5 300.5,206.5C 300.5,230.167 300.5,253.833 300.5,277.5C 300.795,279.735 300.461,281.735 299.5,283.5C 299.831,257.661 299.498,231.995 298.5,206.5 Z"/></g>
<g><path style="opacity:1" fill="#fafcfe" d="M 377.5,206.5 C 351.248,211.722 330.415,225.388 315,247.5C 311.84,253.576 308.506,259.576 305,265.5C 303.722,269.698 302.222,273.698 300.5,277.5C 300.5,253.833 300.5,230.167 300.5,206.5C 326.167,206.5 351.833,206.5 377.5,206.5 Z"/></g>
<g><path style="opacity:1" fill="#1dbcfd" d="M 377.5,206.5 C 385.833,206.5 394.167,206.5 402.5,206.5C 434.342,210.816 458.676,226.816 475.5,254.5C 478.075,261.312 480.908,267.979 484,274.5C 484.497,277.146 484.664,279.813 484.5,282.5C 485.794,293.169 485.794,303.835 484.5,314.5C 483.422,323.034 481.255,331.367 478,339.5C 473.27,348.428 467.603,356.761 461,364.5C 453.74,370.774 446.24,376.608 438.5,382C 433.38,384.777 428.047,387.11 422.5,389C 417.124,390.062 411.791,391.228 406.5,392.5C 390.468,393.522 374.801,391.856 359.5,387.5C 359.167,387.5 358.833,387.5 358.5,387.5C 358.047,386.542 357.381,385.708 356.5,385C 351.7,383.011 347.034,380.845 342.5,378.5C 332.796,372.36 324.296,364.694 317,355.5C 314.802,351.203 312.135,347.203 309,343.5C 306.664,335.444 303.831,327.777 300.5,320.5C 299.63,308.189 299.296,295.856 299.5,283.5C 300.461,281.735 300.795,279.735 300.5,277.5C 302.222,273.698 303.722,269.698 305,265.5C 308.506,259.576 311.84,253.576 315,247.5C 330.415,225.388 351.248,211.722 377.5,206.5 Z"/></g>
<g><path style="opacity:1" fill="#c191ff" d="M 193.5,206.5 C 193.5,206.833 193.5,207.167 193.5,207.5C 186.215,209.022 178.882,210.689 171.5,212.5C 173.583,211.027 175.916,209.86 178.5,209C 183.536,208.263 188.536,207.429 193.5,206.5 Z"/></g>
<g><path style="opacity:1" fill="#b881ff" d="M 170.5,212.5 C 170.5,213.5 170.5,214.5 170.5,215.5C 167.436,215.928 164.436,216.594 161.5,217.5C 164.144,215.277 167.144,213.611 170.5,212.5 Z"/></g>
<g><path style="opacity:1" fill="#dcc1ff" d="M 135.5,237.5 C 133.878,240.455 131.878,243.122 129.5,245.5C 130.313,242.011 132.313,239.344 135.5,237.5 Z"/></g>
<g><path style="opacity:1" fill="#e6d4ff" d="M 123.5,254.5 C 121.462,258.693 119.795,263.026 118.5,267.5C 118.167,267.5 117.833,267.5 117.5,267.5C 117.784,264.368 118.617,261.368 120,258.5C 120.74,256.681 121.907,255.348 123.5,254.5 Z"/></g>
<g><path style="opacity:1" fill="#e7d6ff" d="M 117.5,267.5 C 117.006,272.57 115.673,277.237 113.5,281.5C 113.187,278.753 113.52,276.086 114.5,273.5C 114.964,271.025 115.964,269.025 117.5,267.5 Z"/></g>
<g><path style="opacity:1" fill="#af71ff" d="M 117.5,267.5 C 117.833,267.5 118.167,267.5 118.5,267.5C 113.268,290.57 113.935,313.57 120.5,336.5C 118.98,334.412 117.98,332.078 117.5,329.5C 116.833,328.167 116.167,326.833 115.5,325.5C 114.965,321.181 114.465,316.848 114,312.5C 113.722,311.584 113.222,310.918 112.5,310.5C 112.275,300.801 112.608,291.134 113.5,281.5C 115.673,277.237 117.006,272.57 117.5,267.5 Z"/></g>
<g><path style="opacity:1" fill="#8edafe" d="M 484.5,282.5 C 485.827,286.783 486.493,291.449 486.5,296.5C 486.333,301.167 486.167,305.833 486,310.5C 485.79,312.058 485.29,313.391 484.5,314.5C 485.794,303.835 485.794,293.169 484.5,282.5 Z"/></g>
<g><path style="opacity:1" fill="#d4bcfe" d="M 298.5,206.5 C 299.498,231.995 299.831,257.661 299.5,283.5C 299.296,295.856 299.63,308.189 300.5,320.5C 300.5,344.833 300.5,369.167 300.5,393.5C 299.833,393.5 299.167,393.5 298.5,393.5C 298.5,393.167 298.5,392.833 298.5,392.5C 298.5,330.833 298.5,269.167 298.5,207.5C 298.5,207.167 298.5,206.833 298.5,206.5 Z"/></g>
<g><path style="opacity:1" fill="#dfc9ff" d="M 112.5,310.5 C 113.222,310.918 113.722,311.584 114,312.5C 114.465,316.848 114.965,321.181 115.5,325.5C 113.604,320.936 112.604,315.936 112.5,310.5 Z"/></g>
<g><path style="opacity:1" fill="#e9d8ff" d="M 117.5,329.5 C 117.98,332.078 118.98,334.412 120.5,336.5C 120.831,338.322 121.498,339.989 122.5,341.5C 122.5,342.167 122.5,342.833 122.5,343.5C 118.707,339.7 117.041,335.033 117.5,329.5 Z"/></g>
<g><path style="opacity:1" fill="#bb85ff" d="M 122.5,341.5 C 125.84,344.837 128.173,348.837 129.5,353.5C 127.158,350.14 124.824,346.807 122.5,343.5C 122.5,342.833 122.5,342.167 122.5,341.5 Z"/></g>
<g><path style="opacity:1" fill="#dec5ff" d="M 129.5,354.5 C 131.587,355.585 132.92,357.251 133.5,359.5C 131.413,358.415 130.08,356.749 129.5,354.5 Z"/></g>
<g><path style="opacity:1" fill="#8fdafe" d="M 342.5,378.5 C 347.034,380.845 351.7,383.011 356.5,385C 357.381,385.708 358.047,386.542 358.5,387.5C 355.657,387.083 352.99,386.083 350.5,384.5C 347.614,382.673 344.948,380.673 342.5,378.5 Z"/></g>
<g><path style="opacity:1" fill="#d1aeff" d="M 163.5,383.5 C 165.414,384.185 167.414,384.685 169.5,385C 170.381,385.708 171.047,386.542 171.5,387.5C 168.194,387.181 165.527,385.847 163.5,383.5 Z"/></g>
<g><path style="opacity:1" fill="#aba4e8" d="M 180.5,390.5 C 184.273,390.263 187.94,390.763 191.5,392C 227.165,392.5 262.832,392.667 298.5,392.5C 298.5,392.833 298.5,393.167 298.5,393.5C 262.833,393.5 227.167,393.5 191.5,393.5C 187.643,392.926 183.976,391.926 180.5,390.5 Z"/></g>
<g><path style="opacity:1" fill="#8cdcfe" d="M 359.5,387.5 C 374.801,391.856 390.468,393.522 406.5,392.5C 395.674,393.659 384.674,393.826 373.5,393C 368.453,391.697 363.786,389.863 359.5,387.5 Z"/></g>
<g><path style="opacity:1" fill="#0ecf83" d="M 187.5,395.5 C 224.167,395.5 260.833,395.5 297.5,395.5C 297.5,431.5 297.5,467.5 297.5,503.5C 295.76,511.188 293.76,518.854 291.5,526.5C 288.213,530.76 285.879,535.427 284.5,540.5C 281.53,541.308 279.697,543.308 279,546.5C 273.968,551.034 269.134,555.7 264.5,560.5C 259.654,563.615 254.654,566.615 249.5,569.5C 249.137,570.183 248.804,570.85 248.5,571.5C 239.836,574.94 230.836,577.607 221.5,579.5C 210.829,580.805 200.162,580.805 189.5,579.5C 187.5,579.5 185.5,579.5 183.5,579.5C 183.423,578.25 182.756,577.417 181.5,577C 179.134,576.56 176.801,576.06 174.5,575.5C 162.761,572.132 152.428,566.132 143.5,557.5C 119.04,533.75 108.873,504.75 113,470.5C 114.765,462.698 117.265,455.365 120.5,448.5C 123.052,444.403 125.385,440.07 127.5,435.5C 141.703,413.587 161.703,400.254 187.5,395.5 Z"/></g>
<g><path style="opacity:1" fill="#9bddc7" d="M 191.5,394.5 C 191.5,394.167 191.5,393.833 191.5,393.5C 227.167,393.5 262.833,393.5 298.5,393.5C 299.167,393.5 299.833,393.5 300.5,393.5C 300.667,427.502 300.5,461.502 300,495.5C 299.722,496.416 299.222,497.082 298.5,497.5C 298.5,463.167 298.5,428.833 298.5,394.5C 262.833,394.5 227.167,394.5 191.5,394.5 Z"/></g>
<g><path style="opacity:1" fill="#38d198" d="M 187.5,395.5 C 188.568,394.566 189.901,394.232 191.5,394.5C 227.167,394.5 262.833,394.5 298.5,394.5C 298.5,428.833 298.5,463.167 298.5,497.5C 298.795,499.735 298.461,501.735 297.5,503.5C 297.5,467.5 297.5,431.5 297.5,395.5C 260.833,395.5 224.167,395.5 187.5,395.5 Z"/></g>
<g><path style="opacity:1" fill="#b8efd6" d="M 127.5,435.5 C 125.385,440.07 123.052,444.403 120.5,448.5C 121.565,443.363 123.898,439.03 127.5,435.5 Z"/></g>
<g><path style="opacity:1" fill="#abeccf" d="M 264.5,560.5 C 259.929,565.214 254.596,568.881 248.5,571.5C 248.804,570.85 249.137,570.183 249.5,569.5C 254.654,566.615 259.654,563.615 264.5,560.5 Z"/></g>
<g><path style="opacity:1" fill="#a8ebcc" d="M 174.5,575.5 C 176.801,576.06 179.134,576.56 181.5,577C 182.756,577.417 183.423,578.25 183.5,579.5C 180.063,578.944 177.063,577.611 174.5,575.5 Z"/></g>
<g><path style="opacity:1" fill="#9ae9c7" d="M 189.5,579.5 C 200.162,580.805 210.829,580.805 221.5,579.5C 220.391,580.29 219.058,580.79 217.5,581C 208.833,581.667 200.167,581.667 191.5,581C 190.584,580.722 189.918,580.222 189.5,579.5 Z"/></g>
</svg>
