<?xml version="1.0" encoding="UTF-8"?>
<svg version="1.1" xmlns="http://www.w3.org/2000/svg" width="225" height="225">
<path d="M0 0 C43.89 0 87.78 0 133 0 C133 27.06 133 54.12 133 82 C126.25 79.75 126.25 79.75 123.19775391 78.12060547 C122.50818604 77.75539795 121.81861816 77.39019043 121.1081543 77.01391602 C120.404729 76.63549561 119.70130371 76.2570752 118.9765625 75.8671875 C118.31422607 75.515354 117.65188965 75.16352051 116.96948242 74.80102539 C114.51862736 73.49740298 112.07205817 72.18573576 109.625 70.875 C104.13875 67.94625 98.6525 65.0175 93 62 C93 48.8 93 35.6 93 22 C89.05675781 22.13921875 85.11351562 22.2784375 81.05078125 22.421875 C77.84082221 22.49943028 74.63113935 22.56436099 71.42076874 22.6210022 C68.06591417 22.68355718 64.71775683 22.77339105 61.36450195 22.90527344 C43.40229059 23.59314487 30.95097671 22.08879374 16.15312195 11.49737549 C12.80316261 9.16766676 9.25714222 7.21861433 5.6875 5.25 C2.84375 3.625 2.84375 3.625 0 2 C0 1.34 0 0.68 0 0 Z " fill="#685BA5" transform="translate(54,118)"/>
<path d="M0 0 C6.75 2.25 6.75 2.25 9.80224609 3.87939453 C10.49181396 4.24460205 11.18138184 4.60980957 11.8918457 4.98608398 C12.595271 5.36450439 13.29869629 5.7429248 14.0234375 6.1328125 C15.01694214 6.66056274 15.01694214 6.66056274 16.03051758 7.19897461 C18.48137264 8.50259702 20.92794183 9.81426424 23.375 11.125 C28.86125 14.05375 34.3475 16.9825 40 20 C40 33.2 40 46.4 40 60 C43.88523438 59.82597656 47.77046875 59.65195313 51.7734375 59.47265625 C103.59964558 57.66045428 103.59964558 57.66045428 121.75439453 73.18115234 C125.2123572 75.98195925 129.04090197 77.99747115 133 80 C133 80.66 133 81.32 133 82 C89.11 82 45.22 82 0 82 C0 54.94 0 27.88 0 0 Z " fill="#685AA5" transform="translate(38,25)"/>
<path d="M0 0 C6.75084262 2.25028087 6.75084262 2.25028087 9.9699707 3.86352539 C10.6870369 4.22052017 11.40410309 4.57751495 12.14289856 4.94532776 C13.27292549 5.51573036 13.27292549 5.51573036 14.42578125 6.09765625 C15.60807564 6.68914711 15.60807564 6.68914711 16.81425476 7.29258728 C18.46997689 8.12195221 20.12473185 8.95325051 21.77856445 9.78637695 C24.31947221 11.06601129 26.86356463 12.33913142 29.40820312 13.61132812 C31.01841919 14.41889205 32.62845185 15.2268218 34.23828125 16.03515625 C35.00175369 16.41744888 35.76522614 16.79974152 36.55183411 17.19361877 C41.88390992 19.88390992 41.88390992 19.88390992 43 21 C43.0935919 22.71865409 43.11744611 24.44115744 43.11352539 26.16235352 C43.11344986 27.26341934 43.11337433 28.36448517 43.11329651 29.49891663 C43.10813522 30.6968132 43.10297394 31.89470978 43.09765625 33.12890625 C43.0962413 34.34827377 43.09482635 35.5676413 43.09336853 36.82395935 C43.08774967 40.7368307 43.07519396 44.64964581 43.0625 48.5625 C43.05748743 51.20768147 43.0529241 53.85286383 43.04882812 56.49804688 C43.03777411 62.99871726 43.02101764 69.49935461 43 76 C30.36577717 69.76034979 30.36577717 69.76034979 24.82421875 66.4921875 C23.81166016 65.89792969 22.79910156 65.30367188 21.75585938 64.69140625 C20.74330078 64.09199219 19.73074219 63.49257812 18.6875 62.875 C16.62903847 61.66383775 14.5704481 60.45289445 12.51171875 59.2421875 C11.61928467 58.7147998 10.72685059 58.18741211 9.80737305 57.64404297 C6.55259109 55.73799012 3.27485879 53.87134788 0 52 C0 34.84 0 17.68 0 0 Z " fill="#6658A4" transform="translate(144,25)"/>
<path d="M0 0 C12.63422283 6.23965021 12.63422283 6.23965021 18.17578125 9.5078125 C19.69461914 10.39919922 19.69461914 10.39919922 21.24414062 11.30859375 C22.25669922 11.90800781 23.26925781 12.50742188 24.3125 13.125 C26.37096153 14.33616225 28.4295519 15.54710555 30.48828125 16.7578125 C31.38071533 17.2852002 32.27314941 17.81258789 33.19262695 18.35595703 C36.44740891 20.26200988 39.72514121 22.12865212 43 24 C43 41.16 43 58.32 43 76 C36.24915738 73.74971913 36.24915738 73.74971913 33.0300293 72.13647461 C31.95443001 71.60098244 31.95443001 71.60098244 30.85710144 71.05467224 C30.10375015 70.67440384 29.35039886 70.29413544 28.57421875 69.90234375 C27.78602249 69.50801651 26.99782623 69.11368927 26.18574524 68.70741272 C24.53002311 67.87804779 22.87526815 67.04674949 21.22143555 66.21362305 C18.68052779 64.93398871 16.13643537 63.66086858 13.59179688 62.38867188 C11.98158081 61.58110795 10.37154815 60.7731782 8.76171875 59.96484375 C7.99824631 59.58255112 7.23477386 59.20025848 6.44816589 58.80638123 C1.11609008 56.11609008 1.11609008 56.11609008 0 55 C-0.0935919 53.28134591 -0.11744611 51.55884256 -0.11352539 49.83764648 C-0.11344986 48.73658066 -0.11337433 47.63551483 -0.11329651 46.50108337 C-0.10813522 45.3031868 -0.10297394 44.10529022 -0.09765625 42.87109375 C-0.0962413 41.65172623 -0.09482635 40.4323587 -0.09336853 39.17604065 C-0.08774967 35.2631693 -0.07519396 31.35035419 -0.0625 27.4375 C-0.05748743 24.79231853 -0.0529241 22.14713617 -0.04882812 19.50195312 C-0.03777411 13.00128274 -0.02101764 6.50064539 0 0 Z " fill="#6759A4" transform="translate(38,124)"/>
<path d="M0 0 C1.98 0.99 1.98 0.99 4 2 C3.67 2.66 3.34 3.32 3 4 C2.34 4 1.68 4 1 4 C1 19.51 1 35.02 1 51 C2.32 51 3.64 51 5 51 C5 51.99 5 52.98 5 54 C3.35 53.34 1.7 52.68 0 52 C0 34.84 0 17.68 0 0 Z " fill="#7C72A8" transform="translate(144,25)"/>
<path d="M0 0 C4.8274799 1.41292095 8.7162359 3.42974154 13 6 C13 6.66 13 7.32 13 8 C8.05 7.67 3.1 7.34 -2 7 C-1.34 4.69 -0.68 2.38 0 0 Z " fill="#6D61A2" transform="translate(156,98)"/>
<path d="M0 0 C3.0831351 1.19899698 6.06279492 2.47700477 9 4 C9 4.99 9 5.98 9 7 C5.91190305 8.76462683 4.76687864 9 1 9 C0.67 6.03 0.34 3.06 0 0 Z " fill="#61539D" transform="translate(39,125)"/>
<path d="M0 0 C1.32 0.33 2.64 0.66 4 1 C4 14.2 4 27.4 4 41 C3.67 41 3.34 41 3 41 C2.67 28.46 2.34 15.92 2 3 C1.34 2.67 0.68 2.34 0 2 C0 1.34 0 0.68 0 0 Z " fill="#8178AC" transform="translate(74,44)"/>
<path d="M0 0 C3.7910119 1.44950455 7.3874638 3.15172566 11 5 C10.67 5.99 10.34 6.98 10 8 C7.125 8.125 7.125 8.125 4 8 C3.34 7.34 2.68 6.68 2 6 C2 4.68 2 3.36 2 2 C1.34 2 0.68 2 0 2 C0 1.34 0 0.68 0 0 Z " fill="#7063AB" transform="translate(63,38)"/>
<path d="M0 0 C1.875 1.375 1.875 1.375 2.625 4 C2.74875 5.175625 2.74875 5.175625 2.875 6.375 C-0.46873475 5.81771087 -3.15812999 5.02326111 -6.125 3.375 C-5.795 2.385 -5.465 1.395 -5.125 0.375 C-2.125 -0.625 -2.125 -0.625 0 0 Z " fill="#6559A2" transform="translate(183.125,192.625)"/>
<path d="M0 0 C3.73487777 0.4979837 5.81237635 0.87491756 9 3 C10.22359623 3.71791299 11.45290429 4.42617224 12.6875 5.125 C13.780625 5.74375 14.87375 6.3625 16 7 C15.34 7.66 14.68 8.32 14 9 C7.07 5.04 7.07 5.04 0 1 C0 0.67 0 0.34 0 0 Z " fill="#7E75AA" transform="translate(165,88)"/>
<path d="M0 0 C1.32 0.33 2.64 0.66 4 1 C4 6.28 4 11.56 4 17 C3.67 17 3.34 17 3 17 C2.95101562 16.00097656 2.90203125 15.00195312 2.8515625 13.97265625 C2.77679688 12.68230469 2.70203125 11.39195313 2.625 10.0625 C2.55539063 8.77472656 2.48578125 7.48695312 2.4140625 6.16015625 C2.27742188 5.11730469 2.14078125 4.07445312 2 3 C1.34 2.67 0.68 2.34 0 2 C0 1.34 0 0.68 0 0 Z " fill="#887FB1" transform="translate(74,44)"/>
<path d="M0 0 C2.91517292 1.07401108 4.77810176 1.77810176 7 4 C6.34 4.66 5.68 5.32 5 6 C4.01 6 3.02 6 2 6 C2 4.68 2 3.36 2 2 C1.34 2 0.68 2 0 2 C0 1.34 0 0.68 0 0 Z " fill="#796DAA" transform="translate(63,38)"/>
<path d="M0 0 C1.32 0 2.64 0 4 0 C4 1.98 4 3.96 4 6 C1.525 5.01 1.525 5.01 -1 4 C-0.67 2.68 -0.34 1.36 0 0 Z " fill="#7367A5" transform="translate(83,132)"/>
<path d="M0 0 C3.45925163 1.2491742 6.14693203 2.67527795 9 5 C7.68 5.33 6.36 5.66 5 6 C4.67 5.34 4.34 4.68 4 4 C1.98330173 2.86649466 1.98330173 2.86649466 0 2 C0 1.34 0 0.68 0 0 Z " fill="#8077A8" transform="translate(39,125)"/>
<path d="M0 0 C5.75 1.75 5.75 1.75 8 4 C5.69 4 3.38 4 1 4 C0.67 2.68 0.34 1.36 0 0 Z " fill="#766DA2" transform="translate(178,42)"/>
<path d="M0 0 C1.32 0 2.64 0 4 0 C4.33 1.65 4.66 3.3 5 5 C3.02 4.34 1.04 3.68 -1 3 C-0.67 2.01 -0.34 1.02 0 0 Z " fill="#756DA2" transform="translate(178,193)"/>
</svg>
