<?xml version="1.0" encoding="UTF-8"?>
<svg version="1.1" xmlns="http://www.w3.org/2000/svg" width="225" height="225">
<path d="M0 0 C74.25 0 148.5 0 225 0 C225 74.25 225 148.5 225 225 C150.75 225 76.5 225 0 225 C0 150.75 0 76.5 0 0 Z " fill="#FEFEFE" transform="translate(0,0)"/>
<path d="M0 0 C13.18304477 11.45378735 21.85561627 25.31566558 23.18920898 42.90795898 C24.09457057 60.10600101 21.07741109 74.16296271 10.03125 87.82421875 C8.39430363 89.52008494 6.72808099 91.18827249 5.03125 92.82421875 C4.35964844 93.49324219 3.68804687 94.16226563 2.99609375 94.8515625 C-2.74540018 100.26117817 -8.70021639 103.79014945 -15.96875 106.82421875 C-16.78472656 107.16582031 -17.60070312 107.50742188 -18.44140625 107.859375 C-32.47154759 112.63985105 -50.66608395 111.15104347 -64.03125 105.13671875 C-74.72788786 99.22599927 -83.31030366 91.26028004 -90.96875 81.82421875 C-90.96875 81.16421875 -90.96875 80.50421875 -90.96875 79.82421875 C-91.56429687 79.56511719 -92.15984375 79.30601563 -92.7734375 79.0390625 C-95.14567182 77.72631362 -96.37293309 76.46639948 -98.09375 74.38671875 C-101.10240661 70.83637343 -104.16101267 67.33929239 -107.28125 63.88671875 C-108.12300781 62.94957031 -108.96476562 62.01242188 -109.83203125 61.046875 C-111.76742031 58.78535679 -111.76742031 58.78535679 -113.96875 57.82421875 C-115.71714516 55.16665811 -116.96002482 52.8503943 -117.96875 49.82421875 C-119.29282669 49.1393515 -120.62784241 48.47551672 -121.96875 47.82421875 C-123.34576298 46.53604531 -124.67519173 45.19617449 -125.96875 43.82421875 C-126.773125 43.04046875 -127.5775 42.25671875 -128.40625 41.44921875 C-135.96875 33.70226753 -135.96875 33.70226753 -135.96875 30.82421875 C-136.62875 30.82421875 -137.28875 30.82421875 -137.96875 30.82421875 C-137.96875 29.83421875 -137.96875 28.84421875 -137.96875 27.82421875 C-137.30875 27.82421875 -136.64875 27.82421875 -135.96875 27.82421875 C-135.783125 27.26734375 -135.5975 26.71046875 -135.40625 26.13671875 C-132.68803054 21.76393093 -128.5112334 19.47206178 -123.84375 17.51171875 C-116.18548023 16.15299347 -107.82867222 15.22059406 -100.9140625 19.38671875 C-93.83755339 24.61594636 -88.01228003 30.72874379 -82.45068359 37.50878906 C-77.81316405 43.12992601 -72.80716257 48.38212689 -67.7434082 53.61938477 C-66.81274536 54.59282837 -66.81274536 54.59282837 -65.86328125 55.5859375 C-65.02567261 56.45158325 -65.02567261 56.45158325 -64.17114258 57.3347168 C-62.96875 58.82421875 -62.96875 58.82421875 -62.96875 60.82421875 C-61.48375 61.31921875 -61.48375 61.31921875 -59.96875 61.82421875 C-58.85798517 63.05309022 -57.80091059 64.33126255 -56.78125 65.63671875 C-52.25271676 70.86989928 -48.59567607 73.41698495 -41.62890625 74.19921875 C-33.21572074 74.48654205 -27.30825623 73.7947791 -21.0390625 68.05859375 C-15.61575664 62.34274442 -12.92537567 56.83173214 -12.53125 48.94921875 C-12.74656329 41.98383391 -14.99518138 35.71228189 -19.96875 30.82421875 C-19.96875 30.16421875 -19.96875 29.50421875 -19.96875 28.82421875 C-20.62875 28.82421875 -21.28875 28.82421875 -21.96875 28.82421875 C-22.29875 28.16421875 -22.62875 27.50421875 -22.96875 26.82421875 C-29.79708383 23.21116832 -37.43965697 23.10621253 -44.96875 23.82421875 C-48.37132055 24.77460528 -48.37132055 24.77460528 -50.96875 26.82421875 C-51.55140625 27.23800781 -52.1340625 27.65179688 -52.734375 28.078125 C-58.32779841 32.39070145 -61.40877312 36.96132737 -62.4296875 44.00390625 C-62.68586115 46.94644142 -62.87036135 49.87255937 -62.96875 52.82421875 C-64.96875 52.82421875 -64.96875 52.82421875 -66.4765625 51.36328125 C-67.01023437 50.73164062 -67.54390625 50.1 -68.09375 49.44921875 C-68.63257812 48.82273438 -69.17140625 48.19625 -69.7265625 47.55078125 C-70.96875 45.82421875 -70.96875 45.82421875 -70.96875 43.82421875 C-71.86207031 43.43556641 -71.86207031 43.43556641 -72.7734375 43.0390625 C-75.14567182 41.72631362 -76.37293309 40.46639948 -78.09375 38.38671875 C-80.22014039 35.84247871 -82.37002908 33.41021901 -84.6796875 31.02734375 C-85.14101074 30.54837646 -85.60233398 30.06940918 -86.07763672 29.57592773 C-87.41864106 28.18856013 -88.77160755 26.81278557 -90.125 25.4375 C-91.96875 22.82421875 -91.96875 22.82421875 -91.93359375 20.29296875 C-90.88434062 17.60824009 -89.64930016 15.3972548 -88.03125 13.01171875 C-87.50660156 12.22152344 -86.98195312 11.43132813 -86.44140625 10.6171875 C-85.95542969 10.02550781 -85.46945313 9.43382813 -84.96875 8.82421875 C-84.30875 8.82421875 -83.64875 8.82421875 -82.96875 8.82421875 C-82.96875 8.16421875 -82.96875 7.50421875 -82.96875 6.82421875 C-82.30875 6.82421875 -81.64875 6.82421875 -80.96875 6.82421875 C-80.59363281 5.93863281 -80.59363281 5.93863281 -80.2109375 5.03515625 C-75.62929718 -3.11958722 -64.08141356 -8.02502926 -55.6484375 -10.9921875 C-36.31216112 -15.80941315 -15.92644535 -11.67240798 0 0 Z " fill="#FB6CBE" transform="translate(167.96875,44.17578125)"/>
<path d="M0 0 C4.5111731 3.8667198 8.671707 7.6249453 12.75 11.875 C18.61177229 17.86151065 25.01501212 23.8465971 32.78515625 27.203125 C35 29 35 29 35.59375 32.73046875 C35.59341595 34.21647442 35.56060283 35.70273057 35.5 37.1875 C35.4808252 37.95763428 35.46165039 38.72776855 35.44189453 39.52124023 C35.01689827 50.33796944 30.53768876 57.99597272 22.625 65.3125 C15.34093826 71.14929183 9.71637288 71 0 71 C0 47.57 0 24.14 0 0 Z " fill="#5B77FD" transform="translate(69,124)"/>
<path d="M0 0 C0.33 0 0.66 0 1 0 C1 2.64 1 5.28 1 8 C10.57 7.67 20.14 7.34 30 7 C29.34 5.68 28.68 4.36 28 3 C28 2.01 28 1.02 28 0 C30.31 0 32.62 0 35 0 C33.58900026 9.87699816 28.54834361 16.59694302 20.80078125 22.78125 C13.95947692 27.41137354 8.62587409 27 0 27 C0 18.09 0 9.18 0 0 Z " fill="#42A6FE" transform="translate(69,168)"/>
<path d="M0 0 C-6.83266782 14.42452096 -17.28667343 24.87370083 -32.375 30.9375 C-35.508974 31.85607859 -37.77584181 32.30226483 -41 32 C-41 30.68 -41 29.36 -41 28 C-38.09399739 26.74335022 -36.20395416 26 -33 26 C-33 25.34 -33 24.68 -33 24 C-30.36 24 -27.72 24 -25 24 C-25 21.69 -25 19.38 -25 17 C-22.36 17.33 -19.72 17.66 -17 18 C-17 14.7 -17 11.4 -17 8 C-16.01 8.33 -15.02 8.66 -14 9 C-13.67 9.99 -13.34 10.98 -13 12 C-12.34 12.33 -11.68 12.66 -11 13 C-9.82923301 9.01939223 -8.74250597 5.08378283 -8 1 C-5.07175348 0.02391783 -3.04386724 -0.08226668 0 0 Z " fill="#F86ACD" transform="translate(185,120)"/>
<path d="M0 0 C0.1875 3.375 0.1875 3.375 0 7 C-0.99 7.66 -1.98 8.32 -3 9 C-3.33 9.99 -3.66 10.98 -4 12 C-3.01 11.67 -2.02 11.34 -1 11 C-0.67 12.32 -0.34 13.64 0 15 C1.98 15 3.96 15 6 15 C4.02 15.99 4.02 15.99 2 17 C2.99 17.33 3.98 17.66 5 18 C5 18.66 5 19.32 5 20 C5.66 20 6.32 20 7 20 C7 20.99 7 21.98 7 23 C8.65 23.33 10.3 23.66 12 24 C12 24.66 12 25.32 12 26 C11.34 26 10.68 26 10 26 C10.66 26.99 11.32 27.98 12 29 C13.32 29 14.64 29 16 29 C16.33 29.99 16.66 30.98 17 32 C16.67 32.66 16.34 33.32 16 34 C17.65 34 19.3 34 21 34 C21 35.66666667 21 37.33333333 21 39 C22.45833358 40.62514468 22.45833358 40.62514468 24 42 C23.67 42.99 23.34 43.98 23 45 C22.51789062 44.50628906 22.03578125 44.01257813 21.5390625 43.50390625 C20.59160156 42.54291016 20.59160156 42.54291016 19.625 41.5625 C18.68527344 40.60537109 18.68527344 40.60537109 17.7265625 39.62890625 C16.08276939 37.92117824 16.08276939 37.92117824 14 37 C12.25160484 34.34243936 11.00872518 32.02617555 10 29 C8.67592331 28.31513275 7.34090759 27.65129797 6 27 C4.62298702 25.71182656 3.29355827 24.37195574 2 23 C1.195625 22.21625 0.39125 21.4325 -0.4375 20.625 C-8 12.87804878 -8 12.87804878 -8 10 C-8.66 10 -9.32 10 -10 10 C-10 9.01 -10 8.02 -10 7 C-9.34 7 -8.68 7 -8 7 C-7.7525 6.401875 -7.505 5.80375 -7.25 5.1875 C-5.55294333 2.21765083 -3.56508774 0 0 0 Z " fill="#F78778" transform="translate(40,65)"/>
<path d="M0 0 C5.71057219 4.15314341 9.92518818 9.56135862 14.47265625 14.90625 C21.71032829 23.2319554 29.43740684 30.1206476 40 34 C39.67 35.65 39.34 37.3 39 39 C38.34 39 37.68 39 37 39 C37 43.29 37 47.58 37 52 C36.67 52 36.34 52 36 52 C36.04382813 50.98679688 36.08765625 49.97359375 36.1328125 48.9296875 C36.43169433 41.4275807 36.43169433 41.4275807 33.1640625 35.08984375 C31.47168794 34.19436401 29.74908852 33.35481825 28.0078125 32.55859375 C22.41240072 29.6591531 18.1686958 24.98261747 13.68310547 20.61865234 C11.98223715 18.98291736 10.24772059 17.39054321 8.50390625 15.80078125 C7.39743759 14.76408701 6.29193309 13.72636255 5.1875 12.6875 C4.66559082 12.22069824 4.14368164 11.75389648 3.60595703 11.27294922 C0.72487992 8.49557131 0.01688531 7.20079274 -0.32421875 3.14453125 C-0.21722656 2.10683594 -0.11023438 1.06914063 0 0 Z " fill="#F5EAF3" transform="translate(68,116)"/>
<path d="M0 0 C0.33 0.99 0.66 1.98 1 3 C1.99 3 2.98 3 4 3 C3.690625 4.010625 3.38125 5.02125 3.0625 6.0625 C2.61250896 9.82311024 2.61250896 9.82311024 4.24609375 11.7421875 C5.45781422 12.91342733 6.69704314 14.05663014 7.95703125 15.17578125 C10.04701847 17.04198399 11.85550149 19.00687591 13.6875 21.125 C14.26628906 21.79402344 14.84507813 22.46304688 15.44140625 23.15234375 C16.6971513 24.64098387 17.91706114 26.15981262 19.125 27.6875 C21.76921744 30.94870151 24.74251584 33.82923889 27.8125 36.6875 C29 38 29 38 29 40 C29.66 40 30.32 40 31 40 C31 36.04 31 32.08 31 28 C31.33 28 31.66 28 32 28 C32.0810206 30.10353495 32.13919907 32.20795952 32.1875 34.3125 C32.23970703 36.07013672 32.23970703 36.07013672 32.29296875 37.86328125 C32 41 32 41 30.48828125 42.91796875 C29.99714844 43.27503906 29.50601563 43.63210937 29 44 C24.5213361 40.34394784 20.62732725 36.60251004 16.8828125 32.203125 C14.79700323 29.76246851 12.65414408 27.38051176 10.5 25 C7.12782162 21.26528367 3.79816168 17.49835614 0.5078125 13.69140625 C-0.94138986 12.0657466 -2.444151 10.52324139 -4 9 C-3.01 8.67 -2.02 8.34 -1 8 C-1 7.01 -1 6.02 -1 5 C-0.68911632 3.32900023 -0.35919668 1.66128463 0 0 Z " fill="#F7ECF4" transform="translate(74,57)"/>
<path d="M0 0 C0.33 0 0.66 0 1 0 C1 8.91 1 17.82 1 27 C-0.65 25.35 -2.3 23.7 -4 22 C-4.66644531 21.36835937 -5.33289063 20.73671875 -6.01953125 20.0859375 C-6.61121094 19.52132812 -7.20289062 18.95671875 -7.8125 18.375 C-8.41707031 17.80523437 -9.02164063 17.23546875 -9.64453125 16.6484375 C-11 15 -11 15 -11 12 C-9.38161281 10.28641357 -7.70328319 8.6292274 -6 7 C-4.38374042 5.14014149 -2.8049773 3.25395451 -1.234375 1.35546875 C-0.82703125 0.90816406 -0.4196875 0.46085937 0 0 Z " fill="#D651FC" transform="translate(87,52)"/>
<path d="M0 0 C1.32 0.33 2.64 0.66 4 1 C3.91621094 1.84820312 3.83242187 2.69640625 3.74609375 3.5703125 C2.99283927 12.24704136 3.14293797 20.32389511 4 29 C1.01576614 30.21744864 -1.85018814 31.30004181 -5 32 C-5 32.66 -5 33.32 -5 34 C-6.65 34 -8.3 34 -10 34 C-9.60167969 33.5153125 -9.20335937 33.030625 -8.79296875 32.53125 C-8.26316406 31.8609375 -7.73335937 31.190625 -7.1875 30.5 C-6.66542969 29.8503125 -6.14335937 29.200625 -5.60546875 28.53125 C-1.54751773 22.13331262 -0.52559084 15.9764445 -0.3125 8.5 C-0.27833984 7.67757812 -0.24417969 6.85515625 -0.20898438 6.0078125 C-0.1275012 4.0056545 -0.06205425 2.00285432 0 0 Z " fill="#FB67CF" transform="translate(156,80)"/>
<path d="M0 0 C6.49678438 -0.29530838 12.6221448 0.82706111 19 2 C19 2.33 19 2.66 19 3 C18.34773438 3.03738281 17.69546875 3.07476562 17.0234375 3.11328125 C8.29554169 3.76980439 1.9717618 6.47877828 -4 13 C-5.60642943 15.61456989 -6.77987317 18.16930575 -8 21 C-8.66 20.67 -9.32 20.34 -10 20 C-10 16.04 -10 12.08 -10 8 C-7.36 8 -4.72 8 -2 8 C-2 6.02 -2 4.04 -2 2 C-1.34 1.67 -0.68 1.34 0 1 C0 0.67 0 0.34 0 0 Z " fill="#EF67DC" transform="translate(114,64)"/>
<path d="M0 0 C1.1282554 1.1282554 2.25614956 2.25687314 3.3828125 3.38671875 C4.53917449 4.5402876 5.70129744 5.68809309 6.8671875 6.83203125 C18.80230326 18.60460653 18.80230326 18.60460653 21 23 C19.68 22.67 18.36 22.34 17 22 C17 22.66 17 23.32 17 24 C15.68 24 14.36 24 13 24 C13 21.36 13 18.72 13 16 C10.36 16 7.72 16 5 16 C5.04125 15.05125 5.0825 14.1025 5.125 13.125 C5.34973818 9.89755144 5.34973818 9.89755144 3 8 C2.01 7.67 1.02 7.34 0 7 C-0.99 7.66 -1.98 8.32 -3 9 C-2.67 7.02 -2.34 5.04 -2 3 C-1.34 3 -0.68 3 0 3 C0 2.01 0 1.02 0 0 Z " fill="#F57CA6" transform="translate(83,80)"/>
<path d="M0 0 C4.50636417 3.70523276 8.76866144 7.61026946 12.9375 11.6875 C13.43419189 12.16292236 13.93088379 12.63834473 14.44262695 13.12817383 C15.6880136 14.36137427 16.85103101 15.67650407 18 17 C18 17.99 18 18.98 18 20 C15.69 20 13.38 20 11 20 C10.67 17.36 10.34 14.72 10 12 C5.545 12.495 5.545 12.495 1 13 C0.67 8.71 0.34 4.42 0 0 Z " fill="#6E4FE8" transform="translate(69,124)"/>
<path d="M0 0 C0.56460938 0.23074219 1.12921875 0.46148437 1.7109375 0.69921875 C1.28788084 3.44908705 1.00175402 5.28797348 -0.2890625 7.69921875 C-2.794478 9.47346197 -5.42134456 10.6254918 -8.2890625 11.69921875 C-8.2890625 11.03921875 -8.2890625 10.37921875 -8.2890625 9.69921875 C-14.1735666 13.6421352 -18.34614605 17.81471465 -22.2890625 23.69921875 C-22.6190625 23.03921875 -22.9490625 22.37921875 -23.2890625 21.69921875 C-22.33922892 20.19382214 -21.37894359 18.69501528 -20.4140625 17.19921875 C-19.88039063 16.36390625 -19.34671875 15.52859375 -18.796875 14.66796875 C-18.29929687 14.01828125 -17.80171875 13.36859375 -17.2890625 12.69921875 C-16.6290625 12.69921875 -15.9690625 12.69921875 -15.2890625 12.69921875 C-15.2890625 12.03921875 -15.2890625 11.37921875 -15.2890625 10.69921875 C-14.6290625 10.69921875 -13.9690625 10.69921875 -13.2890625 10.69921875 C-12.92941406 9.82716797 -12.92941406 9.82716797 -12.5625 8.9375 C-11.03456227 6.25189166 -9.33479848 4.79676791 -6.9140625 2.88671875 C-6.14320312 2.26152344 -5.37234375 1.63632812 -4.578125 0.9921875 C-2.2890625 -0.30078125 -2.2890625 -0.30078125 0 0 Z " fill="#F36DD6" transform="translate(100.2890625,40.30078125)"/>
<path d="M0 0 C8.1259291 2.73287061 14.83486921 9.61635906 19 17 C18.01 17.33 17.02 17.66 16 18 C15.34 17.67 14.68 17.34 14 17 C13.375 14.9375 13.375 14.9375 13 13 C11.35 13.66 9.7 14.32 8 15 C8 13.02 8 11.04 8 9 C5.69 9 3.38 9 1 9 C0.67 6.03 0.34 3.06 0 0 Z " fill="#F6887C" transform="translate(64,63)"/>
<path d="M0 0 C12.19894366 9.85299296 12.19894366 9.85299296 13.875 16.4375 C13.91625 17.283125 13.9575 18.12875 14 19 C13.38125 18.814375 12.7625 18.62875 12.125 18.4375 C9.95839822 17.76313824 9.95839822 17.76313824 8 19 C8 16.36 8 13.72 8 11 C6.02 11 4.04 11 2 11 C2 10.34 2 9.68 2 9 C1.34 9 0.68 9 0 9 C-0.87890625 2.84765625 -0.87890625 2.84765625 -1 1 C-0.67 0.67 -0.34 0.34 0 0 Z " fill="#F76ECF" transform="translate(168,45)"/>
<path d="M0 0 C0.1875 3.375 0.1875 3.375 0 7 C-0.99 7.66 -1.98 8.32 -3 9 C-3.33 9.99 -3.66 10.98 -4 12 C-3.01 11.67 -2.02 11.34 -1 11 C-0.67 12.98 -0.34 14.96 0 17 C-3.33727786 15.82744291 -5.77437487 14.81131596 -8 12 C-8 11.34 -8 10.68 -8 10 C-8.66 10 -9.32 10 -10 10 C-10 9.01 -10 8.02 -10 7 C-9.34 7 -8.68 7 -8 7 C-7.7525 6.401875 -7.505 5.80375 -7.25 5.1875 C-5.55294333 2.21765083 -3.56508774 0 0 0 Z " fill="#F79666" transform="translate(40,65)"/>
<path d="M0 0 C4.80642676 2.79082844 9.38997202 5.90074898 14 9 C14.99 9.66 15.98 10.32 17 11 C17 12.32 17 13.64 17 15 C15.35 15 13.7 15 12 15 C12 14.34 12 13.68 12 13 C11.01 12.67 10.02 12.34 9 12 C9 11.67 9 11.34 9 11 C6.36 10.67 3.72 10.34 1 10 C1.20625 9.46375 1.4125 8.9275 1.625 8.375 C2.1314747 5.16732692 1.15400225 2.98682934 0 0 Z " fill="#696BF5" transform="translate(87,142)"/>
<path d="M0 0 C0.33 0 0.66 0 1 0 C2.9933888 10.420884 0.55042741 18.31924984 -3 28 C-5.08962236 24.86556646 -5.25367554 24.12996308 -5.1875 20.5625 C-5.18105469 19.80066406 -5.17460937 19.03882812 -5.16796875 18.25390625 C-5.00451771 16.06062143 -4.60116513 14.11129193 -4 12 C-3.34 12 -2.68 12 -2 12 C-2 9.36 -2 6.72 -2 4 C-1.34 4 -0.68 4 0 4 C0 2.68 0 1.36 0 0 Z " fill="#FA6ACF" transform="translate(189,92)"/>
<path d="M0 0 C-1.70590705 2.81845512 -3.04174688 4.68169914 -6.234375 5.7421875 C-7.84115211 6.0748006 -9.45492066 6.37560076 -11.07421875 6.640625 C-13.0008289 6.81236512 -13.0008289 6.81236512 -14 8 C-16.33297433 8.04092937 -18.66705225 8.04241723 -21 8 C-21.33 8.99 -21.66 9.98 -22 11 C-21.875 8.1875 -21.875 8.1875 -21 5 C-15.1538903 0.80279304 -7.06335065 -0.16367836 0 0 Z " fill="#F66FCD" transform="translate(125,32)"/>
<path d="M0 0 C-2.57706832 5.44047757 -5.24416758 10.28113362 -9 15 C-9.99 15.33 -10.98 15.66 -12 16 C-11.69255859 15.00419922 -11.69255859 15.00419922 -11.37890625 13.98828125 C-11.10949219 13.10527344 -10.84007812 12.22226563 -10.5625 11.3125 C-10.29566406 10.44238281 -10.02882812 9.57226562 -9.75390625 8.67578125 C-9.03655471 6.12974079 -8.482459 3.5996577 -8 1 C-5.07175348 0.02391783 -3.04386724 -0.08226668 0 0 Z " fill="#F56FCD" transform="translate(185,120)"/>
<path d="M0 0 C2.31 0 4.62 0 7 0 C5.99667352 5.94074887 4.69087294 10.20186518 1 15 C-1 13 -1 13 -1.125 10.375 C-1.08375 9.59125 -1.0425 8.8075 -1 8 C-0.01 7.67 0.98 7.34 2 7 C1.67 6.401875 1.34 5.80375 1 5.1875 C0 3 0 3 0 0 Z " fill="#5092F3" transform="translate(97,168)"/>
<path d="M0 0 C0.82638376 2.89234315 1 4.88742431 1 8 C1.66 7.67 2.32 7.34 3 7 C3.66 7.33 4.32 7.66 5 8 C3.74464015 11.76607955 2.47116415 12.26441793 -1 14 C-1.99 14 -2.98 14 -4 14 C-4 14.66 -4 15.32 -4 16 C-5.65 16 -7.3 16 -9 16 C-8.60167969 15.5153125 -8.20335937 15.030625 -7.79296875 14.53125 C-4.09138948 9.84798669 -1.82650024 5.6824452 0 0 Z " fill="#F472CD" transform="translate(155,98)"/>
<path d="M0 0 C0.99 0 1.98 0 3 0 C3 0.99 3 1.98 3 3 C2.01 3.33 1.02 3.66 0 4 C0.6954344 7.00384054 0.6954344 7.00384054 2 10 C3.99660454 10.89582173 3.99660454 10.89582173 6 11 C7 12 7 12 7.0625 14.5625 C7.041875 15.366875 7.02125 16.17125 7 17 C5.85742021 15.85742021 4.71579054 14.71387925 3.578125 13.56640625 C2.43700955 12.43376443 1.27840096 11.31865545 0.109375 10.21484375 C-0.52484375 9.60769531 -1.1590625 9.00054687 -1.8125 8.375 C-2.41707031 7.80523437 -3.02164063 7.23546875 -3.64453125 6.6484375 C-5 5 -5 5 -5 2 C-4.01 1.67 -3.02 1.34 -2 1 C-1.34 1.33 -0.68 1.66 0 2 C0 1.34 0 0.68 0 0 Z " fill="#B456EC" transform="translate(81,62)"/>
<path d="M0 0 C1.98 0.99 1.98 0.99 4 2 C4 1.34 4 0.68 4 0 C5.98 0 7.96 0 10 0 C8.02 0.99 8.02 0.99 6 2 C6.99 2.33 7.98 2.66 9 3 C9 3.66 9 4.32 9 5 C9.66 5 10.32 5 11 5 C11 5.99 11 6.98 11 8 C11.99 8.33 12.98 8.66 14 9 C13.34 9 12.68 9 12 9 C11.67 10.32 11.34 11.64 11 13 C9.33333333 11.33333333 7.66666667 9.66666667 6 8 C5.0925 7.13375 4.185 6.2675 3.25 5.375 C1 3 1 3 0 0 Z " fill="#F69677" transform="translate(36,80)"/>
<path d="M0 0 C2.64 0 5.28 0 8 0 C7.21362363 4.91485228 4.48141758 9.51858242 1 13 C-0.10228696 8.59085217 -0.07654536 4.51617599 0 0 Z " fill="#DC5DE5" transform="translate(104,72)"/>
<path d="M0 0 C1.66666667 1.66666667 3.33333333 3.33333333 5 5 C5.928125 5.680625 5.928125 5.680625 6.875 6.375 C8 8 8 8 7.8125 11.625 C7.544375 12.73875 7.27625 13.8525 7 15 C6.01 15.495 6.01 15.495 5 16 C5.04125 15.05125 5.0825 14.1025 5.125 13.125 C5.34973818 9.89755144 5.34973818 9.89755144 3 8 C2.01 7.67 1.02 7.34 0 7 C-0.99 7.66 -1.98 8.32 -3 9 C-2.67 7.02 -2.34 5.04 -2 3 C-1.34 3 -0.68 3 0 3 C0 2.01 0 1.02 0 0 Z " fill="#F77D96" transform="translate(83,80)"/>
<path d="M0 0 C0.33 0 0.66 0 1 0 C1 5.28 1 10.56 1 16 C1.66 16 2.32 16 3 16 C2.67 19.3 2.34 22.6 2 26 C5.63 25.67 9.26 25.34 13 25 C12.34 25.66 11.68 26.32 11 27 C7.37 27 3.74 27 0 27 C0 18.09 0 9.18 0 0 Z " fill="#5CB3EF" transform="translate(69,168)"/>
<path d="M0 0 C0.33 0.66 0.66 1.32 1 2 C2.84697374 2.60815184 2.84697374 2.60815184 5 3 C7.66666667 3.66666667 10.33333333 4.33333333 13 5 C12.67 6.65 12.34 8.3 12 10 C11.34 10 10.68 10 10 10 C10 14.29 10 18.58 10 23 C9.67 23 9.34 23 9 23 C9.0309375 21.46279297 9.0309375 21.46279297 9.0625 19.89453125 C9.31354997 12.38948243 9.31354997 12.38948243 6.15234375 5.99609375 C3.98285494 4.71186118 3.98285494 4.71186118 1.71484375 3.859375 C1.14894531 3.57578125 0.58304687 3.2921875 0 3 C0 2.01 0 1.02 0 0 Z " fill="#DEE2F0" transform="translate(95,145)"/>
<path d="M0 0 C5.78461538 4.06153846 5.78461538 4.06153846 6.875 8.8125 C6.91625 9.864375 6.9575 10.91625 7 12 C5.02 12.33 3.04 12.66 1 13 C0.67 8.71 0.34 4.42 0 0 Z " fill="#7140F2" transform="translate(69,124)"/>
<path d="M0 0 C1.13566406 -0.01417969 2.27132812 -0.02835938 3.44140625 -0.04296875 C6.4375 0.1875 6.4375 0.1875 9.4375 2.1875 C6.5126367 3.02941782 3.93008344 3.30569313 0.890625 3.28515625 C0.04628906 3.28193359 -0.79804687 3.27871094 -1.66796875 3.27539062 C-2.54066406 3.26701172 -3.41335937 3.25863281 -4.3125 3.25 C-5.64474609 3.24323242 -5.64474609 3.24323242 -7.00390625 3.23632812 C-9.19017329 3.224574 -11.37630179 3.20814249 -13.5625 3.1875 C-8.99447817 0.14215211 -5.45517812 0.03103059 0 0 Z " fill="#F2936F" transform="translate(54.5625,60.8125)"/>
<path d="M0 0 C0.33 0.66 0.66 1.32 1 2 C1.99 2.33 2.98 2.66 4 3 C4 5.64 4 8.28 4 11 C0.15314615 9.75237172 -2.02929405 8.6129609 -4 5 C-3.67 4.01 -3.34 3.02 -3 2 C-2.01 2 -1.02 2 0 2 C0 1.34 0 0.68 0 0 Z " fill="#C94EFB" transform="translate(84,63)"/>
<path d="M0 0 C0.33 0 0.66 0 1 0 C1 3.96 1 7.92 1 12 C0.34 12 -0.32 12 -1 12 C-2.5078125 10.25 -2.5078125 10.25 -4.125 8 C-4.66382812 7.2575 -5.20265625 6.515 -5.7578125 5.75 C-6.16773437 5.1725 -6.57765625 4.595 -7 4 C-6 3 -6 3 -2.9375 2.9375 C-1.4834375 2.9684375 -1.4834375 2.9684375 0 3 C0 2.01 0 1.02 0 0 Z " fill="#B95DF1" transform="translate(104,85)"/>
<path d="M0 0 C-1.50078107 3.82017001 -3.59183281 5.75370799 -7 8 C-10.3125 8.75 -10.3125 8.75 -13 9 C-10.688847 4.72436694 -8.61115057 1.84478401 -3.875 0.3125 C-2 0 -2 0 0 0 Z " fill="#45B3F2" transform="translate(95,184)"/>
<path d="M0 0 C1.74216797 0.02707031 1.74216797 0.02707031 3.51953125 0.0546875 C4.39996094 0.07789062 5.28039062 0.10109375 6.1875 0.125 C6.1875 0.455 6.1875 0.785 6.1875 1.125 C0.2475 1.62 0.2475 1.62 -5.8125 2.125 C-5.8125 2.785 -5.8125 3.445 -5.8125 4.125 C-6.575625 4.41375 -7.33875 4.7025 -8.125 5 C-10.96279308 6.08769013 -10.96279308 6.08769013 -13.8125 8.125 C-14.1425 7.135 -14.4725 6.145 -14.8125 5.125 C-10.67132566 0.32995602 -6.10372263 -0.12330753 0 0 Z " fill="#F5F0F6" transform="translate(129.8125,66.875)"/>
<path d="M0 0 C0.66 0 1.32 0 2 0 C1.44022487 3.43967088 0.50850876 4.73162492 -2.25 6.8125 C-5.97241038 9.81345352 -8.37212518 13.01837148 -11 17 C-11.33 16.34 -11.66 15.68 -12 15 C-11.05016642 13.49460339 -10.08988109 11.99579653 -9.125 10.5 C-8.59132813 9.6646875 -8.05765625 8.829375 -7.5078125 7.96875 C-7.01023437 7.3190625 -6.51265625 6.669375 -6 6 C-5.34 6 -4.68 6 -4 6 C-4 5.34 -4 4.68 -4 4 C-3.34 4 -2.68 4 -2 4 C-1.34 2.68 -0.68 1.36 0 0 Z " fill="#D26DE0" transform="translate(89,47)"/>
<path d="M0 0 C2.64 0 5.28 0 8 0 C8.33 1.32 8.66 2.64 9 4 C4.38 4 -0.24 4 -5 4 C-2 2 -2 2 0 2 C0 1.34 0 0.68 0 0 Z " fill="#FC68D3" transform="translate(143,116)"/>
<path d="M0 0 C0.99 0.33 1.98 0.66 3 1 C0.44559585 5.84455959 0.44559585 5.84455959 -2 8 C-5.67606719 8.90869077 -9.22333708 9.04629884 -13 9 C-12.67 8.34 -12.34 7.68 -12 7 C-10.1128125 6.87625 -10.1128125 6.87625 -8.1875 6.75 C-6.01676241 6.61524418 -6.01676241 6.61524418 -4 6 C-1.45201834 3.09846449 -1.45201834 3.09846449 0 0 Z " fill="#35B7FD" transform="translate(84,185)"/>
<path d="M0 0 C0.66 0.66 1.32 1.32 2 2 C1.360625 2.268125 0.72125 2.53625 0.0625 2.8125 C-2.33131686 3.88667752 -2.33131686 3.88667752 -3 7 C-6.65121073 8.29559091 -9.32099949 7.9810668 -13 7 C-11.20856793 6.0204042 -9.41684696 5.0413367 -7.625 4.0625 C-6.62726563 3.51722656 -5.62953125 2.97195312 -4.6015625 2.41015625 C-3.07929654 1.5850241 -1.54871217 0.77435609 0 0 Z " fill="#FAE4F4" transform="translate(167,142)"/>
<path d="M0 0 C3.99996286 1.33332095 4.83782337 3.4957827 7 7 C4.66705225 7.04241723 2.33297433 7.04092937 0 7 C-1 6 -1 6 -1.125 3.5 C-1 1 -1 1 0 0 Z " fill="#F577B6" transform="translate(105,105)"/>
<path d="M0 0 C3.26566506 4.89849759 3.09311493 8.31998909 3 14 C2.67 14 2.34 14 2 14 C1.67 12.35 1.34 10.7 1 9 C0.01 9.33 -0.98 9.66 -2 10 C-2.33 8.68 -2.66 7.36 -3 6 C-2.34 5.67 -1.68 5.34 -1 5 C-0.34444881 2.47266765 -0.34444881 2.47266765 0 0 Z " fill="#F470CE" transform="translate(187,72)"/>
<path d="M0 0 C2.31 0 4.62 0 7 0 C7 1.98 7 3.96 7 6 C5.68 6 4.36 6 3 6 C0 2.78571429 0 2.78571429 0 0 Z " fill="#F876A6" transform="translate(81,128)"/>
<path d="M0 0 C1.98 0 3.96 0 6 0 C6.97608217 2.92824652 7.08226668 4.95613276 7 8 C6.01 7.34 5.02 6.68 4 6 C4 5.34 4 4.68 4 4 C2.68 3.34 1.36 2.68 0 2 C0 1.34 0 0.68 0 0 Z " fill="#F77F9E" transform="translate(73,120)"/>
<path d="M0 0 C0.66 0.33 1.32 0.66 2 1 C1.67 1.61875 1.34 2.2375 1 2.875 C-0.14193235 4.91018344 -0.14193235 4.91018344 0 7 C-0.66 7 -1.32 7 -2 7 C-2 7.99 -2 8.98 -2 10 C-3.32 9.67 -4.64 9.34 -6 9 C-4.68775452 5.06326356 -3.08089673 2.77280706 0 0 Z " fill="#F7E9FA" transform="translate(113,73)"/>
<path d="M0 0 C0.99 0 1.98 0 3 0 C3 0.99 3 1.98 3 3 C2.01 3.33 1.02 3.66 0 4 C0 4.99 0 5.98 0 7 C-1.32 6.67 -2.64 6.34 -4 6 C-4.33 4.68 -4.66 3.36 -5 2 C-4.01 1.67 -3.02 1.34 -2 1 C-1.34 1.33 -0.68 1.66 0 2 C0 1.34 0 0.68 0 0 Z " fill="#BF52F2" transform="translate(81,62)"/>
<path d="M0 0 C0 3.96 0 7.92 0 12 C-3.79816514 6.93577982 -3.79816514 6.93577982 -4 3 C-1.72413793 0 -1.72413793 0 0 0 Z " fill="#DA58F3" transform="translate(88,52)"/>
<path d="M0 0 C1.9375 0.75 1.9375 0.75 4 2 C4.75 4.125 4.75 4.125 5 6 C3.02 6.66 1.04 7.32 -1 8 C-0.67 5.36 -0.34 2.72 0 0 Z " fill="#F86DD1" transform="translate(161,40)"/>
<path d="M0 0 C0.33 0 0.66 0 1 0 C1.37634203 6.80203375 0.77471079 11.75690073 -2 18 C-2.33 18 -2.66 18 -3 18 C-3 15.36 -3 12.72 -3 10 C-2.34 9.67 -1.68 9.34 -1 9 C-0.53348793 6.87423218 -0.53348793 6.87423218 -0.375 4.4375 C-0.30023438 3.61121094 -0.22546875 2.78492187 -0.1484375 1.93359375 C-0.09945312 1.29550781 -0.05046875 0.65742187 0 0 Z " fill="#F7E6F6" transform="translate(155,88)"/>
<path d="M0 0 C3.63094642 2.64960955 5.89851796 5.01824456 8 9 C7.01 9.33 6.02 9.66 5 10 C4.34 9.67 3.68 9.34 3 9 C2.65657551 7.66923011 2.32380126 6.33568021 2 5 C1.34 4.34 0.68 3.68 0 3 C0 2.01 0 1.02 0 0 Z " fill="#F19194" transform="translate(75,71)"/>
<path d="M0 0 C7.425 0.99 7.425 0.99 15 2 C15 2.33 15 2.66 15 3 C14.34773437 3.04898438 13.69546875 3.09796875 13.0234375 3.1484375 C8.06720147 3.57242229 3.66980549 4.15665573 -1 6 C-1 5.34 -1 4.68 -1 4 C-0.01 4 0.98 4 2 4 C2 3.01 2 2.02 2 1 C1.34 0.67 0.68 0.34 0 0 Z " fill="#F173CE" transform="translate(118,64)"/>
<path d="M0 0 C2.65664779 0.15180845 4.45217862 0.52011425 6.48046875 2.296875 C7.875 3.875 7.875 3.875 10 7 C9.67 7.99 9.34 8.98 9 10 C8.51789062 9.50628906 8.03578125 9.01257813 7.5390625 8.50390625 C6.90742187 7.86324219 6.27578125 7.22257812 5.625 6.5625 C4.99851562 5.92441406 4.37203125 5.28632812 3.7265625 4.62890625 C2.08276939 2.92117824 2.08276939 2.92117824 0 2 C0 1.34 0 0.68 0 0 Z " fill="#F28D8C" transform="translate(54,100)"/>
<path d="M0 0 C1.98 0 3.96 0 6 0 C6.79953138 3.28696233 7.09658936 4.71023192 6 8 C4.02 5.36 2.04 2.72 0 0 Z " fill="#B654F2" transform="translate(89,80)"/>
<path d="M0 0 C2.64 0.33 5.28 0.66 8 1 C8 2.32 8 3.64 8 5 C6.35 5 4.7 5 3 5 C3 4.34 3 3.68 3 3 C2.01 2.67 1.02 2.34 0 2 C0 1.34 0 0.68 0 0 Z " fill="#5B69F7" transform="translate(96,152)"/>
<path d="M0 0 C3.3 0 6.6 0 10 0 C9.01 0.495 9.01 0.495 8 1 C8 1.66 8 2.32 8 3 C5.36 3 2.72 3 0 3 C0 2.01 0 1.02 0 0 Z " fill="#F66DCD" transform="translate(136,33)"/>
<path d="M0 0 C1.98 0 3.96 0 6 0 C6 2.31 6 4.62 6 7 C3.95880212 5.38405168 1.95927063 3.7143618 0 2 C0 1.34 0 0.68 0 0 Z " fill="#F78291" transform="translate(66,112)"/>
<path d="M0 0 C0.66 0 1.32 0 2 0 C1.40075776 4.19469571 0.42500059 8.00999834 -1 12 C-3 9 -3 9 -2.625 6.8125 C-2.41875 6.214375 -2.2125 5.61625 -2 5 C-1.34 5 -0.68 5 0 5 C-0.2784375 4.0409375 -0.2784375 4.0409375 -0.5625 3.0625 C-0.706875 2.381875 -0.85125 1.70125 -1 1 C-0.67 0.67 -0.34 0.34 0 0 Z " fill="#F471CB" transform="translate(187,108)"/>
<path d="M0 0 C0.66 0 1.32 0 2 0 C1.71125 0.495 1.4225 0.99 1.125 1.5 C-0.41288416 4.91752035 -1.14847805 8.3506202 -2 12 C-2.66 11.67 -3.32 11.34 -4 11 C-3.49357808 6.64477147 -2.61588503 3.55760365 0 0 Z " fill="#D85CF6" transform="translate(108,73)"/>
<path d="M0 0 C2.97 1.98 2.97 1.98 6 4 C5.67 5.65 5.34 7.3 5 9 C2.33264727 6.51047079 0.44253657 4.36591866 -1 1 C-0.67 0.67 -0.34 0.34 0 0 Z " fill="#FCEFF7" transform="translate(177,51)"/>
<path d="M0 0 C0.66 0.33 1.32 0.66 2 1 C2.625 3.0625 2.625 3.0625 3 5 C0.64561267 6.42944945 -0.48032433 7.08661261 -3.25 6.625 C-3.8275 6.41875 -4.405 6.2125 -5 6 C-4.34 6 -3.68 6 -3 6 C-2.690625 5.195625 -2.38125 4.39125 -2.0625 3.5625 C-1 1 -1 1 0 0 Z " fill="#F9F6F9" transform="translate(99,34)"/>
<path d="M0 0 C0.66 0 1.32 0 2 0 C2.66 0.99 3.32 1.98 4 3 C4.99 3.33 5.98 3.66 7 4 C7 4.66 7 5.32 7 6 C4.69 6 2.38 6 0 6 C0 4.02 0 2.04 0 0 Z " fill="#6D54FB" transform="translate(80,138)"/>
<path d="M0 0 C4.8 3.44615385 4.8 3.44615385 5.8125 6.25 C5.874375 6.8275 5.93625 7.405 6 8 C3.03 7.505 3.03 7.505 0 7 C0 4.69 0 2.38 0 0 Z " fill="#F7EFEC" transform="translate(68,116)"/>
<path d="M0 0 C0.99 0.33 1.98 0.66 3 1 C3.99 0.67 4.98 0.34 6 0 C6 1.65 6 3.3 6 5 C3.03 4.01 0.06 3.02 -3 2 C-2.01 1.34 -1.02 0.68 0 0 Z " fill="#F57ACD" transform="translate(106,147)"/>
<path d="M0 0 C2.125 0.9375 2.125 0.9375 4 2 C2.68 3.32 1.36 4.64 0 6 C-0.66 5.34 -1.32 4.68 -2 4 C-2 3.01 -2 2.02 -2 1 C-1.34 0.67 -0.68 0.34 0 0 Z " fill="#F362E3" transform="translate(93,46)"/>
<path d="M0 0 C1.4606285 2.64738916 2 3.89448334 2 7 C0.68 7 -0.64 7 -2 7 C-1.34 4.69 -0.68 2.38 0 0 Z " fill="#FAECF7" transform="translate(188,112)"/>
<path d="M0 0 C1.32 0 2.64 0 4 0 C4.33 1.65 4.66 3.3 5 5 C4.01 5 3.02 5 2 5 C1.34 4.34 0.68 3.68 0 3 C0 2.01 0 1.02 0 0 Z " fill="#F4EFF7" transform="translate(93,88)"/>
<path d="M0 0 C3.3 0.33 6.6 0.66 10 1 C6.5647952 3.29013653 5.014669 3.17842973 1 3 C0.67 2.01 0.34 1.02 0 0 Z " fill="#F7EDF8" transform="translate(110,152)"/>
<path d="M0 0 C2.46800047 1.15173355 4.04783565 2.04783565 6 4 C3.69 4.33 1.38 4.66 -1 5 C-0.67 3.35 -0.34 1.7 0 0 Z " fill="#6563FC" transform="translate(89,147)"/>
<path d="M0 0 C2.5 1.3125 2.5 1.3125 5 3 C5 3.99 5 4.98 5 6 C4.67 5.34 4.34 4.68 4 4 C2.02 4.33 0.04 4.66 -2 5 C-1.34 4.67 -0.68 4.34 0 4 C0 2.68 0 1.36 0 0 Z " fill="#F68F86" transform="translate(69,66)"/>
<path d="M0 0 C2.47524576 2.90572328 3.69670231 5.15822926 4 9 C3.34 9.66 2.68 10.32 2 11 C0.57741188 7.17679443 -0.24042276 4.08718695 0 0 Z " fill="#F5EEF9" transform="translate(186,64)"/>
<path d="M0 0 C1.18851563 0.00902344 2.37703125 0.01804687 3.6015625 0.02734375 C4.51679688 0.03894531 5.43203125 0.05054687 6.375 0.0625 C6.375 0.3925 6.375 0.7225 6.375 1.0625 C5.36179688 1.15337891 5.36179688 1.15337891 4.328125 1.24609375 C3.43609375 1.32988281 2.5440625 1.41367188 1.625 1.5 C0.74328125 1.58121094 -0.1384375 1.66242188 -1.046875 1.74609375 C-3.31850452 2.02488465 -5.42351823 2.45040577 -7.625 3.0625 C-7.955 2.4025 -8.285 1.7425 -8.625 1.0625 C-5.74084117 -0.37957941 -3.20778472 -0.03144887 0 0 Z " fill="#FDDBF6" transform="translate(129.625,66.9375)"/>
<path d="M0 0 C3.57104439 1.87949705 5.54744301 3.17053157 7 7 C4.625 6.3125 4.625 6.3125 2 5 C0.6875 2.375 0.6875 2.375 0 0 Z " fill="#695FEC" transform="translate(87,142)"/>
<path d="M0 0 C0.33 0 0.66 0 1 0 C1.3125 2.3125 1.3125 2.3125 1 5 C-1.5 6.8125 -1.5 6.8125 -4 8 C-2.87548273 5.0280615 -1.77706209 2.66559313 0 0 Z " fill="#FBE5F7" transform="translate(185,120)"/>
<path d="M0 0 C1.65 0.33 3.3 0.66 5 1 C5.33 2.32 5.66 3.64 6 5 C4.02 4.34 2.04 3.68 0 3 C0 2.01 0 1.02 0 0 Z " fill="#FC66D4" transform="translate(139,64)"/>
<path d="M0 0 C0.66 0.66 1.32 1.32 2 2 C1.625 5.125 1.625 5.125 1 8 C-1 6 -1 6 -1.1875 3.4375 C-1 1 -1 1 0 0 Z " fill="#4B9EF6" transform="translate(97,175)"/>
<path d="M0 0 C0.66 0.33 1.32 0.66 2 1 C1.67 4.3 1.34 7.6 1 11 C0.67 11 0.34 11 0 11 C-1.125 3.375 -1.125 3.375 0 0 Z " fill="#F967CC" transform="translate(185,85)"/>
<path d="M0 0 C2 2 2 2 2 6 C0.68 5.34 -0.64 4.68 -2 4 C-2 3.01 -2 2.02 -2 1 C-1.34 0.67 -0.68 0.34 0 0 Z " fill="#F88F59" transform="translate(38,76)"/>
</svg>
