<?xml version="1.0" encoding="UTF-8"?>
<!DOCTYPE svg PUBLIC "-//W3C//DTD SVG 1.1//EN" "http://www.w3.org/Graphics/SVG/1.1/DTD/svg11.dtd">
<svg xmlns="http://www.w3.org/2000/svg" version="1.1" width="600px" height="600px" style="shape-rendering:geometricPrecision; text-rendering:geometricPrecision; image-rendering:optimizeQuality; fill-rule:evenodd; clip-rule:evenodd" xmlns:xlink="http://www.w3.org/1999/xlink">
<g><path style="opacity:1" fill="#fefefe" d="M -0.5,-0.5 C 199.5,-0.5 399.5,-0.5 599.5,-0.5C 599.5,199.5 599.5,399.5 599.5,599.5C 399.5,599.5 199.5,599.5 -0.5,599.5C -0.5,399.5 -0.5,199.5 -0.5,-0.5 Z"/></g>
<g><path style="opacity:1" fill="#fe6c38" d="M 281.5,14.5 C 295.5,14.5 309.5,14.5 323.5,14.5C 339.49,17.0558 355.49,20.0558 371.5,23.5C 458.825,48.0979 521.991,101.431 561,183.5C 579.842,227.881 587.676,274.215 584.5,322.5C 582.946,326.567 582.28,330.9 582.5,335.5C 582.5,335.833 582.5,336.167 582.5,336.5C 580.94,346.066 579.273,355.732 577.5,365.5C 549.146,469.36 483.813,538.527 381.5,573C 344.54,584.029 306.873,587.529 268.5,583.5C 258.57,580.152 248.237,578.485 237.5,578.5C 231.102,577.033 224.768,575.366 218.5,573.5C 212.767,570.922 206.767,568.922 200.5,567.5C 110.226,532.23 51.2258,468.23 23.5,375.5C 21.6464,367.711 19.6464,360.044 17.5,352.5C 13.5428,317.473 13.5428,282.473 17.5,247.5C 18.9238,245.485 19.5905,243.152 19.5,240.5C 24.3486,216.283 32.3486,193.283 43.5,171.5C 45.9478,169.318 47.9478,166.652 49.5,163.5C 51.0577,161.009 52.0577,158.343 52.5,155.5C 79.7999,109.034 117.133,72.8676 164.5,47C 187.271,35.9079 210.937,27.0746 235.5,20.5C 242.865,19.645 250.198,18.645 257.5,17.5C 265.168,17.0952 272.835,16.5952 280.5,16C 281.056,15.6174 281.389,15.1174 281.5,14.5 Z"/></g>
<g><path style="opacity:1" fill="#fed3c0" d="M 323.5,14.5 C 336.956,15.3534 350.289,17.1868 363.5,20C 366.476,20.7048 369.142,21.8714 371.5,23.5C 355.49,20.0558 339.49,17.0558 323.5,14.5 Z"/></g>
<g><path style="opacity:1" fill="#f68156" d="M 281.5,14.5 C 281.389,15.1174 281.056,15.6174 280.5,16C 272.835,16.5952 265.168,17.0952 257.5,17.5C 265.261,15.7362 273.261,14.7362 281.5,14.5 Z"/></g>
<g><path style="opacity:1" fill="#fa8a60" d="M 440.5,121.5 C 434.491,121.334 428.491,121.501 422.5,122C 419.936,123.396 417.269,124.563 414.5,125.5C 415.234,124.292 415.567,122.959 415.5,121.5C 423.986,120.318 432.319,120.318 440.5,121.5 Z"/></g>
<g><path style="opacity:1" fill="#fefbf9" d="M 440.5,121.5 C 445.801,122.405 450.801,124.072 455.5,126.5C 456.848,127.601 458.348,128.601 460,129.5C 460.667,130.5 460.667,131.5 460,132.5C 448,144.5 436,156.5 424,168.5C 423.833,169.333 423.667,170.167 423.5,171C 424.541,173.723 426.041,176.223 428,178.5C 435.775,186.362 443.775,194.029 452,201.5C 452.47,202.577 452.303,203.577 451.5,204.5C 451.167,204.5 450.833,204.5 450.5,204.5C 441.951,206.249 433.284,206.916 424.5,206.5C 406.637,201.97 395.97,190.636 392.5,172.5C 392.309,164.799 392.642,157.132 393.5,149.5C 396.95,138.384 403.95,130.384 414.5,125.5C 417.269,124.563 419.936,123.396 422.5,122C 428.491,121.501 434.491,121.334 440.5,121.5 Z"/></g>
<g><path style="opacity:1" fill="#fef8f5" d="M 467.5,135.5 C 480.75,154.451 480.75,173.451 467.5,192.5C 464.517,195.474 461.183,197.641 457.5,199C 448.667,190.167 439.833,181.333 431,172.5C 430.333,171.5 430.333,170.5 431,169.5C 433.703,166.629 436.536,163.962 439.5,161.5C 443.1,159.57 446.1,156.903 448.5,153.5C 453.557,147.458 458.891,141.625 464.5,136C 465.448,135.517 466.448,135.351 467.5,135.5 Z"/></g>
<g><path style="opacity:1" fill="#fb713f" d="M 467.5,135.5 C 466.448,135.351 465.448,135.517 464.5,136C 458.891,141.625 453.557,147.458 448.5,153.5C 444.9,155.43 441.9,158.097 439.5,161.5C 436.536,163.962 433.703,166.629 431,169.5C 430.333,170.5 430.333,171.5 431,172.5C 439.833,181.333 448.667,190.167 457.5,199C 461.183,197.641 464.517,195.474 467.5,192.5C 468.059,195.516 468.725,198.516 469.5,201.5C 469.167,201.833 468.833,202.167 468.5,202.5C 464.976,203.017 461.476,203.35 458,203.5C 457.167,203.167 456.333,202.833 455.5,202.5C 456.326,201.549 456.492,200.549 456,199.5C 454.583,201.398 453.083,203.064 451.5,204.5C 452.303,203.577 452.47,202.577 452,201.5C 443.775,194.029 435.775,186.362 428,178.5C 426.041,176.223 424.541,173.723 423.5,171C 423.667,170.167 423.833,169.333 424,168.5C 436,156.5 448,144.5 460,132.5C 460.667,131.5 460.667,130.5 460,129.5C 458.348,128.601 456.848,127.601 455.5,126.5C 457.103,126.688 458.437,126.188 459.5,125C 458.167,124.333 458.167,123.667 459.5,123C 454.214,121.421 454.214,120.421 459.5,120C 459.909,124.787 461.242,129.287 463.5,133.5C 464.949,134.172 466.282,134.839 467.5,135.5 Z"/></g>
<g><path style="opacity:1" fill="#fdc4ae" d="M 448.5,153.5 C 446.1,156.903 443.1,159.57 439.5,161.5C 441.9,158.097 444.9,155.43 448.5,153.5 Z"/></g>
<g><path style="opacity:1" fill="#fed7c4" d="M 393.5,149.5 C 392.642,157.132 392.309,164.799 392.5,172.5C 390.994,169.644 390.328,166.477 390.5,163C 390.347,158.124 391.347,153.624 393.5,149.5 Z"/></g>
<g><path style="opacity:1" fill="#f97140" d="M 461.5,156.5 C 463.167,156.5 464.833,156.5 466.5,156.5C 469.272,162.834 469.105,169.168 466,175.5C 463.161,178.409 460.994,178.075 459.5,174.5C 460.79,171.589 461.79,168.589 462.5,165.5C 462.303,163.318 461.636,161.318 460.5,159.5C 460.685,158.416 461.018,157.416 461.5,156.5 Z"/></g>
<g><path style="opacity:1" fill="#f68257" d="M 52.5,155.5 C 52.0577,158.343 51.0577,161.009 49.5,163.5C 47.9478,166.652 45.9478,169.318 43.5,171.5C 45.7072,165.65 48.7072,160.316 52.5,155.5 Z"/></g>
<g><path style="opacity:1" fill="#fefbf9" d="M 389.5,190.5 C 354.004,226.337 317.671,263.004 280.5,300.5C 278.704,301.793 277.037,303.293 275.5,305C 274.833,305.667 274.167,305.667 273.5,305C 266.986,298.319 260.319,291.819 253.5,285.5C 252.417,284.635 252.251,283.635 253,282.5C 279.667,254.824 307.834,228.991 337.5,205C 346.859,197.661 357.192,191.995 368.5,188C 375.816,186.784 382.816,187.617 389.5,190.5 Z"/></g>
<g><path style="opacity:1" fill="#ffd6c4" d="M 402.5,202.5 C 397.5,201.167 392.5,201.167 387.5,202.5C 387.833,201.833 388.167,201.167 388.5,200.5C 392.892,199.008 397.225,199.175 401.5,201C 402.056,201.383 402.389,201.883 402.5,202.5 Z"/></g>
<g><path style="opacity:1" fill="#fefbfa" d="M 402.5,202.5 C 410.176,208.52 411.509,215.853 406.5,224.5C 368.705,257.124 331.038,289.958 293.5,323C 288.197,319.881 283.53,315.715 279.5,310.5C 281.14,307.532 283.14,304.865 285.5,302.5C 286.5,302.167 287.167,301.5 287.5,300.5C 292.167,296.167 296.833,291.833 301.5,287.5C 307.833,283.167 313.167,277.833 317.5,271.5C 319.5,268.833 321.833,266.5 324.5,264.5C 329.44,261.23 333.773,257.23 337.5,252.5C 337.5,252.167 337.5,251.833 337.5,251.5C 342.167,248.833 345.833,245.167 348.5,240.5C 349.167,239.167 350.167,238.167 351.5,237.5C 358.833,232.167 365.167,225.833 370.5,218.5C 375.5,215.5 379.5,211.5 382.5,206.5C 383.585,204.413 385.251,203.08 387.5,202.5C 392.5,201.167 397.5,201.167 402.5,202.5 Z"/></g>
<g><path style="opacity:1" fill="#fa7140" d="M 389.5,190.5 C 391.595,190.76 392.928,191.926 393.5,194C 391.895,195.388 390.395,196.888 389,198.5C 387.989,197.663 386.822,197.33 385.5,197.5C 385.5,198.5 385.5,199.5 385.5,200.5C 386.5,200.5 387.5,200.5 388.5,200.5C 388.167,201.167 387.833,201.833 387.5,202.5C 385.251,203.08 383.585,204.413 382.5,206.5C 378.167,210.167 374.167,214.167 370.5,218.5C 363.833,224.5 357.5,230.833 351.5,237.5C 350.167,238.167 349.167,239.167 348.5,240.5C 344.5,243.833 340.833,247.5 337.5,251.5C 337.5,251.833 337.5,252.167 337.5,252.5C 332.56,255.77 328.227,259.77 324.5,264.5C 321.833,266.5 319.5,268.833 317.5,271.5C 311.833,276.5 306.5,281.833 301.5,287.5C 296.833,291.833 292.167,296.167 287.5,300.5C 287.5,299.5 287.5,298.5 287.5,297.5C 285.005,298.199 282.672,299.199 280.5,300.5C 317.671,263.004 354.004,226.337 389.5,190.5 Z"/></g>
<g><path style="opacity:1" fill="#fdac8d" d="M 450.5,204.5 C 448.723,205.6 446.723,206.434 444.5,207C 437.654,207.821 430.987,207.654 424.5,206.5C 433.284,206.916 441.951,206.249 450.5,204.5 Z"/></g>
<g><path style="opacity:1" fill="#fdc7b3" d="M 382.5,206.5 C 379.5,211.5 375.5,215.5 370.5,218.5C 374.167,214.167 378.167,210.167 382.5,206.5 Z"/></g>
<g><path style="opacity:1" fill="#fdcab5" d="M 370.5,218.5 C 365.167,225.833 358.833,232.167 351.5,237.5C 357.5,230.833 363.833,224.5 370.5,218.5 Z"/></g>
<g><path style="opacity:1" fill="#fefaf8" d="M 409.5,228.5 C 410.124,228.917 410.457,229.584 410.5,230.5C 405.388,246.737 397.555,261.404 387,274.5C 369.697,294.304 351.863,313.637 333.5,332.5C 329.9,334.43 326.9,337.097 324.5,340.5C 321.82,343.013 318.987,345.346 316,347.5C 314.317,345.649 312.484,343.983 310.5,342.5C 307.501,338.668 304.001,335.335 300,332.5C 299.15,330.99 298.317,329.49 297.5,328C 334.709,294.62 372.043,261.453 409.5,228.5 Z"/></g>
<g><path style="opacity:1" fill="#fdc9b4" d="M 348.5,240.5 C 345.833,245.167 342.167,248.833 337.5,251.5C 340.833,247.5 344.5,243.833 348.5,240.5 Z"/></g>
<g><path style="opacity:1" fill="#fbb49e" d="M 19.5,240.5 C 19.5905,243.152 18.9238,245.485 17.5,247.5C 17.4095,244.848 18.0762,242.515 19.5,240.5 Z"/></g>
<g><path style="opacity:1" fill="#fdcbb5" d="M 337.5,252.5 C 333.773,257.23 329.44,261.23 324.5,264.5C 328.227,259.77 332.56,255.77 337.5,252.5 Z"/></g>
<g><path style="opacity:1" fill="#fdcfb9" d="M 317.5,271.5 C 313.167,277.833 307.833,283.167 301.5,287.5C 306.5,281.833 311.833,276.5 317.5,271.5 Z"/></g>
<g><path style="opacity:1" fill="#fef9f7" d="M 266.5,306.5 C 265.409,308.534 263.743,309.868 261.5,310.5C 260.167,310.5 258.833,310.5 257.5,310.5C 253.404,311.508 249.404,312.508 245.5,313.5C 239.235,314.204 233.235,315.538 227.5,317.5C 224.904,318.265 222.237,318.599 219.5,318.5C 219.351,317.448 219.517,316.448 220,315.5C 229.014,306.319 238.181,297.319 247.5,288.5C 253.854,294.522 260.187,300.522 266.5,306.5 Z"/></g>
<g><path style="opacity:1" fill="#fca282" d="M 266.5,306.5 C 267.776,307.386 267.776,308.386 266.5,309.5C 264.929,310.309 263.262,310.643 261.5,310.5C 263.743,309.868 265.409,308.534 266.5,306.5 Z"/></g>
<g><path style="opacity:1" fill="#fb9c79" d="M 257.5,310.5 C 254.032,313.114 250.032,314.114 245.5,313.5C 249.404,312.508 253.404,311.508 257.5,310.5 Z"/></g>
<g><path style="opacity:1" fill="#fb9b77" d="M 245.5,313.5 C 245.389,314.117 245.056,314.617 244.5,315C 238.856,316.052 233.189,316.885 227.5,317.5C 233.235,315.538 239.235,314.204 245.5,313.5 Z"/></g>
<g><path style="opacity:1" fill="#fef4ef" d="M 259.5,329.5 C 263.167,325.5 266.833,321.5 270.5,317.5C 271.838,315.887 273.505,315.387 275.5,316C 278.833,319.333 282.167,322.667 285.5,326C 277.685,327.886 269.852,329.719 262,331.5C 260.624,331.316 259.791,330.649 259.5,329.5 Z"/></g>
<g><path style="opacity:1" fill="#fa7342" d="M 406.5,224.5 C 404.814,227.537 405.814,228.87 409.5,228.5C 372.043,261.453 334.709,294.62 297.5,328C 298.317,329.49 299.15,330.99 300,332.5C 304.001,335.335 307.501,338.668 310.5,342.5C 306.925,341.107 305.925,342.274 307.5,346C 309.087,346.862 310.754,347.529 312.5,348C 312.018,352.646 310.351,356.813 307.5,360.5C 305.872,359.465 304.205,359.465 302.5,360.5C 304.64,357.835 307.14,355.502 310,353.5C 310.667,352.5 310.667,351.5 310,350.5C 304.167,344.667 298.333,338.833 292.5,333C 288.973,332.192 285.64,332.359 282.5,333.5C 277.486,334.169 272.486,335.003 267.5,336C 266.584,336.278 265.918,336.778 265.5,337.5C 262.794,337.575 260.127,337.908 257.5,338.5C 260.169,337.237 262.169,335.737 263.5,334C 261.866,333.506 260.199,333.34 258.5,333.5C 258.232,331.901 258.566,330.568 259.5,329.5C 259.791,330.649 260.624,331.316 262,331.5C 269.852,329.719 277.685,327.886 285.5,326C 282.167,322.667 278.833,319.333 275.5,316C 273.505,315.387 271.838,315.887 270.5,317.5C 270.231,315.571 270.731,313.905 272,312.5C 273.337,313.765 274.837,314.265 276.5,314C 278.098,309.538 280.265,305.372 283,301.5C 283.671,302.252 284.504,302.586 285.5,302.5C 283.14,304.865 281.14,307.532 279.5,310.5C 283.53,315.715 288.197,319.881 293.5,323C 331.038,289.958 368.705,257.124 406.5,224.5 Z"/></g>
<g><path style="opacity:1" fill="#fefcfb" d="M 302.5,360.5 C 276.019,380.246 248.352,398.246 219.5,414.5C 210.762,419.2 202.096,423.866 193.5,428.5C 187.746,429.858 186.079,433.192 188.5,438.5C 190.513,445.393 191.68,452.393 192,459.5C 191.439,460.022 190.772,460.355 190,460.5C 188.357,459.685 186.857,458.685 185.5,457.5C 177.202,448.702 168.702,440.035 160,431.5C 159.333,430.5 159.333,429.5 160,428.5C 162.04,426.63 163.873,424.63 165.5,422.5C 192.965,395.535 220.299,368.368 247.5,341C 250.721,339.722 254.054,338.889 257.5,338.5C 260.127,337.908 262.794,337.575 265.5,337.5C 270.149,336.935 274.816,336.435 279.5,336C 281.119,335.764 282.119,334.931 282.5,333.5C 285.64,332.359 288.973,332.192 292.5,333C 298.333,338.833 304.167,344.667 310,350.5C 310.667,351.5 310.667,352.5 310,353.5C 307.14,355.502 304.64,357.835 302.5,360.5 Z"/></g>
<g><path style="opacity:1" fill="#f6966f" d="M 333.5,332.5 C 331.1,335.903 328.1,338.57 324.5,340.5C 326.9,337.097 329.9,334.43 333.5,332.5 Z"/></g>
<g><path style="opacity:1" fill="#fbad8e" d="M 584.5,322.5 C 584.844,327.122 584.177,331.455 582.5,335.5C 582.28,330.9 582.946,326.567 584.5,322.5 Z"/></g>
<g><path style="opacity:1" fill="#ffd1bf" d="M 282.5,333.5 C 282.119,334.931 281.119,335.764 279.5,336C 274.816,336.435 270.149,336.935 265.5,337.5C 265.918,336.778 266.584,336.278 267.5,336C 272.486,335.003 277.486,334.169 282.5,333.5 Z"/></g>
<g><path style="opacity:1" fill="#fecdb7" d="M 582.5,336.5 C 582.211,343.178 581.711,349.844 581,356.5C 580.1,359.718 578.933,362.718 577.5,365.5C 579.273,355.732 580.94,346.066 582.5,336.5 Z"/></g>
<g><path style="opacity:1" fill="#fdd6c6" d="M 17.5,352.5 C 19.6464,360.044 21.6464,367.711 23.5,375.5C 22.3556,373.9 21.1889,372.233 20,370.5C 19.7341,364.396 18.9008,358.396 17.5,352.5 Z"/></g>
<g><path style="opacity:1" fill="#fb7d52" d="M 219.5,414.5 C 219.279,415.735 218.612,416.735 217.5,417.5C 218.794,421.061 217.96,421.394 215,418.5C 212.83,421.14 209.997,422.64 206.5,423C 204.473,424.396 204.14,426.062 205.5,428C 204.228,430.261 202.562,430.761 200.5,429.5C 204.07,428.886 204.403,427.552 201.5,425.5C 198.965,426.9 196.298,427.9 193.5,428.5C 202.096,423.866 210.762,419.2 219.5,414.5 Z"/></g>
<g><path style="opacity:1" fill="#fa7342" d="M 165.5,422.5 C 163.873,424.63 162.04,426.63 160,428.5C 159.333,429.5 159.333,430.5 160,431.5C 168.702,440.035 177.202,448.702 185.5,457.5C 182.5,457.167 181.167,458.5 181.5,461.5C 172.702,453.202 164.035,444.702 155.5,436C 154.552,435.517 153.552,435.351 152.5,435.5C 153.292,433.743 154.625,432.409 156.5,431.5C 157.711,430.28 157.711,429.113 156.5,428C 159.943,427.779 160.276,426.779 157.5,425C 161.13,424.729 162.13,423.062 160.5,420C 162.061,419.812 162.728,420.645 162.5,422.5C 163.5,422.5 164.5,422.5 165.5,422.5 Z"/></g>
<g><path style="opacity:1" fill="#f4916c" d="M 193.5,428.5 C 192.359,430.088 190.859,431.421 189,432.5C 188.505,434.473 188.338,436.473 188.5,438.5C 186.079,433.192 187.746,429.858 193.5,428.5 Z"/></g>
<g><path style="opacity:1" fill="#fef9f6" d="M 152.5,435.5 C 153.552,435.351 154.552,435.517 155.5,436C 164.035,444.702 172.702,453.202 181.5,461.5C 176.695,462.487 171.695,462.821 166.5,462.5C 154.986,461.692 143.486,460.692 132,459.5C 131.333,458.5 131.333,457.5 132,456.5C 139.036,449.632 145.869,442.632 152.5,435.5 Z"/></g>
<g><path style="opacity:1" fill="#f5936f" d="M 181.5,461.5 C 182.043,461.56 182.376,461.893 182.5,462.5C 177.014,463.815 171.68,463.815 166.5,462.5C 171.695,462.821 176.695,462.487 181.5,461.5 Z"/></g>
<g><path style="opacity:1" fill="#f89b77" d="M 200.5,567.5 C 206.767,568.922 212.767,570.922 218.5,573.5C 212.085,572.473 206.085,570.473 200.5,567.5 Z"/></g>
<g><path style="opacity:1" fill="#f78157" d="M 237.5,578.5 C 248.237,578.485 258.57,580.152 268.5,583.5C 257.974,582.275 247.641,580.608 237.5,578.5 Z"/></g>
</svg>
