<?xml version="1.0" encoding="UTF-8"?>
<svg version="1.1" xmlns="http://www.w3.org/2000/svg" width="1024" height="1024">
<path d="M0 0 C1.77366977 -0.00187468 3.54733912 -0.00417796 5.32100785 -0.00686532 C10.13198554 -0.01290875 14.94294567 -0.01285867 19.75392628 -0.01167095 C24.96756055 -0.01146502 30.18118946 -0.01700381 35.39482117 -0.02172852 C45.58634218 -0.02999476 55.77785741 -0.03278153 65.9693815 -0.03334089 C74.26431877 -0.03381801 82.55925415 -0.03588249 90.85419083 -0.03904152 C114.43453368 -0.04783743 138.014872 -0.05246261 161.5952165 -0.05171105 C163.49752449 -0.05165111 163.49752449 -0.05165111 165.43826294 -0.05158997 C166.70803856 -0.05154909 167.97781419 -0.0515082 169.28606786 -0.05146609 C189.84425773 -0.05106001 210.40242926 -0.06062265 230.96061383 -0.07472833 C252.13104548 -0.08913806 273.3014682 -0.09599598 294.47190487 -0.09513456 C306.33271697 -0.09480415 318.19350983 -0.09748209 330.05431747 -0.10831261 C340.15580661 -0.1174784 350.2572678 -0.11954353 360.35875933 -0.11280318 C365.49871077 -0.10956823 370.63860877 -0.10936976 375.77855492 -0.11815643 C438.35540874 -0.21815728 504.29463614 3.22021336 552.92507935 47.75968933 C554.30794545 49.01862987 555.71948872 50.24588203 557.13357544 51.46965027 C589.51968 79.63590133 607.8684194 119.85945404 614.62185669 161.69621277 C614.77702759 162.6448822 614.93219849 163.59355164 615.09207153 164.57096863 C618.88322274 190.00723669 618.7282681 215.59354439 618.69580603 241.2374872 C618.69122585 246.60429838 618.69829247 251.97109726 618.70376587 257.33790588 C618.71260272 267.81569658 618.71076358 278.29345843 618.70494059 288.7712502 C618.70040168 297.2953982 618.69982077 305.81953819 618.70198822 314.34368706 C618.70229469 315.56243128 618.70260115 316.7811755 618.70291691 318.03685136 C618.70355643 320.51361919 618.70420486 322.99038702 618.70486209 325.46715485 C618.7105486 348.62548079 618.70403383 371.78379083 618.69326136 394.94211417 C618.68432625 414.76339392 618.68588083 434.58465024 618.69509888 454.40592957 C618.70582934 477.48973362 618.71000061 500.57352378 618.70387435 523.65732998 C618.70323733 526.1240714 618.70260859 528.59081282 618.70198822 531.05755424 C618.70167967 532.27086761 618.70137112 533.48418098 618.70105322 534.73426141 C618.69933467 543.23729914 618.70222311 551.74032798 618.70694733 560.24336433 C618.71258707 570.62116709 618.71097516 580.99893963 618.70038584 591.37673897 C618.69517062 596.65990385 618.69300054 601.94301856 618.69968414 607.22618294 C618.74767609 648.57237988 618.74767609 648.57237988 616.43435669 669.13371277 C616.31492116 670.20173069 616.31492116 670.20173069 616.1930728 671.29132473 C615.77046216 674.98321252 615.27141229 678.65188067 614.68435669 682.32121277 C614.51444214 683.38887878 614.34452759 684.4565448 614.16946411 685.55656433 C609.02911088 716.23939876 597.31674462 745.3505786 578.43435669 770.13371277 C577.83623169 770.95613464 577.23810669 771.77855652 576.62185669 772.62590027 C546.82805936 812.12928333 500.53373338 834.1368525 452.48123169 841.00480652 C450.42459738 841.28186606 448.36730433 841.55408322 446.30935669 841.82121277 C445.39299438 841.94077332 444.47663208 842.06033386 443.53250122 842.18351746 C428.32244817 844.01797587 413.04747244 844.2826995 397.74736023 844.26742554 C395.9361553 844.26929913 394.12495077 844.27160199 392.31374687 844.27429086 C387.38984459 844.28034764 382.46595944 844.28028258 377.5420543 844.27909648 C372.21051346 844.27889091 366.8789779 844.28442609 361.54743958 844.28915405 C351.12136391 844.29742764 340.69529391 844.3002074 330.26921523 844.30076643 C321.78541715 844.30124319 313.30162091 844.30330589 304.81782341 844.30646706 C280.71242954 844.3152649 256.60704011 844.31988783 232.50164462 844.31913658 C231.20463736 844.31909663 229.90763009 844.31905667 228.57131958 844.3190155 C227.27271049 844.31897462 225.9741014 844.31893374 224.63614052 844.31889162 C203.60697381 844.31848547 182.57782503 844.32804949 161.5486635 844.34215387 C139.90483449 844.3565548 118.26101421 844.363422 96.61718029 844.36256009 C84.486479 844.36222939 72.35579651 844.36492059 60.22509956 844.37573814 C49.89437411 844.38489225 39.56367597 844.38697843 29.23294819 844.38022872 C23.97389208 844.37698802 18.71488823 844.37681688 13.45583725 844.38558197 C-39.98037275 844.469063 -39.98037275 844.469063 -65.75314331 839.94621277 C-66.9930603 839.73190613 -68.23297729 839.51759949 -69.51046753 839.29679871 C-100.87308793 833.61204736 -129.95011195 821.58659377 -154.56564331 801.13371277 C-155.16038452 800.64048523 -155.75512573 800.14725769 -156.3678894 799.63908386 C-167.89245438 790.02673407 -177.51234368 780.10527928 -186.56564331 768.13371277 C-187.20759644 767.28679871 -187.84954956 766.43988464 -188.51095581 765.56730652 C-213.17909982 731.66295044 -222.23690386 690.63566702 -224.63150024 649.48904419 C-224.69699045 648.36494293 -224.69699045 648.36494293 -224.76380369 647.21813255 C-225.8151686 628.6536139 -225.85264352 610.10265976 -225.82709265 591.51380098 C-225.82247566 586.51912902 -225.82959661 581.52446966 -225.83505249 576.52980042 C-225.84385196 566.79752411 -225.84206721 557.06527899 -225.83622721 547.33300156 C-225.8316727 539.40841956 -225.83111399 531.48384617 -225.83327484 523.55926323 C-225.83358131 522.42262449 -225.83388777 521.28598574 -225.83420353 520.1149034 C-225.83484311 517.80436842 -225.83549154 515.49383344 -225.83614871 513.18329846 C-225.84182439 491.61932918 -225.83533792 470.05537702 -225.82454798 448.49141055 C-225.81561622 430.07228332 -225.81716683 411.65318133 -225.8263855 393.23405457 C-225.8371394 371.73806992 -225.84127407 350.2421002 -225.83516097 328.74611324 C-225.83452401 326.44473485 -225.83389527 324.14335646 -225.83327484 321.84197807 C-225.83296629 320.71026252 -225.83265774 319.57854696 -225.83233984 318.412537 C-225.83062809 310.51719383 -225.8334948 302.6218603 -225.83823395 294.72651863 C-225.84390017 285.0764461 -225.84220786 275.42640601 -225.83167246 265.77633709 C-225.8264915 260.87249563 -225.82422567 255.96870783 -225.83097076 251.06486702 C-225.85428694 232.50485603 -225.68991498 213.9969247 -224.65884399 195.46170044 C-224.6189383 194.73328379 -224.5790326 194.00486714 -224.53791764 193.25437725 C-222.15280107 150.90240305 -211.89415225 109.18581995 -185.56564331 75.13371277 C-184.88372925 74.22879089 -184.20181519 73.32386902 -183.49923706 72.39152527 C-168.884546 53.70025056 -150.93944102 39.04883675 -130.56564331 27.13371277 C-129.96171753 26.77680359 -129.35779175 26.41989441 -128.73556519 26.0521698 C-105.68782215 12.5865702 -80.02340389 6.26081416 -53.75314331 2.82121277 C-52.5396521 2.66169128 -51.32616089 2.5021698 -50.07589722 2.33781433 C-33.44777842 0.32511218 -16.73238627 -0.0171542 0 0 Z " fill="#FE6C37" transform="translate(315.5656433105469,99.86628723144531)"/>
<path d="M0 0 C0.99 0.495 0.99 0.495 2 1 C1.48727539 1.28609131 0.97455078 1.57218262 0.44628906 1.86694336 C-15.4639027 10.78926205 -29.37734074 20.8781797 -43 33 C-43.72832031 33.64195312 -44.45664063 34.28390625 -45.20703125 34.9453125 C-76.00730854 63.86515181 -89.77798436 106.29143023 -94.6875 147 C-94.86684082 148.47376099 -94.86684082 148.47376099 -95.04980469 149.97729492 C-97.58295944 172.70409854 -97.15118825 195.61754642 -97.14538372 218.44702613 C-97.14517756 223.51688712 -97.15071882 228.58674261 -97.15544128 233.65660095 C-97.16370306 243.5652446 -97.16649411 253.4738823 -97.16705366 263.3825291 C-97.16753107 271.45000533 -97.16959697 279.51747961 -97.17275429 287.58495522 C-97.18154958 310.53041448 -97.18617557 333.47586909 -97.18542381 356.42133006 C-97.18538386 357.65506213 -97.1853439 358.88879421 -97.18530273 360.15991211 C-97.18526185 361.39517623 -97.18522097 362.63044034 -97.18517885 363.90313671 C-97.18477297 383.89273991 -97.19433095 403.88232423 -97.2084411 423.87192198 C-97.22286315 444.46835834 -97.22970806 465.06478552 -97.22884732 485.66122705 C-97.2285173 497.19574648 -97.23117795 508.73024613 -97.24202538 520.26476097 C-97.25120762 530.09053028 -97.25324323 539.91627084 -97.24651595 549.74204262 C-97.24328885 554.73870325 -97.24305268 559.73530898 -97.2518692 564.73196411 C-97.28215382 583.09310582 -97.18010248 601.40555546 -96.0941925 619.73945618 C-96.03429439 620.76324985 -96.03429439 620.76324985 -95.97318622 621.80772623 C-92.98035619 671.45382281 -77.03806784 720.8969047 -39 755 C10.96924215 798.39434186 70.13936564 803.34269618 133.82082736 803.26144934 C139.14677666 803.2568685 144.47271356 803.26393614 149.79866028 803.26940918 C160.19691063 803.27824571 170.59513191 803.27640693 180.99338334 803.2705839 C189.45410837 803.26604438 197.91482532 803.26546434 206.37555122 803.26763153 C207.58539191 803.267938 208.7952326 803.26824446 210.04173513 803.26856022 C212.5004605 803.26919975 214.95918587 803.26984818 217.41791124 803.2705054 C240.4079546 803.27619194 263.39798194 803.26967734 286.38802267 803.25890467 C306.05971518 803.24997183 325.73138408 803.25152227 345.40307617 803.26074219 C368.31623442 803.27147651 391.22937867 803.27564159 414.14253908 803.26951766 C416.59190372 803.26888065 419.04126837 803.2682519 421.49063301 803.26763153 C422.69537262 803.26732298 423.90011223 803.26701443 425.1413591 803.26669653 C433.57883593 803.26497896 442.01630378 803.26786432 450.45377922 803.27259064 C460.75503546 803.27823481 471.05626127 803.27660947 481.35751408 803.26602915 C486.60042154 803.26081941 491.84327851 803.25863412 497.08618546 803.26532745 C540.90987634 803.31646807 585.85651025 802.91664746 626 783 C626.62664551 782.69481445 627.25329102 782.38962891 627.89892578 782.07519531 C637.62763635 777.29383259 646.39229247 771.5712758 655 765 C655.91007813 764.31550781 656.82015625 763.63101563 657.7578125 762.92578125 C696.62781629 732.46794246 716.76031735 688.16391531 723.00268555 639.94042969 C723.39901722 636.63049287 723.73416212 633.32251051 724 630 C724.12332647 628.4908109 724.12332647 628.4908109 724.24914438 626.95113313 C725.00715997 616.76725684 725.14369893 606.64135834 725.13371277 596.43252563 C725.13558494 594.59773569 725.13788725 592.76294614 725.14057809 590.92815721 C725.14665252 585.92520629 725.14656767 580.92227219 725.14538372 575.91931844 C725.14517859 570.50800781 725.15070911 565.09670243 725.15544128 559.68539429 C725.1637249 549.09715016 725.1664951 538.5089116 725.16705366 527.9206645 C725.16752999 519.30615199 725.16959058 510.6916413 725.17275429 502.07712936 C725.1815553 477.61185457 725.18617463 453.14658414 725.18542381 428.68130775 C725.18538386 427.36415686 725.1853439 426.04700596 725.18530273 424.68994141 C725.18526185 423.3711675 725.18522097 422.0523936 725.18517885 420.69365685 C725.18467771 399.33962148 725.19433508 377.98560592 725.2084411 356.6315753 C725.22283654 334.6646674 725.22970952 312.69776808 725.22884732 290.73085535 C725.22851641 278.414614 725.23121711 266.09839116 725.24202538 253.78215408 C725.25117225 243.29246438 725.25327154 232.80280157 725.24651595 222.31310959 C725.24327151 216.9712865 725.24311804 211.62951489 725.2518692 206.28769684 C725.35003491 142.21930324 718.64911333 81.20733006 672 33 C669.43779916 30.52789853 666.7579185 28.2507151 664 26 C663.50226074 25.58991699 663.00452148 25.17983398 662.49169922 24.75732422 C651.08732045 15.40256481 639.0510583 7.90476832 626 1 C629 0 629 0 630.80249023 0.67749023 C631.46450439 1.05075439 632.12651855 1.42401855 632.80859375 1.80859375 C633.54956299 2.22165771 634.29053223 2.63472168 635.05395508 3.06030273 C635.8405249 3.51477783 636.62709473 3.96925293 637.4375 4.4375 C638.24791748 4.89906494 639.05833496 5.36062988 639.89331055 5.83618164 C650.95364367 12.19732864 660.92586925 19.26401865 670.4921875 27.67578125 C671.87171931 28.88733898 673.26339483 30.0850332 674.65625 31.28125 C707.02748195 59.55485765 725.41993611 99.63822865 732.1875 141.5625 C732.3426709 142.51116943 732.4978418 143.45983887 732.65771484 144.43725586 C736.44886605 169.87352392 736.29391141 195.45983162 736.26144934 221.10377443 C736.25686916 226.47058562 736.26393578 231.83738449 736.26940918 237.20419312 C736.27824603 247.68198381 736.27640689 258.15974566 736.2705839 268.63753743 C736.266045 277.16168543 736.26546408 285.68582542 736.26763153 294.20997429 C736.267938 295.42871851 736.26824446 296.64746273 736.26856022 297.90313859 C736.26919974 300.37990642 736.26984817 302.85667426 736.2705054 305.33344208 C736.27619191 328.49176803 736.26967714 351.65007807 736.25890467 374.8084014 C736.24996956 394.62968115 736.25152414 414.45093747 736.26074219 434.2722168 C736.27147265 457.35602085 736.27564392 480.43981101 736.26951766 503.52361721 C736.26888064 505.99035863 736.2682519 508.45710005 736.26763153 510.92384148 C736.26732298 512.13715484 736.26701443 513.35046821 736.26669653 514.60054864 C736.26497798 523.10358638 736.26786642 531.60661521 736.27259064 540.10965157 C736.27823038 550.48745432 736.27661847 560.86522686 736.26602915 571.2430262 C736.26081393 576.52619108 736.25864385 581.80930579 736.26532745 587.09247017 C736.3133194 628.43866711 736.3133194 628.43866711 734 649 C733.88056447 650.06801792 733.88056447 650.06801792 733.75871611 651.15761197 C733.33610547 654.84949976 732.8370556 658.5181679 732.25 662.1875 C732.08008545 663.25516602 731.9101709 664.32283203 731.73510742 665.42285156 C726.59475419 696.10568599 714.88238793 725.21686584 696 750 C695.401875 750.82242188 694.80375 751.64484375 694.1875 752.4921875 C664.39370267 791.99557056 618.09937669 814.00313973 570.046875 820.87109375 C567.99024069 821.14815329 565.93294764 821.42037045 563.875 821.6875 C562.9586377 821.80706055 562.04227539 821.92662109 561.09814453 822.04980469 C545.88809148 823.8842631 530.61311575 824.14898673 515.31300354 824.13371277 C513.50179861 824.13558636 511.69059408 824.13788922 509.87939018 824.14057809 C504.9554879 824.14663487 500.03160275 824.14656981 495.10769761 824.14538372 C489.77615677 824.14517814 484.44462121 824.15071333 479.11308289 824.15544128 C468.68700722 824.16371487 458.26093722 824.16649464 447.83485854 824.16705366 C439.35106046 824.16753042 430.86726422 824.16959312 422.38346672 824.17275429 C398.27807285 824.18155213 374.17268342 824.18617506 350.06728793 824.18542381 C348.77028067 824.18538386 347.4732734 824.1853439 346.13696289 824.18530273 C344.8383538 824.18526185 343.53974471 824.18522097 342.20178383 824.18517885 C321.17261712 824.1847727 300.14346834 824.19433673 279.11430681 824.2084411 C257.4704778 824.22284204 235.82665752 824.22970923 214.1828236 824.22884732 C202.05212231 824.22851662 189.92143982 824.23120782 177.79074287 824.24202538 C167.46001742 824.25117948 157.12931928 824.25326567 146.7985915 824.24651595 C141.53953539 824.24327525 136.28053154 824.24310411 131.02148056 824.2518692 C77.58527056 824.33535024 77.58527056 824.33535024 51.8125 819.8125 C50.57258301 819.59819336 49.33266602 819.38388672 48.05517578 819.16308594 C16.69255538 813.47833459 -12.38446864 801.45288101 -37 781 C-37.59474121 780.50677246 -38.18948242 780.01354492 -38.80224609 779.50537109 C-50.32681107 769.8930213 -59.94670037 759.97156651 -69 748 C-69.64195312 747.15308594 -70.28390625 746.30617188 -70.9453125 745.43359375 C-95.61345651 711.52923768 -104.67126055 670.50195425 -107.06585693 629.35533142 C-107.13134714 628.23123016 -107.13134714 628.23123016 -107.19816038 627.08441978 C-108.24952529 608.51990114 -108.2870002 589.96894699 -108.26144934 571.38008821 C-108.25683235 566.38541626 -108.2639533 561.39075689 -108.26940918 556.39608765 C-108.27820865 546.66381134 -108.2764239 536.93156622 -108.2705839 527.19928879 C-108.26602939 519.27470679 -108.26547068 511.3501334 -108.26763153 503.42555046 C-108.267938 502.28891172 -108.26824446 501.15227297 -108.26856022 499.98119063 C-108.2691998 497.67065565 -108.26984823 495.36012067 -108.2705054 493.04958569 C-108.27618108 471.48561641 -108.26969461 449.92166425 -108.25890467 428.35769778 C-108.24997291 409.93857056 -108.25152352 391.51946856 -108.26074219 373.1003418 C-108.27149609 351.60435715 -108.27563076 330.10838744 -108.26951766 308.61240047 C-108.2688807 306.31102209 -108.26825196 304.0096437 -108.26763153 301.7082653 C-108.26732298 300.57654975 -108.26701443 299.44483419 -108.26669653 298.27882423 C-108.26498477 290.38348106 -108.26785149 282.48814753 -108.27259064 274.59280586 C-108.27825686 264.94273333 -108.27656455 255.29269324 -108.26602915 245.64262433 C-108.26084819 240.73878286 -108.25858236 235.83499506 -108.26532745 230.93115425 C-108.28864363 212.37114326 -108.12427167 193.86321193 -107.09320068 175.32798767 C-107.05329499 174.59957102 -107.01338929 173.87115437 -106.97227433 173.12066448 C-104.58715776 130.76869028 -94.32850894 89.05210718 -68 55 C-67.31808594 54.09507812 -66.63617188 53.19015625 -65.93359375 52.2578125 C-48.8589898 30.42046323 -25.55406152 11.16478713 0 0 Z " fill="#000000" transform="translate(198,120)"/>
<path d="M0 0 C1.80431284 1.56569591 3.47431429 3.20960041 5.14161682 4.92048645 C5.75698807 5.53248901 6.37235931 6.14449158 7.00637817 6.77503967 C8.30022362 8.06918355 9.58663117 9.37080093 10.86598206 10.67927551 C12.83154806 12.6846066 14.82488061 14.65884689 16.82325745 16.63142395 C18.07697272 17.89269564 19.32898712 19.15566078 20.57911682 20.42048645 C21.47732399 21.30821747 21.47732399 21.30821747 22.39367676 22.21388245 C24.03395081 23.91169739 24.03395081 23.91169739 26.39552307 26.93611145 C25.526906 34.40188371 16.02669985 39.47808062 10.50440979 43.88240051 C8.09117811 45.78389932 5.65872548 47.65963591 3.22120667 49.52986145 C1.50540664 50.8514726 -0.19660318 52.18909579 -1.89744568 53.52986145 C-43.12064248 85.60147336 -89.73617503 111.34506667 -135.76902771 135.69538879 C-136.38728424 136.02286606 -137.00554077 136.35034332 -137.64253235 136.68774414 C-139.32085776 137.57617763 -141.00022822 138.46263614 -142.67967224 139.34895325 C-147.42643937 141.7362632 -147.42643937 141.7362632 -151.60447693 144.93611145 C-152.04514057 152.81297405 -150.43524657 159.47853716 -148.38182068 167.03181458 C-146.81136105 173.12071092 -146.30044392 178.65360713 -146.60447693 184.93611145 C-149.10447693 185.87361145 -149.10447693 185.87361145 -152.60447693 185.93611145 C-158.53714322 182.44243019 -163.01464704 176.3965712 -167.60765076 171.34553528 C-171.92717697 166.61117345 -176.38945667 162.03400657 -180.91697693 157.49861145 C-181.5743988 156.83675842 -182.23182068 156.1749054 -182.90916443 155.49299622 C-186.98377029 151.43022318 -191.19187906 147.62945016 -195.60447693 143.93611145 C-195.10017033 139.69750682 -192.74172459 137.70364264 -189.79689026 134.76776123 C-189.29179204 134.26009974 -188.78669382 133.75243824 -188.26628959 133.22939306 C-186.56982682 131.52798406 -184.86285456 129.83752765 -183.15574646 128.14680481 C-181.93816291 126.93006738 -180.72123939 125.71266916 -179.50492859 124.49465942 C-176.19752717 121.18639577 -172.8809432 117.88747721 -169.56267023 114.59012294 C-166.09402862 111.14022203 -162.63386809 107.68183641 -159.17280579 104.22433472 C-152.61274149 97.67360315 -146.04506784 91.13055578 -139.47464168 84.59021908 C-132.00784584 77.15688428 -124.54950107 69.71509499 -117.09188676 62.27255046 C-104.3464324 49.55315365 -91.59457559 36.84020488 -78.83583069 24.13414001 C-78.29801495 23.59854306 -77.76019922 23.06294611 -77.20608604 22.51111895 C-75.77323735 21.08423799 -74.34031229 19.65743371 -72.90738106 18.23063564 C-71.57625972 16.90435806 -70.25231831 15.57061819 -68.9485302 14.21746159 C-64.28997273 9.77623638 -57.72982935 8.86658328 -51.66697693 7.62361145 C-50.68930359 7.41776428 -49.71163025 7.21191711 -48.70433044 6.99983215 C-45.34028706 6.29869688 -41.97298393 5.61547421 -38.60447693 4.93611145 C-37.95507141 4.80446594 -37.30566589 4.67282043 -36.63658142 4.53718567 C-32.46460718 3.69176138 -28.2907875 2.85633801 -24.11445618 2.03269958 C-22.74088579 1.76156956 -21.36760987 1.4889431 -19.99464417 1.21476746 C-18.05195891 0.82818181 -16.10753628 0.450359 -14.16307068 0.0728302 C-13.04215027 -0.14671326 -11.92122986 -0.36625671 -10.76634216 -0.592453 C-2.70596642 -1.7942587 -2.70596642 -1.7942587 0 0 Z " fill="#FFFEFE" transform="translate(495.60447692871094,571.0638885498047)"/>
<path d="M0 0 C1.29819906 0.90739173 2.59245222 1.82061755 3.875 2.75 C1.20157336 4.53228443 -0.26252902 5.13977029 -3.25 5.9375 C-14.91210265 9.80996377 -23.51424705 20.90463917 -31.92871094 29.421875 C-33.40911013 30.91267418 -34.89000436 32.40298192 -36.37135315 33.89283752 C-39.54637122 37.08765227 -42.71842486 40.28537086 -45.88832855 43.48526001 C-50.8987058 48.54191937 -55.91897319 53.58868076 -60.94122314 58.63354492 C-75.2160755 72.97514936 -89.48236786 87.3251944 -103.72802734 101.69580078 C-111.60648397 109.64319171 -119.4955224 117.57991497 -127.39661431 125.50480461 C-132.39577132 130.52018905 -137.38148046 135.5484591 -142.3578496 140.58644962 C-145.44819595 143.70870919 -148.55095358 146.81839381 -151.65748405 149.92454338 C-153.09909038 151.37101022 -154.53551235 152.82266463 -155.96640968 154.27972603 C-157.91467985 156.26213476 -159.88040207 158.2253894 -161.85174561 160.18481445 C-162.41857551 160.77048565 -162.98540542 161.35615685 -163.56941199 161.95957565 C-165.1766777 163.53437805 -165.1766777 163.53437805 -168.125 165.75 C-171.83753685 165.64609454 -173.75645598 164.62035686 -176.37060547 162.05371094 C-176.95405731 161.48932312 -177.53750916 160.9249353 -178.13864136 160.34344482 C-178.75031158 159.72995178 -179.36198181 159.11645874 -179.9921875 158.484375 C-180.63116974 157.85396301 -181.27015198 157.22355103 -181.92849731 156.57403564 C-183.27317212 155.24082739 -184.61266244 153.90237236 -185.94726562 152.55908203 C-187.99647241 150.5035385 -190.0709221 148.47609901 -192.1484375 146.44921875 C-193.45214021 145.15006051 -194.75427916 143.84933077 -196.0546875 142.546875 C-196.99041092 141.63878082 -196.99041092 141.63878082 -197.94503784 140.71234131 C-202.12384353 136.44132264 -202.12384353 136.44132264 -202.12963867 132.97705078 C-200.77008544 129.9632368 -198.95020396 128.15698882 -196.5625 125.875 C-195.73621094 125.07320312 -194.90992188 124.27140625 -194.05859375 123.4453125 C-191.92303232 121.48321212 -189.77047725 119.59160689 -187.56640625 117.7109375 C-181.62094959 112.53749968 -176.16000347 106.85359897 -170.625 101.25 C-158.06243961 88.53175134 -158.06243961 88.53175134 -151.74804688 83.15039062 C-149.59283632 81.29084072 -147.60634132 79.29230567 -145.625 77.25 C-142.31513302 73.90066271 -138.91753051 70.75074044 -135.34375 67.6875 C-133.14100045 65.76397223 -130.991863 63.78894886 -128.84838867 61.79980469 C-123.64132825 56.96934774 -118.30845161 52.38624614 -112.7734375 47.9296875 C-110.15224881 45.77242601 -107.63345719 43.53689 -105.125 41.25 C-99.94903452 36.54605653 -94.58205032 32.12282059 -89.125 27.75 C-88.59390625 27.31929199 -88.0628125 26.88858398 -87.515625 26.44482422 C-75.0595021 16.34968956 -62.3333281 7.72611863 -48.125 0.25 C-47.14539307 -0.2668335 -46.16578613 -0.78366699 -45.15649414 -1.31616211 C-29.4368136 -9.41417936 -14.90693949 -9.7682119 0 0 Z " fill="#FFFDFD" transform="translate(638.125,366.25)"/>
<path d="M0 0 C4.53648325 3.21398305 7.5547929 7.3831287 9.3046875 12.6328125 C9.50066831 14.52262745 9.61647195 16.42141471 9.6796875 18.3203125 C9.75316406 19.81111328 9.75316406 19.81111328 9.828125 21.33203125 C8.5686305 29.27436599 2.75945385 34.54738877 -3.0078125 39.6953125 C-3.67643311 40.30528076 -4.34505371 40.91524902 -5.03393555 41.54370117 C-8.92012768 45.07785057 -12.83741034 48.57895374 -16.8203125 52.00390625 C-19.08282431 53.96946339 -21.29221933 55.98954559 -23.5078125 58.0078125 C-26.92760578 61.09918051 -30.41489774 64.05740282 -34.0078125 66.9453125 C-39.46402655 71.3581995 -44.58146701 76.07752278 -49.7109375 80.859375 C-54.31679476 85.15263049 -59.0763132 89.25610672 -63.87109375 93.3359375 C-70.71350306 99.16514938 -77.43648911 105.08813781 -84.0390625 111.1875 C-88.57041927 115.35901373 -93.22361759 119.37960744 -97.91015625 123.375 C-99.10952659 124.39825985 -100.30874067 125.42170287 -101.5078125 126.4453125 C-102.11391357 126.96254883 -102.72001465 127.47978516 -103.34448242 128.01269531 C-107.08582791 131.2177063 -110.7563818 134.48482753 -114.3828125 137.8203125 C-117.85667559 141.01018094 -121.39441275 144.05330144 -125.0703125 147.0078125 C-129.8597879 150.86941233 -134.35369209 154.96971658 -138.83911133 159.17333984 C-143.1892471 163.22635829 -147.69761482 166.99704653 -152.35546875 170.6953125 C-154.75662594 172.57425272 -154.75662594 172.57425272 -156.69140625 174.9453125 C-158.6953125 176.6328125 -158.6953125 176.6328125 -161.05541992 176.46801758 C-165.95033025 174.91937352 -169.03772984 170.90294008 -172.5703125 167.3203125 C-173.36695313 166.54751953 -174.16359375 165.77472656 -174.984375 164.97851562 C-175.73203125 164.22892578 -176.4796875 163.47933594 -177.25 162.70703125 C-177.93562012 162.02213623 -178.62124023 161.33724121 -179.32763672 160.6315918 C-180.6953125 158.6328125 -180.6953125 158.6328125 -180.43792701 156.6884442 C-179.17598325 153.19525687 -176.35649107 150.88750227 -173.76226807 148.32554626 C-173.13607441 147.6953782 -172.50988075 147.06521013 -171.86471152 146.41594607 C-169.75837068 144.29995818 -167.64144418 142.19488898 -165.52441406 140.08959961 C-164.01452625 138.57728461 -162.50528455 137.06432429 -160.99664307 135.55076599 C-156.89183993 131.43653922 -152.77765775 127.33181028 -148.66149616 123.22895122 C-144.35889174 118.9376459 -140.06398537 114.63864853 -135.76800537 110.3407135 C-128.55008147 103.12190599 -121.32619232 95.90911062 -114.09863281 88.69995117 C-105.74048113 80.36295606 -97.3911802 72.01717898 -89.04672265 63.66647905 C-81.02478282 55.63884521 -72.99718448 47.61689413 -64.96678925 39.59771919 C-61.54729278 36.18286942 -58.12969066 32.76614011 -54.71356964 29.34791374 C-50.68977696 25.322238 -46.66102494 21.30159165 -42.62837982 17.28478432 C-41.1484158 15.80906471 -39.67014647 14.33164332 -38.19369507 12.85240936 C-36.17914708 10.83464109 -34.15855514 8.82312619 -32.1362915 6.81309509 C-31.55233179 6.22535606 -30.96837208 5.63761702 -30.36671662 5.03206772 C-21.31240548 -3.92548951 -11.49262799 -6.2654514 0 0 Z " fill="#FFFEFD" transform="translate(655.6953125,381.3671875)"/>
<path d="M0 0 C1.05123047 -0.01160156 2.10246094 -0.02320313 3.18554688 -0.03515625 C14.0802664 0.00502096 23.70097232 2.32841379 33.3125 7.4375 C34.35083984 7.9644043 34.35083984 7.9644043 35.41015625 8.50195312 C38.1625219 9.92105783 40.48521451 11.17271451 42.6875 13.375 C42.78194609 16.16364511 42.1747197 17.80690505 40.35791016 19.92529297 C38.45131941 21.77754941 36.48874319 23.54870348 34.5 25.3125 C32.95402596 26.72458135 31.41122562 28.14014273 29.87109375 29.55859375 C28.62368408 30.70690674 28.62368408 30.70690674 27.35107422 31.87841797 C22.98158122 35.97396659 18.73793308 40.19362926 14.50595093 44.4302063 C13.09481214 45.8426578 11.6798948 47.25133105 10.26489258 48.65991211 C5.7143987 53.21869997 1.32249034 57.84030851 -2.86914062 62.73095703 C-5.07176693 65.23983483 -7.53209083 67.4266376 -10.02734375 69.63671875 C-11.81516458 72.05489587 -11.66955681 73.41240859 -11.3125 76.375 C-9.72940955 78.66788505 -9.72940955 78.66788505 -7.45703125 80.76635742 C-6.19572388 82.01741524 -6.19572388 82.01741524 -4.90893555 83.29374695 C-3.99023682 84.18036514 -3.07153809 85.06698334 -2.125 85.98046875 C-0.70099946 87.386417 0.72299651 88.79236992 2.14671326 90.19860554 C4.14268477 92.16390682 6.1498871 94.11754605 8.15710449 96.0713501 C11.67444811 99.49849463 15.17721436 102.9404852 18.67504883 106.38752747 C20.5388632 108.2219756 22.40838874 110.05064152 24.28393555 111.87309265 C25.12480713 112.69767471 25.96567871 113.52225677 26.83203125 114.37182617 C27.57815674 115.09842941 28.32428223 115.82503265 29.09301758 116.57365417 C30.6875 118.375 30.6875 118.375 30.6875 120.375 C16.5814071 126.2023646 16.5814071 126.2023646 9.6875 126.375 C8.49253906 126.42527344 7.29757812 126.47554688 6.06640625 126.52734375 C-12.79743622 127.09305455 -27.98138143 120.94361763 -41.80859375 108.046875 C-53.95630111 95.69578137 -60.23054799 80.1063759 -60.6875 62.8125 C-60.23325482 43.57620392 -51.67083949 26.75362474 -37.9296875 13.51171875 C-26.52610059 4.20162616 -14.64890318 -0.15990313 0 0 Z " fill="#FFFEFD" transform="translate(697.3125,262.625)"/>
<path d="M0 0 C-3.41603338 29.57974358 -23.45656227 54.98555077 -42 77 C-42.95892908 78.15315068 -43.91728166 79.30678107 -44.875 80.4609375 C-50.20724586 86.8568162 -55.72129587 93.05856484 -61.3828125 99.1640625 C-63.78768763 101.76994211 -66.14790507 104.40906907 -68.5 107.0625 C-71.76118772 110.70357518 -75.14866587 114.19057786 -78.625 117.625 C-81.68024196 120.64643569 -84.65292307 123.66511398 -87.4375 126.9375 C-90.45763084 130.46582594 -93.66129906 133.7740573 -96.9375 137.0625 C-97.41566162 137.54517334 -97.89382324 138.02784668 -98.38647461 138.52514648 C-101.05987123 141.18776509 -103.80424743 143.71159728 -106.671875 146.1640625 C-112.16609137 150.92432117 -117.21138184 156.14042739 -122.3125 161.3125 C-124.26401273 163.29067187 -126.21887692 165.26544457 -128.17578125 167.23828125 C-129.03083252 168.10493408 -129.88588379 168.97158691 -130.7668457 169.86450195 C-135.10596625 174.01387196 -135.10596625 174.01387196 -138.31298828 173.96411133 C-141.9864001 172.64607541 -144.30001635 170.29186387 -146.9921875 167.57421875 C-147.54238556 167.03021927 -148.09258362 166.48621979 -148.65945435 165.92573547 C-149.81573074 164.77654504 -150.96691966 163.62221582 -152.11328125 162.46313477 C-153.8744184 160.68808619 -155.65829604 158.93840093 -157.4453125 157.18945312 C-158.56655644 156.06915995 -159.6863986 154.94746169 -160.8046875 153.82421875 C-161.60916824 153.03962532 -161.60916824 153.03962532 -162.42990112 152.23918152 C-166.00051584 148.57619324 -166.00051584 148.57619324 -165.99804688 145.81835938 C-164.92112192 143.85629063 -163.87945131 142.58984299 -162.2265625 141.08203125 C-161.65478271 140.55472412 -161.08300293 140.02741699 -160.49389648 139.48413086 C-159.87716064 138.93249268 -159.2604248 138.38085449 -158.625 137.8125 C-157.99086182 137.23443604 -157.35672363 136.65637207 -156.70336914 136.06079102 C-152.19321954 131.98163773 -147.53550038 128.11775694 -142.7890625 124.31640625 C-138.36265837 120.64013503 -134.19198888 116.69573628 -129.984375 112.7734375 C-125.36646239 108.46894486 -120.59238393 104.35687595 -115.7890625 100.26171875 C-109.24839374 94.68103249 -102.7874215 89.04516526 -96.44921875 83.234375 C-93.67770476 80.70597628 -90.85872997 78.23816 -88.02734375 75.77734375 C-85.66510827 73.70640513 -83.33204147 71.60487152 -81 69.5 C-75.67665307 64.70092208 -70.31136661 59.9592205 -64.84765625 55.3203125 C-58.89486928 50.25906232 -53.01970495 45.1503951 -47.3125 39.8125 C-43.50000456 36.24670888 -39.63965442 32.82899214 -35.5625 29.5625 C-30.54932341 25.54174265 -25.88937128 21.22212935 -21.21582031 16.8190918 C-16.70522427 12.59336894 -12.04776072 8.6511442 -7.20703125 4.8046875 C-5.01750562 3.08741674 -5.01750562 3.08741674 -3.32421875 1.2578125 C-2 0 -2 0 0 0 Z " fill="#FFFDFD" transform="translate(667,419)"/>
<path d="M0 0 C7.32424178 3.41848024 10.80799515 11.76576134 13.8984375 18.93359375 C20.48749171 37.27546452 19.51005589 53.70271103 11.56640625 71.1484375 C7.37336087 79.11626938 -0.42777419 90.01405274 -8.92790222 93.87590027 C-11 94 -11 94 -13.00630188 92.62861633 C-14.06339607 91.57748909 -14.06339607 91.57748909 -15.1418457 90.50512695 C-15.94560135 89.71713211 -16.74935699 88.92913727 -17.57746887 88.11726379 C-18.43491196 87.24969955 -19.29235504 86.38213531 -20.17578125 85.48828125 C-21.06033493 84.6085112 -21.94488861 83.72874115 -22.85624695 82.8223114 C-24.72613995 80.9558263 -26.59013482 79.08507019 -28.4465332 77.20532227 C-30.82848365 74.79488324 -33.23217873 72.40758871 -35.64332294 70.02639484 C-37.93714199 67.75497272 -40.21184046 65.46459987 -42.48828125 63.17578125 C-43.35584549 62.31833817 -44.22340973 61.46089508 -45.11726379 60.57746887 C-45.90525864 59.77371323 -46.69325348 58.96995758 -47.50512695 58.1418457 C-48.20587845 57.43711624 -48.90662994 56.73238678 -49.62861633 56.00630188 C-51 54 -51 54 -51.01239014 52.05638123 C-49.57561123 49.13797551 -47.60526664 47.2473323 -45.29663086 44.95605469 C-44.8088063 44.46779205 -44.32098175 43.97952942 -43.81837463 43.47647095 C-42.20754109 41.86772394 -40.58635007 40.26985803 -38.96484375 38.671875 C-37.84460772 37.55723539 -36.72503311 36.44193066 -35.60609436 35.32598877 C-32.66171882 32.39305828 -29.70844506 29.46924904 -26.75323486 26.54724121 C-23.73827257 23.56298696 -20.73180278 20.57020411 -17.72460938 17.578125 C-11.8246901 11.7103639 -5.91534427 5.85221049 0 0 Z " fill="#FFFEFD" transform="translate(746,284)"/>
<path d="M0 0 C0.99 0.33 1.98 0.66 3 1 C3 1.66 3 2.32 3 3 C3.66 3 4.32 3 5 3 C5 3.66 5 4.32 5 5 C6.32 5.66 7.64 6.32 9 7 C9 7.66 9 8.32 9 9 C9.66 9 10.32 9 11 9 C12.18688006 10.3793471 13.3710978 11.76284003 14.48828125 13.19921875 C16.51894499 15.61817478 18.75225655 17.78015957 21 20 C22.27192389 21.28147057 23.54266359 22.56411712 24.8125 23.84765625 C26.20828174 25.25265542 27.60411622 26.65760221 29 28.0625 C29.69867188 28.76955078 30.39734375 29.47660156 31.1171875 30.20507812 C33.99357663 33.09503513 36.79693041 35.83950099 40 38.37109375 C40.66 38.90863281 41.32 39.44617188 42 40 C42 40.66 42 41.32 42 42 C28.13730938 42.37036676 14.37150193 41.38019121 0.54980469 40.40087891 C-2.09159377 40.21521206 -4.7328359 40.03362948 -7.375 39.85986328 C-11.21685398 39.60604001 -15.05766401 39.33993967 -18.8984375 39.0703125 C-20.08472748 38.99313995 -21.27101746 38.91596741 -22.49325562 38.8364563 C-23.58264435 38.75652435 -24.67203308 38.67659241 -25.79443359 38.59423828 C-26.75433197 38.52761993 -27.71423035 38.46100159 -28.70321655 38.3923645 C-31 38 -31 38 -33 36 C-32.6743827 32.62030865 -31.31342474 30.94503151 -28.94897461 28.60839844 C-28.30838608 27.9680365 -27.66779755 27.32767456 -27.00779724 26.66790771 C-26.31299759 25.98859192 -25.61819794 25.30927612 -24.90234375 24.609375 C-24.19348526 23.90476135 -23.48462677 23.20014771 -22.75428772 22.47418213 C-20.4889672 20.22565215 -18.21343792 17.98777762 -15.9375 15.75 C-14.39970665 14.22725292 -12.86258869 12.70382346 -11.32617188 11.1796875 C-7.55858198 7.4451719 -3.78255735 3.7193515 0 0 Z " fill="#FFFDFD" transform="translate(293,719)"/>
<path d="M0 0 C4.19406961 1.92280443 7.07985411 4.79137788 10.296875 8.03125 C10.89050842 8.62296997 11.48414185 9.21468994 12.09576416 9.82434082 C13.34543718 11.07265581 14.59259992 12.32348823 15.83740234 13.57666016 C17.75007952 15.50007997 19.67323119 17.41256099 21.59765625 19.32421875 C22.81053798 20.53842139 24.02279952 21.75324393 25.234375 22.96875 C25.81241882 23.54274536 26.39046265 24.11674072 26.98602295 24.70812988 C31 28.77006566 31 28.77006566 31 31 C18.6175769 34.24536539 6.14515234 36.96633867 -6.38525391 39.57421875 C-9.65541121 40.2563435 -12.92339275 40.94831123 -16.19140625 41.640625 C-18.28633358 42.07872197 -20.3813814 42.51624327 -22.4765625 42.953125 C-23.44534332 43.15931458 -24.41412415 43.36550415 -25.41226196 43.57794189 C-30.01717529 44.52687518 -34.26805087 45.25844709 -39 45 C-39.68397522 43.234375 -39.68397522 43.234375 -40 41 C-38.84422302 39.140625 -38.84422302 39.140625 -37.05639648 37.25 C-36.40524872 36.55261719 -35.75410095 35.85523438 -35.08322144 35.13671875 C-34.39575836 34.43160156 -33.70829529 33.72648438 -33 33 C-32.36949738 32.34644531 -31.73899475 31.69289063 -31.08938599 31.01953125 C-29.10973174 28.99469326 -27.10757123 26.99478641 -25.09765625 25 C-24.3750914 24.2788501 -23.65252655 23.5577002 -22.9080658 22.81469727 C-20.62857396 20.54074585 -18.3456076 18.27032046 -16.0625 16 C-14.50432494 14.44684765 -12.94638007 12.89346433 -11.38867188 11.33984375 C-7.59510241 7.55722414 -3.79868385 3.7774831 0 0 Z " fill="#FFFCFB" transform="translate(428,506)"/>
<path d="M0 0 C3.92023775 1.91260697 6.76607194 4.0600654 10 7 C10 7.66 10 8.32 10 9 C10.556875 9.226875 11.11375 9.45375 11.6875 9.6875 C14.66159588 11.37550036 16.72008865 13.46676517 19 16 C19 16.66 19 17.32 19 18 C14.77248028 18.96569323 10.54270662 19.92115163 6.3125 20.875 C5.13365234 21.14441406 3.95480469 21.41382813 2.74023438 21.69140625 C-5.13645819 23.46096458 -13.004998 24.88084983 -21 26 C-21.79467773 24.32519531 -21.79467773 24.32519531 -22 22 C-20.09399414 19.52636719 -20.09399414 19.52636719 -17.28515625 16.796875 C-16.79542831 16.3142218 -16.30570038 15.8315686 -15.8011322 15.33428955 C-14.23291773 13.79408365 -12.6482297 12.27214696 -11.0625 10.75 C-9.99691587 9.70949034 -8.93244754 8.66783666 -7.86914062 7.625 C-5.25891489 5.06992774 -2.63363148 2.53096503 0 0 Z " fill="#FFFAF9" transform="translate(467,545)"/>
<path d="M0 0 C2.59807057 1.13665588 3.52251711 2.48288484 5 4.875 C7.24807272 11.61921816 6.76458911 18.0844491 3.625 24.4375 C2.22748126 26.99144506 1.06369359 28.81130641 -1 30.875 C-3.5 30.6875 -3.5 30.6875 -6 29.875 C-8 26.875 -8 26.875 -7.75 25 C-7 22.875 -7 22.875 -5.94921875 20.75390625 C-4.50524523 16.37444747 -4.95158099 12.03772729 -5.16601562 7.49414062 C-5.22265625 5.39453125 -5.22265625 5.39453125 -5 1.875 C-2 -0.125 -2 -0.125 0 0 Z " fill="#FF713E" transform="translate(745,315.125)"/>
</svg>
