<?xml version="1.0" encoding="UTF-8"?>
<svg version="1.1" xmlns="http://www.w3.org/2000/svg" width="300" height="300">
<path d="M0 0 C3.27360525 2.6396324 5.00743827 5.28114582 5.59627342 9.48306274 C5.5974045 10.46012177 5.59853558 11.43718079 5.59970093 12.44384766 C5.6081604 13.57099182 5.61661987 14.69813599 5.62533569 15.85943604 C5.619263 17.08660339 5.61319031 18.31377075 5.60693359 19.578125 C5.61219055 20.87780212 5.61744751 22.17747925 5.62286377 23.51654053 C5.63652075 27.0744036 5.63124555 30.6320052 5.62172651 34.18987274 C5.61412147 37.9164652 5.62117787 41.64303555 5.62588501 45.36962891 C5.63134011 51.62731945 5.62415744 57.88490372 5.60986328 64.14257812 C5.59353717 71.37321554 5.59882586 78.60359916 5.6153425 85.83423042 C5.6289644 92.04669425 5.6308736 98.25908177 5.62302649 104.47155571 C5.61835382 108.1800744 5.61771387 111.88847387 5.62763596 115.59698486 C5.63792543 119.73147569 5.62365677 123.86553024 5.60693359 128 C5.61300629 129.22716736 5.61907898 130.45433472 5.62533569 131.71868896 C5.61687622 132.84583313 5.60841675 133.97297729 5.59970093 135.13427734 C5.59856985 136.11133636 5.59743877 137.08839539 5.59627342 138.09506226 C5.00672337 142.30208066 3.27587474 144.94299243 -0.01171875 147.57421875 C-10.18178645 152.03527807 -24.72504238 148.48007699 -34.78125 144.7890625 C-45.52265415 140.43328575 -53.74065659 134.0196847 -61.78125 125.7890625 C-62.51988281 125.07105469 -63.25851563 124.35304688 -64.01953125 123.61328125 C-75.37079476 111.90935712 -82.10522985 94.98537854 -82.78125 78.7890625 C-82.8328125 77.91378906 -82.884375 77.03851563 -82.9375 76.13671875 C-83.57258449 56.42263758 -77.07677876 38.03178684 -63.76171875 23.390625 C-49.54952643 8.37699327 -21.63761862 -9.42087328 0 0 Z M-42.13671875 37.9765625 C-52.71213444 49.03026332 -57.32744147 61.25826325 -57.02734375 76.38671875 C-55.98220421 90.83618765 -50.19374038 101.83510381 -39.78125 111.7890625 C-34.76102443 115.86515885 -26.53121509 121.7890625 -19.78125 121.7890625 C-19.78125 90.1090625 -19.78125 58.4290625 -19.78125 25.7890625 C-27.64446739 25.7890625 -36.65450086 32.8852822 -42.13671875 37.9765625 Z " fill="#000000" transform="translate(144.78125,126.2109375)"/>
<path d="M0 0 C0.69495575 -0.00540298 1.3899115 -0.01080597 2.10592651 -0.01637268 C4.39267163 -0.02883339 6.67815105 -0.01238837 8.96484375 0.00561523 C10.55997788 0.00546018 12.1551124 0.00397018 13.75024414 0.00120544 C17.0891999 -0.00017735 20.42772547 0.01235897 23.76660156 0.03515625 C28.04056986 0.06354085 32.31382367 0.06080212 36.58784485 0.04806614 C39.88047356 0.04110193 43.17293793 0.04890665 46.46554565 0.06132317 C48.0411618 0.06583047 49.61679562 0.06618077 51.19241333 0.06225777 C53.39687086 0.05933816 55.60035339 0.07588667 57.8046875 0.09765625 C59.05757568 0.10305923 60.31046387 0.10846222 61.60131836 0.11402893 C66.30726543 0.66670623 68.75223082 2.05340663 71.68959045 5.75233459 C73.19667883 9.16898182 73.29002652 11.75866173 73.30639648 15.49169922 C73.31325974 16.1752951 73.32012299 16.85889099 73.32719421 17.5632019 C73.34542577 19.8124496 73.34163016 22.06099733 73.3359375 24.31030273 C73.34050119 25.88062262 73.34580732 27.4509405 73.3518219 29.02125549 C73.36074589 32.30884933 73.35833824 35.59620017 73.34838867 38.88378906 C73.33690162 43.08825294 73.35710925 47.29187661 73.38630581 51.49623013 C73.40468897 54.73827913 73.40437116 57.98012759 73.39866829 61.22221565 C73.39851532 62.7719039 73.40453937 64.32160595 73.41695976 65.87124443 C73.43190851 68.04213393 73.42116671 70.21148158 73.40405273 72.38232422 C73.40388657 73.6152269 73.4037204 74.84812958 73.40354919 76.11839294 C72.65341662 81.18205612 70.5539846 84.18801459 66.57675171 87.35145569 C63.26110941 88.77750158 60.72032339 88.88942681 57.11181641 88.90576172 C56.44933395 88.91262497 55.7868515 88.91948822 55.10429382 88.92655945 C52.9247769 88.94478819 50.7459827 88.94099527 48.56640625 88.93530273 C47.04332242 88.93986712 45.52024066 88.94517346 43.99716187 88.95118713 C40.80791855 88.960111 37.61892572 88.95770431 34.4296875 88.94775391 C30.35534792 88.93627689 26.28187668 88.95645899 22.20765114 88.98567104 C19.06249555 89.00407625 15.91754628 89.00373186 12.77235031 88.99803352 C11.27093667 88.99788077 9.76950864 89.00388689 8.26814651 89.016325 C-6.74979862 89.12320143 -6.74979862 89.12320143 -12.09765625 84.50170898 C-14.768141 80.08720135 -15.47543639 76.8020938 -15.48583984 71.67358398 C-15.4910968 71.01910278 -15.49635376 70.36462158 -15.50177002 69.69030762 C-15.51488881 67.54385959 -15.50626161 65.39816351 -15.49609375 63.25170898 C-15.49811684 61.75007994 -15.50103023 60.24845186 -15.50479126 58.74682617 C-15.50920359 55.60643112 -15.50281902 52.46629283 -15.48876953 49.32592773 C-15.47167802 45.31105102 -15.48152511 41.29677605 -15.49948692 37.28192139 C-15.51035446 34.18314116 -15.50686487 31.08450238 -15.49910355 27.98571777 C-15.49710973 26.50581795 -15.49953192 25.02590507 -15.50654221 23.54602051 C-15.5142061 21.47361489 -15.50248536 19.40216859 -15.48583984 17.32983398 C-15.48345306 16.15324219 -15.48106628 14.97665039 -15.47860718 13.7644043 C-14.9021704 8.8274493 -13.27761995 5.73412497 -9.85375977 2.1580658 C-6.35399933 0.05478774 -4.07182573 0.00054004 0 0 Z M10.90234375 25.50170898 C10.90234375 37.71170898 10.90234375 49.92170898 10.90234375 62.50170898 C23.11234375 62.50170898 35.32234375 62.50170898 47.90234375 62.50170898 C47.90234375 50.29170898 47.90234375 38.08170898 47.90234375 25.50170898 C35.69234375 25.50170898 23.48234375 25.50170898 10.90234375 25.50170898 Z " fill="#000000" transform="translate(77.09765625,24.498291015625)"/>
<path d="M0 0 C1.43665555 1.03531228 2.85462061 2.09719405 4.25 3.1875 C4.86617188 3.66574219 5.48234375 4.14398438 6.1171875 4.63671875 C12.55796726 10.31891779 17.4860731 19.76487469 19.25 28.1875 C20.21702231 44.18300021 18.20561724 55.76599032 7.25 68.1875 C4.40584649 70.78516021 1.46218626 73.06526563 -1.75 75.1875 C-2.5234375 75.70957031 -3.296875 76.23164062 -4.09375 76.76953125 C-14.69150951 82.42686463 -27.12843834 82.08323306 -38.43359375 79.29296875 C-51.11008336 75.06747221 -59.74783545 65.76859955 -65.75 54.1875 C-70.20971237 43.35676996 -69.92113679 30.89868045 -65.4921875 20.12890625 C-59.76987852 8.13003324 -52.09631414 0.13610325 -39.75 -5.25 C-26.20030626 -9.69599326 -11.91352702 -7.44345993 0 0 Z M-36.83203125 23.0703125 C-41.43332563 28.14954173 -43.1277245 31.91799282 -43.02734375 38.77734375 C-42.39499549 44.27253916 -39.82321788 48.52558468 -35.6875 52.125 C-30.55269489 55.73028869 -25.82998447 55.69178666 -19.75 55.1875 C-14.33253827 53.41640674 -10.68672801 50.00373394 -7.75 45.1875 C-5.4539711 39.32632917 -5.20165567 34.08750889 -7.5859375 28.23046875 C-10.13223474 23.76163164 -13.32608413 21.12501457 -18.11328125 19.2734375 C-25.15961491 17.45432181 -31.31028588 18.07691425 -36.83203125 23.0703125 Z " fill="#000000" transform="translate(230.75,31.8125)"/>
</svg>
