<?xml version="1.0" standalone="no"?>
<!DOCTYPE svg PUBLIC "-//W3C//DTD SVG 20010904//EN"
 "http://www.w3.org/TR/2001/REC-SVG-20010904/DTD/svg10.dtd">
<svg version="1.0" xmlns="http://www.w3.org/2000/svg"
 width="500.000000pt" height="500.000000pt" viewBox="0 0 500.000000 500.000000"
 preserveAspectRatio="xMidYMid meet">

<g transform="translate(0.000000,500.000000) scale(0.100000,-0.100000)"
fill="#000000" stroke="none">
<path d="M3911 4729 c-29 -10 -68 -29 -85 -43 -41 -31 -3482 -3472 -3512
-3512 -13 -17 -33 -57 -44 -89 -65 -189 40 -397 231 -456 79 -25 143 -24 226
2 l68 22 1776 1776 1776 1776 22 68 c26 84 27 147 1 230 -22 71 -84 151 -149
191 -91 57 -211 71 -310 35z"/>
<path d="M4277 2750 c-31 -10 -72 -29 -90 -43 -35 -27 -1802 -1791 -1873
-1870 -122 -136 -107 -358 32 -488 52 -48 81 -64 144 -83 96 -29 207 -14 289
39 47 29 1887 1869 1916 1916 91 142 65 333 -61 450 -52 48 -81 64 -144 83
-69 21 -141 19 -213 -4z"/>
</g>
</svg>
