<?xml version="1.0" encoding="UTF-8"?>
<svg version="1.1" xmlns="http://www.w3.org/2000/svg" width="480" height="480">
<path d="M0 0 C4.32889575 3.35580364 7.1479436 8.30711205 8.859375 13.44140625 C8.97821658 15.77410069 9.03647816 18.11000738 9.06469727 20.44555664 C9.07459686 21.15927933 9.08449646 21.87300201 9.09469604 22.60835266 C9.12655301 25.00188855 9.15130016 27.39544055 9.17578125 29.7890625 C9.19646527 31.50996771 9.21746357 33.23086916 9.23875427 34.95176697 C9.28294152 38.61145274 9.32371164 42.2711567 9.36206055 45.9309082 C9.40902677 50.39629016 9.46315226 54.86154177 9.52002907 59.32680702 C9.95641467 94.03087669 9.90589201 128.73533449 9.859375 163.44140625 C10.84998114 163.43864087 11.84058727 163.43587549 12.86121178 163.43302631 C36.98233107 163.36638113 61.10343839 163.31710687 85.22463036 163.28596973 C96.88953298 163.27051122 108.55437473 163.24944105 120.21923828 163.21508789 C130.38819153 163.18515452 140.55710067 163.16582387 150.72609675 163.15914077 C156.10880851 163.1552352 161.49139413 163.14607761 166.8740654 163.12421608 C171.94489644 163.10378878 177.01554987 163.09758508 182.08641815 163.10208321 C183.94311871 163.1012608 185.79982547 163.0953325 187.65649033 163.08378983 C202.14849891 162.99814654 214.46230779 164.12360616 225.83203125 174.1875 C233.92943831 182.74761603 238.68434614 193.78841722 238.921875 205.53125 C238.38102516 219.74545981 232.09218586 229.13946686 223.32226562 239.66796875 C220.98288736 242.50395736 218.74002598 245.41375692 216.484375 248.31640625 C212.54652235 253.34740115 208.53041044 258.30969078 204.484375 263.25390625 C200.01778213 268.71439698 195.67858395 274.25346191 191.421875 279.87890625 C186.4733425 286.41691755 181.33651173 292.76567547 176.09008789 299.06616211 C172.05407086 303.93432454 168.17111954 308.89617747 164.359375 313.94140625 C159.43368316 320.46105677 154.31817024 326.78779784 149.08984375 333.06640625 C145.05395742 337.93452634 141.17105027 342.89626915 137.359375 347.94140625 C132.43368316 354.46105677 127.31817024 360.78779784 122.08984375 367.06640625 C118.05395742 371.93452634 114.17105027 376.89626915 110.359375 381.94140625 C105.43368316 388.46105677 100.31817024 394.78779784 95.08984375 401.06640625 C91.05395742 405.93452634 87.17105027 410.89626915 83.359375 415.94140625 C78.43950888 422.45334583 73.33585406 428.77785687 68.10522461 435.04223633 C63.32970089 440.79058893 58.79130945 446.6984738 54.38476562 452.734375 C50.146502 458.42242475 45.47273049 463.56539414 38.859375 466.44140625 C31.72511438 467.33790725 25.40246259 467.34445708 19.5078125 462.9296875 C14.03001643 457.98409437 11.1790887 453.30038415 10.55639648 445.78442383 C10.52140296 444.38513704 10.49678787 442.98556664 10.48046875 441.5859375 C10.4637915 440.8007222 10.44711426 440.0155069 10.42993164 439.20649719 C10.3762609 436.55572154 10.33644729 433.90492731 10.296875 431.25390625 C10.26180603 429.34031988 10.22605859 427.42674584 10.18969727 425.51318359 C10.08919829 420.05578447 10.00254714 414.59823013 9.91796875 409.14056396 C9.85608638 405.23378839 9.78999557 401.32709446 9.72265625 397.42041016 C9.58667392 389.51581142 9.45712022 381.61112066 9.33116531 373.70635605 C9.28816896 371.02308959 9.24412165 368.3398408 9.19984245 365.65659523 C8.95071325 349.89988182 8.83320235 334.14864627 8.84790039 318.39013672 C8.84882454 316.63606267 8.84966164 314.88198857 8.85041046 313.12791443 C8.85240027 308.89907714 8.85555034 304.67024226 8.859375 300.44140625 C7.39307506 300.44693701 7.39307506 300.44693701 5.8971529 300.4525795 C-17.92457522 300.54150775 -41.74628174 300.60717089 -65.56814098 300.64865494 C-77.08837483 300.66925123 -88.6084988 300.69731571 -100.12866211 300.74316406 C-110.17349124 300.78312166 -120.21824077 300.80886036 -130.26314718 300.81776023 C-135.57837077 300.82295987 -140.89336669 300.83511962 -146.20851707 300.86432648 C-151.21947818 300.89163665 -156.23011953 300.89981989 -161.24114799 300.89383698 C-163.07240796 300.89493027 -164.9036795 300.90279062 -166.73487473 300.91822815 C-180.63047732 301.02954786 -193.35966352 300.31800452 -204.140625 290.44140625 C-205.06294922 289.65443359 -205.06294922 289.65443359 -206.00390625 288.8515625 C-214.37913809 281.2295635 -218.30176061 270.47578637 -219.09765625 259.36328125 C-219.34011049 242.87639272 -209.88174698 231.37459949 -199.79248047 219.41992188 C-197.30135896 216.43617244 -194.9050449 213.38178331 -192.515625 210.31640625 C-192.06856201 209.74535156 -191.62149902 209.17429688 -191.16088867 208.5859375 C-189.81944231 206.87215051 -188.47976513 205.15699573 -187.140625 203.44140625 C-180.81267631 195.33459058 -174.4123121 187.29771377 -167.90673828 179.33251953 C-163.74244594 174.21893169 -159.72079332 169.01426033 -155.72265625 163.76953125 C-152.83415098 160.0143617 -149.83066787 156.35554897 -146.828125 152.69140625 C-142.33911598 147.2108464 -137.97699486 141.65367768 -133.703125 136.00390625 C-128.70545102 129.40316193 -123.52604615 122.98144803 -118.23730469 116.61230469 C-112.74194695 109.98780589 -107.42746568 103.23261657 -102.140625 96.44140625 C-95.8155536 88.33239991 -89.41225232 80.29764057 -82.90673828 72.33251953 C-78.7465625 67.22398667 -74.72875892 62.02454295 -70.734375 56.78515625 C-67.23824324 52.24018496 -63.58680838 47.82107827 -59.95703125 43.3828125 C-56.61456004 39.28533603 -53.34656999 35.14660683 -50.140625 30.94140625 C-44.76196666 23.89562706 -39.19756082 17.00839017 -33.56054688 10.16796875 C-32.35564515 8.70286128 -31.16105824 7.22928048 -29.96875 5.75390625 C-21.94759348 -3.89987505 -11.14382233 -6.0399517 0 0 Z " fill="#31B177" transform="translate(230.140625,8.55859375)"/>
<path d="M0 0 C4.32889575 3.35580364 7.1479436 8.30711205 8.859375 13.44140625 C8.97821658 15.77410069 9.03647816 18.11000738 9.06469727 20.44555664 C9.07459686 21.15927933 9.08449646 21.87300201 9.09469604 22.60835266 C9.12655301 25.00188855 9.15130016 27.39544055 9.17578125 29.7890625 C9.19646527 31.50996771 9.21746357 33.23086916 9.23875427 34.95176697 C9.28294152 38.61145274 9.32371164 42.2711567 9.36206055 45.9309082 C9.4090306 50.39665435 9.46317715 54.86227004 9.52002144 59.32789993 C10.22880334 115.65777459 9.87351177 171.99156667 9.4139933 228.3217923 C9.35141125 236.00619288 9.29195007 243.69061691 9.23261738 251.37504315 C9.11141838 267.0638571 8.98672375 282.75264093 8.859375 298.44140625 C-16.13199061 298.46478319 -41.12335458 298.48240899 -66.11472893 298.49321842 C-77.7190678 298.49837118 -89.32339987 298.50539446 -100.92773438 298.5168457 C-111.04394953 298.52682368 -121.16015976 298.5332671 -131.2763797 298.53549474 C-136.63109645 298.53679656 -141.9857991 298.53984891 -147.34051132 298.54713631 C-152.38503597 298.55394565 -157.42954079 298.55601322 -162.4740696 298.55451393 C-164.32108607 298.55478805 -166.16810325 298.55676392 -168.01511574 298.56061172 C-195.55840939 298.61515586 -195.55840939 298.61515586 -207.390625 287.69140625 C-211.46697821 283.45264853 -213.88844922 278.83381086 -216.140625 273.44140625 C-216.759375 271.98734375 -216.759375 271.98734375 -217.390625 270.50390625 C-220.34346167 258.44648983 -219.04488824 247.70404767 -213.2265625 236.734375 C-209.298842 230.53387242 -204.5188938 225.02020487 -199.79248047 219.41992188 C-197.30135896 216.43617244 -194.9050449 213.38178331 -192.515625 210.31640625 C-192.06856201 209.74535156 -191.62149902 209.17429688 -191.16088867 208.5859375 C-189.81944231 206.87215051 -188.47976513 205.15699573 -187.140625 203.44140625 C-180.81267631 195.33459058 -174.4123121 187.29771377 -167.90673828 179.33251953 C-163.74244594 174.21893169 -159.72079332 169.01426033 -155.72265625 163.76953125 C-152.83415098 160.0143617 -149.83066787 156.35554897 -146.828125 152.69140625 C-142.33911598 147.2108464 -137.97699486 141.65367768 -133.703125 136.00390625 C-128.70545102 129.40316193 -123.52604615 122.98144803 -118.23730469 116.61230469 C-112.74194695 109.98780589 -107.42746568 103.23261657 -102.140625 96.44140625 C-95.8155536 88.33239991 -89.41225232 80.29764057 -82.90673828 72.33251953 C-78.7465625 67.22398667 -74.72875892 62.02454295 -70.734375 56.78515625 C-67.23824324 52.24018496 -63.58680838 47.82107827 -59.95703125 43.3828125 C-56.61456004 39.28533603 -53.34656999 35.14660683 -50.140625 30.94140625 C-44.76196666 23.89562706 -39.19756082 17.00839017 -33.56054688 10.16796875 C-32.35564515 8.70286128 -31.16105824 7.22928048 -29.96875 5.75390625 C-21.94759348 -3.89987505 -11.14382233 -6.0399517 0 0 Z " fill="#3DCE8D" transform="translate(230.140625,8.55859375)"/>
</svg>
