<?xml version="1.0" encoding="UTF-8"?>
<svg version="1.1" xmlns="http://www.w3.org/2000/svg" width="600" height="600">
<path d="M0 0 C198 0 396 0 600 0 C600 198 600 396 600 600 C402 600 204 600 0 600 C0 402 0 204 0 0 Z " fill="#FEFEFE" transform="translate(0,0)"/>
<path d="M0 0 C4.33750066 1.44583355 5.29365098 4.71843499 7.3125 8.5625 C8.20973588 10.22401072 9.10961397 11.88409653 10.01171875 13.54296875 C10.73560791 14.87593994 10.73560791 14.87593994 11.47412109 16.23583984 C14.10388239 20.99970503 16.8678381 25.68409783 19.625 30.375 C24.78467911 39.17701359 29.88462674 48.01133982 34.9375 56.875 C41.96560673 69.20049481 49.04240605 81.49722363 56.14111328 93.78222656 C59.26324605 99.18670645 62.38141204 104.59347412 65.5 110 C66.74998122 112.1666775 67.99998121 114.33334417 69.25 116.5 C116.75 198.83333333 164.25 281.16666667 211.75 363.5 C212.36866943 364.57233887 212.98733887 365.64467773 213.62475586 366.74951172 C214.8756448 368.91776264 216.12645852 371.08605697 217.37719727 373.25439453 C220.48798335 378.64717915 223.60004238 384.03922093 226.71484375 389.4296875 C233.53072903 401.22885559 240.31671955 413.04424122 247.06427002 424.88256836 C252.49970337 434.41612741 258.00385736 443.90733414 263.57250977 453.36376953 C264.11190186 454.28270996 264.65129395 455.20165039 265.20703125 456.1484375 C265.6760083 456.94427246 266.14498535 457.74010742 266.62817383 458.56005859 C268.18093765 461.3218172 269.58307473 464.16614946 271 467 C92.8 467 -85.4 467 -269 467 C-260.49902788 451.41488444 -251.94649458 435.85331806 -242.88842773 420.58325195 C-239.14652161 414.2716483 -235.47567329 407.92007734 -231.8125 401.5625 C-230.85549194 399.90166382 -230.85549194 399.90166382 -229.87915039 398.20727539 C-228.57110523 395.93662932 -227.26324552 393.66587642 -225.95556641 391.39501953 C-222.80667946 385.9283002 -219.65316736 380.46425113 -216.5 375 C-215.2499765 372.83334689 -213.99997653 370.66668021 -212.75 368.5 C-130.25 225.5 -130.25 225.5 -128.37524414 222.25048828 C-127.1243552 220.08223736 -125.87354148 217.91394303 -124.62280273 215.74560547 C-121.51201665 210.35282085 -118.39995762 204.96077907 -115.28515625 199.5703125 C-108.46497363 187.76370516 -101.6767674 175.93973 -94.92263794 164.09527588 C-89.76664555 155.05670572 -84.54679327 146.05722862 -79.28881836 137.07763672 C-74.80810607 129.41397748 -70.39484244 121.71305362 -66 114 C-60.48736165 104.32518781 -54.91575433 94.68717863 -49.2890625 85.078125 C-44.80833615 77.41425822 -40.3951831 69.71307161 -36 62 C-29.33358768 50.30351652 -22.58175201 38.65895446 -15.77929688 27.04101562 C-12.5552732 21.53080173 -9.34084839 16.01498765 -6.125 10.5 C-4.94014285 8.46872744 -3.75525078 6.43747524 -2.5703125 4.40625 C-2.07289551 3.55353516 -1.57547852 2.70082031 -1.06298828 1.82226562 C-0.71220215 1.22091797 -0.36141602 0.61957031 0 0 Z " fill="#000000" transform="translate(299,67)"/>
</svg>
