<?xml version="1.0" encoding="UTF-8"?>
<svg version="1.1" xmlns="http://www.w3.org/2000/svg" width="320" height="320">
<path d="M0 0 C18.48 0 36.96 0 56 0 C56 1.65 56 3.3 56 5 C55 6 55 6 53.09544373 6.12025452 C52.26271439 6.11803391 51.42998505 6.11581329 50.57202148 6.11352539 C49.63112167 6.11344986 48.69022186 6.11337433 47.72080994 6.11329651 C46.69790359 6.10813522 45.67499725 6.10297394 44.62109375 6.09765625 C43.57929459 6.0962413 42.53749542 6.09482635 41.46412659 6.09336853 C38.12188906 6.0877508 34.77971743 6.0751953 31.4375 6.0625 C29.17773534 6.05748728 26.91796963 6.05292398 24.65820312 6.04882812 C19.10542266 6.03862456 13.55278548 6.01905264 8 6 C7.67 15.9 7.34 25.8 7 36 C22.18 36 37.36 36 53 36 C53 37.98 53 39.96 53 42 C37.82 42 22.64 42 7 42 C7.33 53.22 7.66 64.44 8 76 C13.18009766 75.98259766 13.18009766 75.98259766 18.46484375 75.96484375 C21.79418852 75.95705431 25.12353229 75.95097691 28.45288086 75.94506836 C30.77417451 75.94002667 33.09546497 75.93319349 35.41674805 75.92456055 C38.74528795 75.91248775 42.07378602 75.90677021 45.40234375 75.90234375 C46.44712387 75.89718246 47.49190399 75.89202118 48.56834412 75.88670349 C49.52926468 75.88662796 50.49018524 75.88655243 51.48022461 75.88647461 C52.33071884 75.884254 53.18121307 75.88203339 54.05747986 75.87974548 C56 76 56 76 57 77 C57 78.65 57 80.3 57 82 C38.19 82 19.38 82 0 82 C0 54.94 0 27.88 0 0 Z " fill="#000000" transform="translate(83,118)"/>
<path d="M0 0 C0.99 0.33 1.98 0.66 3 1 C2.59386475 1.58152832 2.18772949 2.16305664 1.76928711 2.76220703 C-7.07226251 15.42910545 -15.84741318 28.13724948 -24.53515625 40.91015625 C-27.59400216 45.40727302 -30.66666246 49.89464683 -33.75 54.375 C-34.4004126 55.32016479 -34.4004126 55.32016479 -35.06396484 56.28442383 C-36.37564932 58.18984147 -37.6877739 60.09495534 -39 62 C-40.97974228 64.8746042 -42.95877946 67.74969242 -44.9375 70.625 C-45.38641602 71.27645996 -45.83533203 71.92791992 -46.29785156 72.59912109 C-47.1401163 73.82304699 -47.97714096 75.05060061 -48.80810547 76.28222656 C-49.96211404 77.94539828 -51.20093055 79.54872003 -52.44140625 81.1484375 C-54.28767644 83.8254589 -54.28767644 83.8254589 -53.5859375 86.421875 C-51.46525297 89.8692932 -49.10664398 93.05532583 -46.625 96.25 C-42.08707052 102.18941031 -37.67246237 108.19662689 -33.375 114.3125 C-32.86662598 115.0353418 -32.35825195 115.75818359 -31.83447266 116.50292969 C-29.86043725 119.31799411 -27.90734435 122.13898348 -26 125 C-26.495 126.485 -26.495 126.485 -27 128 C-31.91957713 127.26331205 -34.26460144 126.15925181 -37.359375 122.2109375 C-38.50864788 120.61249465 -39.63799598 118.99959065 -40.75 117.375 C-41.3476416 116.53283936 -41.9452832 115.69067871 -42.56103516 114.82299805 C-44.39414034 112.22873771 -46.19946463 109.61694251 -48 107 C-49.11679061 105.39425514 -50.23396039 103.78877391 -51.3515625 102.18359375 C-53.92536378 98.4719099 -56.47079193 94.74219562 -59 91 C-62.28562335 95.05459902 -65.43443001 99.19898845 -68.5625 103.375 C-69.08481201 104.06601807 -69.60712402 104.75703613 -70.14526367 105.46899414 C-72.83802912 109.04541834 -75.46580574 112.64609724 -77.984375 116.34765625 C-78.46060303 117.0348877 -78.93683105 117.72211914 -79.42749023 118.43017578 C-80.33000111 119.73820406 -81.2159265 121.05788169 -82.08227539 122.39013672 C-84.4820903 125.83398128 -85.66936105 126.92130861 -89.82421875 127.91015625 C-91.39623047 127.95462891 -91.39623047 127.95462891 -93 128 C-92.58533536 122.73072494 -89.71146163 119.56143469 -86.5625 115.5625 C-85.46737195 114.13908 -84.37364671 112.71457974 -83.28125 111.2890625 C-82.73082031 110.57395508 -82.18039063 109.85884766 -81.61328125 109.12207031 C-79.19534145 105.94157202 -76.872252 102.69703988 -74.5625 99.4375 C-73.80066406 98.36371094 -73.03882813 97.28992188 -72.25390625 96.18359375 C-71.51011719 95.13300781 -70.76632813 94.08242187 -70 93 C-69.51644043 92.41234863 -69.03288086 91.82469727 -68.53466797 91.21923828 C-66.87547754 89.21829509 -66.87547754 89.21829509 -65 86 C-65.67532303 81.28774597 -69.61273397 77.06645571 -72.375 73.25 C-72.89795654 72.51571777 -73.42091309 71.78143555 -73.9597168 71.02490234 C-76.77961953 67.06804374 -79.63010624 63.13450571 -82.49609375 59.2109375 C-83.05184082 58.44233398 -83.60758789 57.67373047 -84.18017578 56.88183594 C-85.25425635 55.39682236 -86.33706729 53.91807785 -87.42919922 52.44628906 C-87.91275879 51.7756543 -88.39631836 51.10501953 -88.89453125 50.4140625 C-89.54192261 49.53161865 -89.54192261 49.53161865 -90.20239258 48.63134766 C-91 47 -91 47 -90 44 C-85.18658258 44.75077203 -82.81598326 45.72999525 -79.82421875 49.640625 C-78.75984404 51.16411882 -77.71506107 52.7014377 -76.6875 54.25 C-76.13425049 55.05034668 -75.58100098 55.85069336 -75.01098633 56.67529297 C-73.87919508 58.31286817 -72.75441199 59.95530933 -71.63671875 61.60253906 C-69.21292672 65.15290269 -66.69980619 68.63703647 -64.1875 72.125 C-63.36775902 73.27291615 -62.54866981 74.42129823 -61.73046875 75.5703125 C-61.15941406 76.37210937 -60.58835938 77.17390625 -60 78 C-55.59380285 73.89570895 -52.21462434 69.34807208 -48.75 64.4375 C-47.58799389 62.81065888 -46.42523272 61.1843568 -45.26171875 59.55859375 C-44.7001709 58.77210449 -44.13862305 57.98561523 -43.56005859 57.17529297 C-34.73957997 44.87631573 -25.32277262 32.99124662 -15.9375 21.12109375 C-10.45871573 14.1906977 -5.12671198 7.19796238 0 0 Z " fill="#000000" transform="translate(234,73)"/>
<path d="M0 0 C7 0 7 0 8.9699707 1.703125 C9.51226318 2.54359375 10.05455566 3.3840625 10.61328125 4.25 C11.28568848 5.26191406 11.9580957 6.27382812 12.65087891 7.31640625 C13.02102112 7.89793457 13.39116333 8.47946289 13.77252197 9.07861328 C15.11729171 11.18359818 16.4977329 13.26214753 17.88427734 15.33984375 C20.72379544 19.60523753 23.53481087 23.88871792 26.3399353 28.17678833 C37.16716582 44.72157488 48.11194641 61.18299746 59.1875 77.5625 C60.40299722 79.36075683 61.61849203 81.15901527 62.83398438 82.95727539 C64.58786833 85.55178937 66.34182615 88.14625319 68.09606934 90.74052429 C72.92292181 97.88061593 77.73548016 105.03012216 82.52359009 112.19625854 C83.64780005 113.87810777 84.77441791 115.55834671 85.90112305 117.23852539 C86.55636963 118.22071045 87.21161621 119.20289551 87.88671875 120.21484375 C88.72529419 121.46962524 88.72529419 121.46962524 89.58081055 122.74975586 C90.86567071 124.78700962 91.9700457 126.82488887 93 129 C92.01 129 91.02 129 90 129 C88.46388737 127.13851932 87.14401692 125.31513665 85.8125 123.3125 C81.45240473 116.97806882 76.8764577 110.8445848 72.1875 104.75 C62.85155674 92.56522515 53.70064317 80.25882107 45.26953125 67.42578125 C42.17317588 62.72530747 38.98596135 58.08607373 35.8125 53.4375 C35.16676025 52.49116699 34.52102051 51.54483398 33.85571289 50.56982422 C30.71512923 45.96956564 27.5707484 41.37193182 24.421875 36.77734375 C23.8549292 35.94984619 23.2879834 35.12234863 22.70385742 34.26977539 C21.65790146 32.74370339 20.61126212 31.21809937 19.5637207 29.69311523 C15.31706087 23.49886153 11.16722442 17.25083663 7 11 C6.67 34.43 6.34 57.86 6 82 C4.02 82 2.04 82 0 82 C0 54.94 0 27.88 0 0 Z " fill="#000000" transform="translate(16,118)"/>
<path d="M0 0 C21.12 0 42.24 0 64 0 C64 1.65 64 3.3 64 5 C55.64669061 9.1766547 45.33928382 6 36 6 C35.67 31.08 35.34 56.16 35 82 C33.02 82 31.04 82 29 82 C28.67 56.92 28.34 31.84 28 6 C19.09 6 10.18 6 1 6 C0.67 5.67 0.34 5.34 0 5 C0 3.35 0 1.7 0 0 Z " fill="#000000" transform="translate(209,118)"/>
<path d="M0 0 C2.375 1.25 2.375 1.25 4 3 C4 4.32 4 5.64 4 7 C2.68 7 1.36 7 0 7 C-0.33 6.34 -0.66 5.68 -1 5 C-1.99 5 -2.98 5 -4 5 C-4.33 5.66 -4.66 6.32 -5 7 C-4.43410156 7.13277344 -3.86820312 7.26554688 -3.28515625 7.40234375 C-2.55167969 7.57894531 -1.81820313 7.75554687 -1.0625 7.9375 C-0.33160156 8.11152344 0.39929688 8.28554687 1.15234375 8.46484375 C3 9 3 9 4 10 C4.37086093 15.8410596 4.37086093 15.8410596 4 18 C0.28986601 20.47342266 -1.61060262 20.38503486 -6 20 C-8.4375 18.75 -8.4375 18.75 -10 17 C-10 15.68 -10 14.36 -10 13 C-8.68 13 -7.36 13 -6 13 C-5.67 13.66 -5.34 14.32 -5 15 C-3.68 15 -2.36 15 -1 15 C-0.67 14.34 -0.34 13.68 0 13 C-2.97 12.01 -5.94 11.02 -9 10 C-9.75 7.25 -9.75 7.25 -10 4 C-7.28051212 -0.13362158 -4.78982631 -0.69851634 0 0 Z " fill="#000000" transform="translate(300,175)"/>
<path d="M0 0 C2.0625 0.4375 2.0625 0.4375 4 1 C4.08117951 3.41734542 4.14056926 5.83194949 4.1875 8.25 C4.22520508 9.27287109 4.22520508 9.27287109 4.26367188 10.31640625 C4.3095557 13.46709545 4.18183434 15.66207778 2.67578125 18.4609375 C1 20 1 20 -2 20.375 C-5 20 -5 20 -8 18 C-8.6875 15.875 -8.6875 15.875 -9 14 C-7.68 13.67 -6.36 13.34 -5 13 C-4.67 13.99 -4.34 14.98 -4 16 C-3.01 16 -2.02 16 -1 16 C-1.01160156 14.92878906 -1.02320313 13.85757813 -1.03515625 12.75390625 C-1.04453299 11.35677257 -1.05363331 9.95963701 -1.0625 8.5625 C-1.07506836 7.50192383 -1.07506836 7.50192383 -1.08789062 6.41992188 C-1.09653588 4.61306441 -1.05220011 2.80612397 -1 1 C-0.67 0.67 -0.34 0.34 0 0 Z " fill="#000000" transform="translate(284,175)"/>
<path d="M0 0 C2.475 0.495 2.475 0.495 5 1 C4.67 2.32 4.34 3.64 4 5 C2.68 4.67 1.36 4.34 0 4 C0 2.68 0 1.36 0 0 Z " fill="#000000" transform="translate(269,190)"/>
</svg>
