<svg version="1.1" id="Layer_1" xmlns="http://www.w3.org/2000/svg" xmlns:xlink="http://www.w3.org/1999/xlink" x="0px" y="0px"
	 width="100%" viewBox="0 0 500 500" enable-background="new 0 0 500 500" xml:space="preserve">
<path fill="#FFFFFF" opacity="1.000000" stroke="none" 
	d="
M227.000000,501.000000 
	C151.333359,501.000000 76.166702,501.000000 1.000040,501.000000 
	C1.000027,334.333405 1.000027,167.666779 1.000013,1.000130 
	C167.666565,1.000087 334.333130,1.000087 500.999756,1.000043 
	C500.999847,167.666534 500.999847,334.333069 500.999939,500.999817 
	C409.833344,501.000000 318.666656,501.000000 227.000000,501.000000 
M225.917847,355.462708 
	C238.372620,347.368469 247.389709,336.185852 254.726837,323.475128 
	C273.525970,290.907837 292.343597,258.351196 311.167236,225.798050 
	C312.022156,224.319595 313.008240,222.916977 314.246674,220.991760 
	C335.821045,257.875549 356.946747,293.992249 378.498169,330.836823 
	C375.917511,330.836823 374.308167,330.836823 372.698822,330.836823 
	C351.534119,330.836823 330.319885,331.706085 309.223572,330.504974 
	C296.925751,329.804749 289.472870,333.018921 284.906006,344.726166 
	C281.815338,352.649048 276.743347,359.799042 272.332092,367.698456 
	C273.609375,367.931915 274.208191,368.137085 274.807068,368.137177 
	C317.302948,368.144806 359.802155,368.440765 402.293030,367.976074 
	C418.892212,367.794556 433.271790,350.606232 422.635803,332.394531 
	C393.601929,282.680695 364.756409,232.856689 335.664490,183.176910 
	C325.702850,166.165543 303.722595,166.299377 293.697571,183.227615 
	C287.254242,194.107742 281.026947,205.115677 274.677887,216.051834 
	C273.885559,217.416565 272.940125,218.692383 271.795502,220.416260 
	C268.944458,215.614426 266.413361,211.340668 263.872009,207.073044 
	C251.271561,185.913559 238.685516,164.745438 226.052292,143.605545 
	C223.406525,139.178238 219.930496,135.878616 214.516006,134.893738 
	C200.170670,132.284409 192.349197,135.787155 184.955673,148.474594 
	C176.074875,163.714203 167.211655,178.964035 158.347580,194.213379 
	C131.839661,239.816376 105.075165,285.273193 78.958168,331.098999 
	C68.635193,349.212067 78.599609,367.340515 98.732780,367.922943 
	C127.870300,368.765839 157.056885,368.327850 186.214264,367.888550 
	C200.235794,367.677277 213.432861,363.612671 225.917847,355.462708 
z"/>
<path fill="#01DC83" opacity="1.000000" stroke="none" 
	d="
M225.623016,355.674988 
	C213.432861,363.612671 200.235794,367.677277 186.214264,367.888550 
	C157.056885,368.327850 127.870300,368.765839 98.732780,367.922943 
	C78.599609,367.340515 68.635193,349.212067 78.958168,331.098999 
	C105.075165,285.273193 131.839661,239.816376 158.347580,194.213379 
	C167.211655,178.964035 176.074875,163.714203 184.955673,148.474594 
	C192.349197,135.787155 200.170670,132.284409 214.516006,134.893738 
	C219.930496,135.878616 223.406525,139.178238 226.052292,143.605545 
	C238.685516,164.745438 251.271561,185.913559 263.872009,207.073044 
	C266.413361,211.340668 268.944458,215.614426 271.795502,220.416260 
	C272.940125,218.692383 273.885559,217.416565 274.677887,216.051834 
	C281.026947,205.115677 287.254242,194.107742 293.697571,183.227615 
	C303.722595,166.299377 325.702850,166.165543 335.664490,183.176910 
	C364.756409,232.856689 393.601929,282.680695 422.635803,332.394531 
	C433.271790,350.606232 418.892212,367.794556 402.293030,367.976074 
	C359.802155,368.440765 317.302948,368.144806 274.807068,368.137177 
	C274.208191,368.137085 273.609375,367.931915 272.332092,367.698456 
	C276.743347,359.799042 281.815338,352.649048 284.906006,344.726166 
	C289.472870,333.018921 296.925751,329.804749 309.223572,330.504974 
	C330.319885,331.706085 351.534119,330.836823 372.698822,330.836823 
	C374.308167,330.836823 375.917511,330.836823 378.498169,330.836823 
	C356.946747,293.992249 335.821045,257.875549 314.246674,220.991760 
	C313.008240,222.916977 312.022156,224.319595 311.167236,225.798050 
	C292.343597,258.351196 273.525970,290.907837 254.726837,323.475128 
	C247.389709,336.185852 238.372620,347.368469 225.623016,355.674988 
M198.498108,198.977676 
	C173.193054,242.658218 147.888016,286.338745 122.107368,330.840240 
	C124.876976,330.840240 126.491776,330.840240 128.106567,330.840240 
	C145.271530,330.840210 162.437286,330.737061 179.601257,330.867645 
	C198.828781,331.013947 213.205063,322.916687 222.737457,306.188568 
	C231.469406,290.865082 240.194748,275.536896 249.090195,260.308472 
	C250.561768,257.789276 250.401367,255.987137 248.975266,253.579529 
	C235.915894,231.531845 222.976761,209.412933 209.985031,187.325119 
	C209.291901,186.146713 208.441696,185.060699 207.420715,183.577301 
	C204.371246,188.858505 201.629410,193.606934 198.498108,198.977676 
z"/>
<path fill="#FDFFFE" opacity="1.000000" stroke="none" 
	d="
M198.692841,198.666519 
	C201.629410,193.606934 204.371246,188.858505 207.420715,183.577301 
	C208.441696,185.060699 209.291901,186.146713 209.985031,187.325119 
	C222.976761,209.412933 235.915894,231.531845 248.975266,253.579529 
	C250.401367,255.987137 250.561768,257.789276 249.090195,260.308472 
	C240.194748,275.536896 231.469406,290.865082 222.737457,306.188568 
	C213.205063,322.916687 198.828781,331.013947 179.601257,330.867645 
	C162.437286,330.737061 145.271530,330.840210 128.106567,330.840240 
	C126.491776,330.840240 124.876976,330.840240 122.107368,330.840240 
	C147.888016,286.338745 173.193054,242.658218 198.692841,198.666519 
z"/>
</svg>