<?xml version="1.0" standalone="no"?>
<!DOCTYPE svg PUBLIC "-//W3C//DTD SVG 20010904//EN"
 "http://www.w3.org/TR/2001/REC-SVG-20010904/DTD/svg10.dtd">
<svg version="1.0" xmlns="http://www.w3.org/2000/svg"
 width="540.000000pt" height="557.000000pt" viewBox="0 0 540.000000 557.000000"
 preserveAspectRatio="xMidYMid meet">

<g transform="translate(0.000000,557.000000) scale(0.100000,-0.100000)"
fill="#000000" stroke="none">
<path d="M3665 5559 c-92 -10 -362 -61 -404 -77 -15 -5 -58 -3 -115 6 -59 10
-168 15 -311 16 -193 0 -233 -3 -324 -22 -113 -25 -259 -78 -330 -119 l-44
-25 -101 31 c-271 82 -518 122 -769 121 -267 0 -449 -36 -634 -125 -317 -154
-512 -429 -596 -840 -19 -96 -22 -141 -22 -360 0 -230 2 -263 28 -410 101
-568 269 -1172 439 -1570 217 -510 456 -757 733 -758 102 -1 186 23 268 77
l64 42 44 -38 c110 -94 272 -146 484 -155 140 -6 260 10 358 47 28 11 52 18
54 16 1 -1 7 -103 13 -227 17 -366 35 -489 100 -683 54 -162 102 -248 185
-332 116 -118 247 -169 435 -167 176 2 417 67 559 152 303 180 455 551 486
1181 3 69 8 148 11 176 l5 51 152 6 c175 7 295 26 419 67 233 78 450 238 518
382 68 144 19 300 -116 367 -68 34 -161 38 -315 13 -163 -27 -229 -34 -229
-26 0 4 27 55 59 113 269 478 493 1086 570 1551 62 373 49 624 -44 817 -38 77
-61 108 -151 202 -258 269 -541 417 -929 486 -109 20 -424 28 -550 14z m568
-168 c302 -60 551 -188 752 -386 109 -107 162 -180 190 -262 158 -453 -153
-1556 -669 -2378 -30 -48 -53 -92 -50 -96 3 -5 31 -16 62 -26 78 -23 253 -20
405 6 66 12 148 21 184 21 61 0 67 -2 99 -34 81 -81 23 -195 -166 -323 -174
-118 -387 -176 -645 -176 -77 0 -159 4 -183 10 -32 8 -44 8 -46 0 -2 -7 -25
-185 -50 -397 -59 -478 -77 -589 -117 -713 -84 -262 -257 -399 -591 -468 -127
-26 -270 -22 -362 10 -138 49 -239 146 -316 304 -54 112 -72 187 -90 366 -9
97 -29 617 -30 789 l0 53 -53 -40 c-62 -48 -157 -92 -248 -117 -85 -24 -293
-24 -398 0 -153 34 -261 108 -276 189 -19 101 55 156 278 208 181 43 222 64
292 149 31 38 54 74 50 80 -3 5 -23 10 -43 10 -44 0 -126 21 -199 51 -53 21
-54 21 -75 3 -29 -27 -236 -258 -351 -394 -168 -197 -247 -246 -387 -238 -101
6 -163 39 -261 137 -93 94 -160 195 -249 376 -170 347 -334 870 -449 1433 -59
285 -81 454 -81 619 0 401 93 691 288 896 313 328 890 387 1600 162 l109 -35
77 44 c91 52 229 99 350 121 153 26 448 15 601 -24 20 -5 54 0 107 15 94 28
209 51 336 69 146 21 465 13 605 -14z"/>
<path d="M3695 5254 c-101 -14 -181 -27 -187 -31 -4 -2 27 -22 70 -45 325
-171 595 -454 776 -814 30 -60 67 -145 82 -189 25 -73 27 -91 25 -205 -1 -69
-10 -183 -21 -255 -30 -214 -32 -269 -15 -430 46 -426 35 -576 -54 -760 -29
-59 -35 -78 -25 -86 10 -8 19 -1 37 28 182 288 393 746 507 1098 169 524 214
983 116 1174 -26 49 -170 196 -257 261 -91 67 -243 147 -353 185 -149 51 -254
66 -471 70 -110 2 -213 1 -230 -1z"/>
<path d="M2570 5181 c-98 -21 -200 -60 -280 -107 -275 -162 -467 -507 -535
-961 -18 -126 -19 -147 -2 -140 232 102 350 132 496 125 122 -6 192 -32 264
-98 95 -86 131 -181 167 -433 51 -358 28 -594 -80 -852 -60 -142 -146 -365
-154 -397 -6 -28 -6 -28 41 -28 63 0 158 -45 202 -95 19 -22 45 -64 59 -95
l26 -55 2 -450 c2 -458 12 -695 40 -865 28 -179 125 -329 249 -387 55 -26 70
-28 175 -28 137 0 242 24 365 85 185 90 247 206 300 560 51 347 115 889 115
982 1 169 65 283 188 335 l42 18 -65 85 c-88 116 -379 668 -458 870 -188 479
-108 777 233 861 32 8 110 14 187 14 73 0 133 3 133 7 0 4 -15 40 -32 80 -189
425 -515 747 -908 897 -76 30 -230 68 -323 80 -122 17 -348 13 -447 -8z"/>
<path d="M1038 5175 c-408 -67 -639 -314 -704 -756 -24 -166 -16 -435 20 -634
165 -923 478 -1773 727 -1978 54 -43 87 -57 140 -57 78 0 119 33 295 240 49
58 138 159 197 224 l108 119 -39 41 c-106 110 -178 243 -213 393 -19 81 -21
112 -16 221 4 70 11 174 17 232 8 69 9 206 5 400 -5 238 -3 321 9 429 47 399
183 743 375 953 28 31 48 59 43 62 -20 12 -287 77 -397 97 -157 27 -443 35
-567 14z"/>
<path d="M4030 3959 c-104 -15 -178 -59 -217 -130 -25 -48 -25 -235 1 -334 32
-121 113 -314 211 -500 52 -99 119 -226 147 -282 29 -57 55 -103 58 -103 8 0
27 54 44 130 21 86 20 274 -1 430 -23 176 -21 401 6 570 11 74 21 153 21 176
l0 41 -61 7 c-75 7 -136 6 -209 -5z m100 -72 c81 -41 -33 -173 -133 -153 -49
10 -97 52 -97 86 0 23 7 33 32 46 68 35 152 44 198 21z"/>
<path d="M2070 3920 c-94 -24 -204 -69 -279 -115 l-58 -34 5 -228 c3 -139 0
-275 -8 -348 -22 -221 -23 -305 -6 -385 54 -256 257 -450 507 -484 l46 -7 38
113 c21 62 67 181 102 263 77 178 111 301 123 450 8 100 0 289 -16 384 -44
267 -73 336 -158 380 -66 34 -190 39 -296 11z m296 -88 c62 -32 71 -72 27
-114 -40 -36 -66 -48 -110 -48 -74 0 -153 67 -153 130 0 61 143 80 236 32z"/>
<path d="M4280 2132 c-58 -23 -86 -65 -95 -143 -9 -73 -8 -73 90 -90 128 -21
366 5 504 57 69 26 175 86 226 127 l30 25 -70 -14 c-39 -8 -141 -17 -227 -21
-180 -7 -252 3 -342 48 -68 34 -59 33 -116 11z"/>
<path d="M2439 2107 c-15 -12 -59 -61 -98 -109 -114 -139 -162 -166 -383 -219
-76 -18 -138 -37 -138 -41 0 -13 67 -37 152 -53 215 -41 399 6 542 137 82 75
111 131 97 186 -13 48 -43 87 -81 107 -40 21 -61 19 -91 -8z"/>
</g>
</svg>
