<?xml version="1.0" encoding="UTF-8"?>
<svg version="1.1" xmlns="http://www.w3.org/2000/svg" width="600" height="600">
<path d="M0 0 C198 0 396 0 600 0 C600 198 600 396 600 600 C402 600 204 600 0 600 C0 402 0 204 0 0 Z " fill="#FEFEFE" transform="translate(0,0)"/>
<path d="M0 0 C0.91483154 0.00043304 1.82966309 0.00086609 2.7722168 0.00131226 C16.79896745 0.03759467 29.77070615 1.15619722 43.1875 5.5 C44.94443621 6.0250765 46.70226968 6.54715901 48.4609375 7.06640625 C71.44909696 13.88627359 93.22073923 28.76562509 108.1875 47.5 C108.79722656 48.26054688 109.40695312 49.02109375 110.03515625 49.8046875 C119.96041947 62.9962263 120.41687562 77.39143501 120.4375 93.3125 C120.43917175 93.99542114 120.44084351 94.67834229 120.44256592 95.38195801 C120.44414448 106.18120601 119.71460201 116.64848604 117.62084961 127.26025391 C117.30984398 128.86767118 117.02457221 130.48014848 116.75610352 132.09521484 C115.63009658 138.79664779 113.92809147 145.15225955 111.875 151.625 C111.24526545 153.64557537 110.61636553 155.66641104 109.98828125 157.6875 C109.68100098 158.67234375 109.3737207 159.6571875 109.05712891 160.671875 C108.27602056 163.21212179 107.52398093 165.75746408 106.79296875 168.3125 C106.58260986 169.04710449 106.37225098 169.78170898 106.15551758 170.53857422 C105.60802234 172.46483783 105.06550346 174.392514 104.5234375 176.3203125 C95.69761226 205.34144382 81.54514432 233.45027533 66.1875 259.5 C68.93781693 259.02259783 71.68775 258.54314736 74.4375 258.0625 C75.21480469 257.92779297 75.99210937 257.79308594 76.79296875 257.65429688 C77.92412109 257.45610352 77.92412109 257.45610352 79.078125 257.25390625 C79.76938477 257.13345947 80.46064453 257.0130127 81.17285156 256.88891602 C82.51455544 256.62990798 83.84805076 256.32399424 85.16845703 255.97216797 C93.68261624 253.98106955 105.52940706 253.72102163 113.1875 258.125 C117.76985214 261.54358017 120.37062231 265.04936694 122.1875 270.5 C123.18615488 280.67201325 121.77022679 287.75921914 115.37890625 295.765625 C108.99714918 302.66612603 101.1495603 307.62586983 93.1875 312.5 C92.35605469 313.01691406 91.52460938 313.53382813 90.66796875 314.06640625 C76.39538844 322.04005445 59.18506488 323.68161131 43.1875 323.5625 C41.45306641 323.55573242 41.45306641 323.55573242 39.68359375 323.54882812 C36.85150775 323.53712529 34.01953189 323.52072996 31.1875 323.5 C31.22230469 325.24796875 31.22230469 325.24796875 31.2578125 327.03125 C31.71076986 360.18978741 29.55024959 402.09765256 5.1875 427.5 C4.46175781 428.26570313 3.73601562 429.03140625 2.98828125 429.8203125 C-12.55939034 444.98250463 -34.33711675 450.95245383 -55.625 451.125 C-56.59622803 451.13595703 -57.56745605 451.14691406 -58.56811523 451.15820312 C-69.7955323 450.93320867 -80.60724641 446.04321026 -88.97265625 438.5703125 C-113.66112487 412.59747268 -113.11608974 369.97427141 -112.8125 336.5 C-113.65425781 336.8609375 -114.49601563 337.221875 -115.36328125 337.59375 C-124.48919956 341.13242284 -132.9768348 341.9693582 -142.75 341.9375 C-144.47246948 341.93363281 -144.47246948 341.93363281 -146.22973633 341.9296875 C-152.67647293 341.81726893 -158.59455312 341.19848516 -164.8125 339.5 C-165.70839844 339.28859375 -166.60429687 339.0771875 -167.52734375 338.859375 C-174.40170735 336.97466371 -181.41143854 334.00633241 -186.453125 328.80859375 C-187.12601563 328.16083984 -187.12601563 328.16083984 -187.8125 327.5 C-191.13051008 327.58967595 -192.77270468 328.47223582 -195.5 330.375 C-204.12925006 335.91074532 -214.7633107 337.2800758 -224.8125 335.5 C-243.5313549 330.08368491 -255.56923563 313.88642502 -264.56640625 297.5703125 C-267.42594183 292.26810459 -270.15122799 286.90411964 -272.8125 281.5 C-273.31910156 280.47398682 -273.31910156 280.47398682 -273.8359375 279.42724609 C-279.26321739 268.2392797 -282.96708893 256.43307865 -286.796875 244.625 C-287.94316801 241.09289593 -289.12338794 237.59454453 -290.45703125 234.12890625 C-291.77852245 230.59096584 -292.80683246 227.0927802 -293.75 223.4375 C-294.09354144 222.11583119 -294.43729724 220.79421808 -294.78125 219.47265625 C-294.95269531 218.8089502 -295.12414062 218.14524414 -295.30078125 217.46142578 C-296.09269708 214.4260003 -296.92600517 211.40185197 -297.75 208.375 C-299.62442952 201.3624284 -301.30892235 194.31118641 -302.95458984 187.24169922 C-304.11880052 182.27434068 -305.41792679 177.39119478 -306.875 172.5 C-309.92167537 161.42793585 -310.971508 149.86330868 -312.39526367 138.49169922 C-312.75937831 135.58258771 -312.75937831 135.58258771 -313.35400391 133.08422852 C-313.95961288 129.67082544 -313.97494347 126.30265546 -313.98046875 122.84765625 C-313.98546135 121.74278114 -313.98546135 121.74278114 -313.99055481 120.61558533 C-313.99560527 119.056474 -313.99796372 117.49735192 -313.99780273 115.93823242 C-313.9999642 113.60120733 -314.01806966 111.26467451 -314.03710938 108.92773438 C-314.08625965 96.34626601 -313.14095259 84.15753718 -309.1875 72.125 C-308.92952637 71.329729 -308.67155273 70.53445801 -308.40576172 69.71508789 C-303.43317813 54.97482463 -296.31518683 42.18106635 -284.8125 31.5 C-284.10609375 30.81164062 -283.3996875 30.12328125 -282.671875 29.4140625 C-276.84936429 23.90281809 -271.02588571 19.96756227 -263.8125 16.5 C-262.75675781 15.96632813 -262.75675781 15.96632813 -261.6796875 15.421875 C-256.97601419 13.16840414 -252.06809344 11.46019781 -247.125 9.8125 C-245.26294922 9.18794922 -245.26294922 9.18794922 -243.36328125 8.55078125 C-217.50896571 1.57168371 -182.94711648 5.25171754 -157.8125 13.5 C-155.37891369 14.26402947 -152.94086322 15.00917175 -150.5 15.75 C-149.34886719 16.10578125 -148.19773438 16.4615625 -147.01171875 16.828125 C-140.9649965 18.0980105 -136.6119806 15.63053822 -131.1875 13.125 C-109.06702409 3.24835764 -84.88723231 2.68500479 -61.1640625 6.04296875 C-55.22099186 6.85338747 -50.28322486 7.16440815 -44.60620117 5.08398438 C-40.12423885 3.54249278 -35.72959546 2.56527242 -31.05078125 1.84375 C-30.23724686 1.71802612 -29.42371246 1.59230225 -28.58552551 1.46276855 C-19.07302824 0.10588992 -9.59395347 -0.04572603 0 0 Z " fill="#F8F9FA" transform="translate(395.8125,74.5)"/>
<path d="M0 0 C0.83789062 0.38027344 1.67578125 0.76054688 2.5390625 1.15234375 C31.45717902 14.78517011 54.63538431 43.51046667 66 73 C66 73.99 66 74.98 66 76 C64.75295288 76.05945801 64.75295288 76.05945801 63.48071289 76.12011719 C60.35428809 76.277646 57.22923529 76.45105357 54.10424805 76.63476562 C52.1033439 76.74769481 50.10145837 76.84278462 48.09960938 76.9375 C36.37590462 77.64623782 28.08787808 80.25188698 20 89 C18.3540617 91.29063816 17.23675964 93.43134536 16 96 C15.64292969 96.71929687 15.28585937 97.43859375 14.91796875 98.1796875 C13.68958465 101.95370162 13.65859988 105.57288613 13.6875 109.5 C13.69595947 110.70366211 13.69595947 110.70366211 13.70458984 111.93164062 C13.84617042 118.94618716 14.96556644 125.27615781 17 132 C17.51626953 133.87171875 17.51626953 133.87171875 18.04296875 135.78125 C23.72206609 155.19653454 33.74777609 173.95437396 43.921875 191.3671875 C45.45420079 194.00005468 46.88018308 196.66975375 48.265625 199.3828125 C52.14101917 206.96928478 55.87710349 213.75374982 61.6640625 220.1171875 C62.10492188 220.73851562 62.54578125 221.35984375 63 222 C62 225 62 225 60.328125 225.95703125 C59.64234375 226.23933594 58.9565625 226.52164063 58.25 226.8125 C52.30876426 229.61837878 49.12348916 233.94202681 46.62231445 239.97631836 C45.47035143 243.72234483 45.57258443 247.48592915 45.5 251.375 C45.28549162 259.17419051 44.66075917 266.83965833 43.6796875 274.578125 C43.48081436 276.18670883 43.48081436 276.18670883 43.27792358 277.82778931 C42.85684518 281.2191584 42.42871945 284.60958927 42 288 C41.72613918 290.19546306 41.45237524 292.39093821 41.17871094 294.58642578 C40.49000499 300.07976807 39.77933329 305.56998507 39.05761719 311.05908203 C38.76788691 313.27980247 38.48309924 315.50117304 38.203125 317.72314453 C36.8065734 328.79049269 35.33295596 339.77632981 32.5859375 350.6015625 C32.31228867 351.71257828 32.31228867 351.71257828 32.03311157 352.84603882 C29.86004956 360.79926009 24.89862869 369.80089555 17.89453125 374.375 C15.6237026 375.65305432 13.33592111 376.84546428 11 378 C10.05640625 378.49757813 9.1128125 378.99515625 8.140625 379.5078125 C-3.44459683 385.01223382 -18.0129831 387.75133255 -30.49609375 383.9296875 C-41.17469428 379.05032696 -45.97338283 371.87196471 -50.73828125 361.44140625 C-53.60608658 353.61931184 -54.5002463 345.68192721 -55.1015625 337.41015625 C-55.18596588 336.25741714 -55.27036926 335.10467804 -55.35733032 333.91700745 C-56.03565633 323.56892688 -56.20398278 313.23829188 -56.2734375 302.87109375 C-56.2792408 302.04202137 -56.2850441 301.21294899 -56.29102325 300.3587532 C-56.34202191 292.62895235 -56.37352646 284.89915508 -56.38085938 277.16918945 C-56.38589388 272.88440674 -56.41018983 268.60007588 -56.44618607 264.31544685 C-56.45588866 262.70770042 -56.45836902 261.09989135 -56.45301437 259.49212456 C-56.42182592 249.70377246 -56.6049416 240.67848932 -62.859375 232.59765625 C-69.15188483 227.48824228 -74.92694535 225.00913183 -83 224 C-81.84475416 216.98580827 -79.94365125 210.72837084 -77.1875 204.1875 C-76.46943032 202.43905731 -75.75198282 200.69035896 -75.03515625 198.94140625 C-74.68727051 198.09980957 -74.33938477 197.25821289 -73.98095703 196.39111328 C-72.65193112 193.15157127 -71.3819972 189.89319273 -70.125 186.625 C-69.75632812 185.66851562 -69.38765625 184.71203125 -69.0078125 183.7265625 C-60.48273486 160.66259276 -60.676141 134.83412803 -66 111 C-66.2165625 109.80503906 -66.433125 108.61007813 -66.65625 107.37890625 C-68.81628423 96.25730141 -72.82166548 88.841893 -82.2421875 82.375 C-94.61562227 76.20580873 -110.34724436 77.79854741 -123.10888672 81.85839844 C-128.9152962 83.8368787 -134.52915643 86.22322194 -140 89 C-140.88344816 62.93827925 -130.94616793 33.8969932 -114 14 C-113.236875 12.989375 -112.47375 11.97875 -111.6875 10.9375 C-83.01979148 -20.3969721 -35.39197387 -16.60547794 0 0 Z " fill="#336791" transform="translate(362,116)"/>
<path d="M0 0 C1.69962891 0.45632812 1.69962891 0.45632812 3.43359375 0.921875 C5.95889347 1.60386677 8.48090479 2.29550727 11 3 C9.59042941 6.20163773 7.88828631 8.27445827 5.4375 10.75 C-5.76411727 23.13073488 -12.2202351 39.85365978 -17.1875 55.5625 C-17.42557373 56.28598633 -17.66364746 57.00947266 -17.90893555 57.75488281 C-23.82946383 77.40281895 -23.49537986 98.02708798 -23.61126709 118.33758545 C-23.64767973 124.23691891 -23.70890647 130.13604726 -23.76975632 136.0351696 C-23.78844731 138.06219003 -23.79994005 140.08927287 -23.81118774 142.11634827 C-23.86703807 148.93389748 -24.11978512 155.66540557 -24.76539612 162.45378113 C-26.65171745 182.9265326 -23.06519631 201.69521858 -9.7109375 217.96484375 C-9.14632812 218.63644531 -8.58171875 219.30804688 -8 220 C-6.66378964 221.66436096 -5.32978951 223.33050444 -4 225 C-4.83402344 225.88300781 -5.66804688 226.76601563 -6.52734375 227.67578125 C-12.52756145 234.06247488 -18.33287601 240.5019141 -23.81640625 247.34375 C-26.95625993 251.16325 -30.29331559 254.78758142 -33.6484375 258.41796875 C-35.75312542 260.72893007 -37.75428254 263.09546816 -39.75 265.5 C-43.82170357 270.11018872 -47.61109877 272.09875931 -53.75 272.75 C-59.62262807 272.55600928 -62.62506807 269.63894998 -66.6328125 265.59375 C-67.41398437 264.7378125 -68.19515625 263.881875 -69 263 C-70.01707031 261.93265625 -70.01707031 261.93265625 -71.0546875 260.84375 C-82.58597555 247.69159817 -88.93209226 230.15341292 -95 214 C-95.24637207 213.35240723 -95.49274414 212.70481445 -95.74658203 212.03759766 C-105.55968789 186.13548568 -105.55968789 186.13548568 -108.37109375 173.6875 C-109.06398727 170.72656373 -109.93151601 167.84795724 -110.8125 164.9375 C-113.80399509 154.58144638 -115.97801201 144.02367246 -118.24755859 133.49072266 C-118.73671267 131.22144133 -119.22905108 128.95284325 -119.72509766 126.68505859 C-127.1038566 92.93816317 -133.11574183 53.21884159 -114.1875 22.01171875 C-104.24832031 7.52376126 -89.28282849 -2.44746536 -72 -6 C-47.49040996 -9.14570747 -23.68064653 -6.49349611 0 0 Z " fill="#336791" transform="translate(233,112)"/>
<path d="M0 0 C0.91483154 0.00043304 1.82966309 0.00086609 2.7722168 0.00131226 C16.79896745 0.03759467 29.77070615 1.15619722 43.1875 5.5 C44.94443621 6.0250765 46.70226968 6.54715901 48.4609375 7.06640625 C71.44909696 13.88627359 93.22073923 28.76562509 108.1875 47.5 C108.79722656 48.26054688 109.40695312 49.02109375 110.03515625 49.8046875 C119.96041947 62.9962263 120.41687562 77.39143501 120.4375 93.3125 C120.43917175 93.99542114 120.44084351 94.67834229 120.44256592 95.38195801 C120.44414448 106.18120601 119.71460201 116.64848604 117.62084961 127.26025391 C117.30984398 128.86767118 117.02457221 130.48014848 116.75610352 132.09521484 C115.63009658 138.79664779 113.92809147 145.15225955 111.875 151.625 C111.24526545 153.64557537 110.61636553 155.66641104 109.98828125 157.6875 C109.68100098 158.67234375 109.3737207 159.6571875 109.05712891 160.671875 C108.27602056 163.21212179 107.52398093 165.75746408 106.79296875 168.3125 C106.58260986 169.04710449 106.37225098 169.78170898 106.15551758 170.53857422 C105.60802234 172.46483783 105.06550346 174.392514 104.5234375 176.3203125 C95.69761226 205.34144382 81.54514432 233.45027533 66.1875 259.5 C68.93781693 259.02259783 71.68775 258.54314736 74.4375 258.0625 C75.21480469 257.92779297 75.99210937 257.79308594 76.79296875 257.65429688 C77.92412109 257.45610352 77.92412109 257.45610352 79.078125 257.25390625 C79.76938477 257.13345947 80.46064453 257.0130127 81.17285156 256.88891602 C82.51455544 256.62990798 83.84805076 256.32399424 85.16845703 255.97216797 C93.68261624 253.98106955 105.52940706 253.72102163 113.1875 258.125 C117.76985214 261.54358017 120.37062231 265.04936694 122.1875 270.5 C123.18615488 280.67201325 121.77022679 287.75921914 115.37890625 295.765625 C108.99714918 302.66612603 101.1495603 307.62586983 93.1875 312.5 C92.35605469 313.01691406 91.52460938 313.53382813 90.66796875 314.06640625 C76.39538844 322.04005445 59.18506488 323.68161131 43.1875 323.5625 C41.45306641 323.55573242 41.45306641 323.55573242 39.68359375 323.54882812 C36.85150775 323.53712529 34.01953189 323.52072996 31.1875 323.5 C31.22230469 325.24796875 31.22230469 325.24796875 31.2578125 327.03125 C31.71076986 360.18978741 29.55024959 402.09765256 5.1875 427.5 C4.46175781 428.26570313 3.73601562 429.03140625 2.98828125 429.8203125 C-12.55939034 444.98250463 -34.33711675 450.95245383 -55.625 451.125 C-56.59622803 451.13595703 -57.56745605 451.14691406 -58.56811523 451.15820312 C-69.7955323 450.93320867 -80.60724641 446.04321026 -88.97265625 438.5703125 C-113.66112487 412.59747268 -113.11608974 369.97427141 -112.8125 336.5 C-113.65425781 336.8609375 -114.49601563 337.221875 -115.36328125 337.59375 C-124.48919956 341.13242284 -132.9768348 341.9693582 -142.75 341.9375 C-144.47246948 341.93363281 -144.47246948 341.93363281 -146.22973633 341.9296875 C-152.67647293 341.81726893 -158.59455312 341.19848516 -164.8125 339.5 C-165.70839844 339.28859375 -166.60429687 339.0771875 -167.52734375 338.859375 C-174.40170735 336.97466371 -181.41143854 334.00633241 -186.453125 328.80859375 C-187.12601563 328.16083984 -187.12601563 328.16083984 -187.8125 327.5 C-191.13051008 327.58967595 -192.77270468 328.47223582 -195.5 330.375 C-204.12925006 335.91074532 -214.7633107 337.2800758 -224.8125 335.5 C-243.5313549 330.08368491 -255.56923563 313.88642502 -264.56640625 297.5703125 C-267.42594183 292.26810459 -270.15122799 286.90411964 -272.8125 281.5 C-273.31910156 280.47398682 -273.31910156 280.47398682 -273.8359375 279.42724609 C-279.26321739 268.2392797 -282.96708893 256.43307865 -286.796875 244.625 C-287.94316801 241.09289593 -289.12338794 237.59454453 -290.45703125 234.12890625 C-291.77852245 230.59096584 -292.80683246 227.0927802 -293.75 223.4375 C-294.09354144 222.11583119 -294.43729724 220.79421808 -294.78125 219.47265625 C-294.95269531 218.8089502 -295.12414062 218.14524414 -295.30078125 217.46142578 C-296.09269708 214.4260003 -296.92600517 211.40185197 -297.75 208.375 C-299.62442952 201.3624284 -301.30892235 194.31118641 -302.95458984 187.24169922 C-304.11880052 182.27434068 -305.41792679 177.39119478 -306.875 172.5 C-309.92167537 161.42793585 -310.971508 149.86330868 -312.39526367 138.49169922 C-312.75937831 135.58258771 -312.75937831 135.58258771 -313.35400391 133.08422852 C-313.95961288 129.67082544 -313.97494347 126.30265546 -313.98046875 122.84765625 C-313.98546135 121.74278114 -313.98546135 121.74278114 -313.99055481 120.61558533 C-313.99560527 119.056474 -313.99796372 117.49735192 -313.99780273 115.93823242 C-313.9999642 113.60120733 -314.01806966 111.26467451 -314.03710938 108.92773438 C-314.08625965 96.34626601 -313.14095259 84.15753718 -309.1875 72.125 C-308.92952637 71.329729 -308.67155273 70.53445801 -308.40576172 69.71508789 C-303.43317813 54.97482463 -296.31518683 42.18106635 -284.8125 31.5 C-284.10609375 30.81164062 -283.3996875 30.12328125 -282.671875 29.4140625 C-276.84936429 23.90281809 -271.02588571 19.96756227 -263.8125 16.5 C-262.75675781 15.96632813 -262.75675781 15.96632813 -261.6796875 15.421875 C-256.97601419 13.16840414 -252.06809344 11.46019781 -247.125 9.8125 C-245.26294922 9.18794922 -245.26294922 9.18794922 -243.36328125 8.55078125 C-217.50896571 1.57168371 -182.94711648 5.25171754 -157.8125 13.5 C-155.37891369 14.26402947 -152.94086322 15.00917175 -150.5 15.75 C-149.34886719 16.10578125 -148.19773438 16.4615625 -147.01171875 16.828125 C-140.9649965 18.0980105 -136.6119806 15.63053822 -131.1875 13.125 C-109.06702409 3.24835764 -84.88723231 2.68500479 -61.1640625 6.04296875 C-55.22099186 6.85338747 -50.28322486 7.16440815 -44.60620117 5.08398438 C-40.12423885 3.54249278 -35.72959546 2.56527242 -31.05078125 1.84375 C-30.23724686 1.71802612 -29.42371246 1.59230225 -28.58552551 1.46276855 C-19.07302824 0.10588992 -9.59395347 -0.04572603 0 0 Z M-48.734375 18.73046875 C-53.64850927 19.95900232 -57.60630144 19.82477652 -62.49560547 18.50830078 C-66.86031317 17.3853271 -71.00041895 17.16079738 -75.4921875 17.12890625 C-76.30382355 17.11987778 -77.11545959 17.1108493 -77.95169067 17.10154724 C-79.66437138 17.08711817 -81.37710629 17.07817641 -83.08984375 17.07446289 C-85.64684405 17.06268723 -88.20132856 17.01353608 -90.7578125 16.96289062 C-106.86504579 16.80352962 -120.78527 20.29268124 -134.89453125 28.046875 C-139.0095907 30.09614155 -141.34237127 30.89784411 -145.84375 29.6796875 C-147.56078125 29.03386719 -147.56078125 29.03386719 -149.3125 28.375 C-155.624986 26.11477688 -161.97594942 24.35563481 -168.5 22.8125 C-169.34175781 22.61060059 -170.18351563 22.40870117 -171.05078125 22.20068359 C-173.63183721 21.5998689 -176.21857744 21.04245073 -178.8125 20.5 C-180.10208618 20.21527832 -180.10208618 20.21527832 -181.41772461 19.92480469 C-190.34165181 18.17092394 -199.24033252 18.12774967 -208.30102539 18.12939453 C-210.97803113 18.12503577 -213.65336384 18.08864421 -216.33007812 18.05078125 C-230.56510915 17.95607199 -244.67483538 19.37436214 -257.375 26.375 C-258.0342749 26.72159668 -258.6935498 27.06819336 -259.37280273 27.42529297 C-264.21294597 30.02612802 -268.6283687 32.92914563 -272.8125 36.5 C-273.67681641 37.15162109 -273.67681641 37.15162109 -274.55859375 37.81640625 C-287.83971971 48.19875639 -294.69186301 64.65168487 -298.8125 80.5 C-299.13476562 81.72589844 -299.45703125 82.95179688 -299.7890625 84.21484375 C-307.08748158 117.80803436 -298.91847976 152.89413558 -290.8125 185.5 C-290.50957031 186.73878906 -290.20664062 187.97757813 -289.89453125 189.25390625 C-273.31944885 262.44347561 -273.31944885 262.44347561 -229.08984375 319.68359375 C-222.51869668 323.58310403 -215.4626749 323.58617224 -208.13671875 321.875 C-197.97982778 318.33667406 -191.57423617 310.49300566 -185.0703125 302.30078125 C-182.15467761 298.68398157 -179.05229049 295.2624253 -175.92578125 291.828125 C-174.04912115 289.76067691 -172.20505427 287.67113396 -170.375 285.5625 C-165.93799659 280.46622486 -161.36990534 275.48838733 -156.8125 270.5 C-155.27047384 270.95712238 -153.72889786 271.41576347 -152.1875 271.875 C-151.26839844 272.14699219 -150.34929687 272.41898437 -149.40234375 272.69921875 C-147.49419342 273.28921998 -145.61218933 273.96542658 -143.75 274.6875 C-139.74254713 275.79594441 -135.94292557 275.66521702 -131.8125 275.5 C-133.10537085 277.53875788 -134.42854819 279.52354382 -135.8125 281.5 C-136.43125 282.39912109 -136.43125 282.39912109 -137.0625 283.31640625 C-143.4687575 291.74281881 -153.34663431 293.06593483 -163.21582031 294.93041992 C-169.81508548 296.24637063 -176.12611728 298.3317778 -180.8125 303.375 C-183.09119522 306.93546128 -183.58710299 308.36878405 -182.8125 312.5 C-179.66260268 319.07369875 -173.87863217 322.92246301 -167.21484375 325.5078125 C-148.15414737 331.43014049 -128.49009147 329.42125247 -110.87109375 320.31640625 C-107.94670877 318.57970253 -105.44116399 316.64779387 -102.8125 314.5 C-102.81694122 315.06058105 -102.82138245 315.62116211 -102.82595825 316.19873047 C-102.87110267 322.17136005 -102.90073225 328.14393936 -102.92236328 334.11669922 C-102.93226228 336.32928442 -102.94578484 338.54185714 -102.96337891 340.75439453 C-103.92013653 378.79430112 -103.92013653 378.79430112 -92.8125 414.5 C-92.02166016 415.92119141 -92.02166016 415.92119141 -91.21484375 417.37109375 C-85.51761996 426.9356813 -78.07069332 434.3122747 -67.22265625 437.58203125 C-53.89665499 440.75059022 -39.56951026 438.94165311 -26.8125 434.5 C-25.68328125 434.13777344 -24.5540625 433.77554687 -23.390625 433.40234375 C-9.35798537 428.54362463 0.34165009 420.43905179 6.87109375 407.046875 C13.40394603 391.85215163 14.98362379 374.78538944 16.79296875 358.484375 C17.1875 355.5 17.1875 355.5 18.1875 352.5 C18.37696054 351.03921912 18.52768043 349.57320004 18.65234375 348.10546875 C18.7292041 347.23889648 18.80606445 346.37232422 18.88525391 345.47949219 C18.96437012 344.55813477 19.04348633 343.63677734 19.125 342.6875 C19.69202825 336.34068665 20.33987804 330.04789962 21.3125 323.75 C22.10141603 318.58506539 22.36747403 313.71924685 22.1875 308.5 C23.26487427 308.98678223 23.26487427 308.98678223 24.36401367 309.48339844 C27.24916506 310.52220262 29.3154105 310.75778914 32.36328125 310.765625 C33.34844727 310.76981445 34.33361328 310.77400391 35.34863281 310.77832031 C36.38858398 310.76897461 37.42853516 310.75962891 38.5 310.75 C39.57217773 310.74323242 40.64435547 310.73646484 41.74902344 310.72949219 C64.77013869 310.4324901 86.2129944 305.17846828 103.1875 288.69140625 C107.24869378 284.24154353 110.1070707 280.91287902 110.3125 274.75 C108.97422991 270.88388642 107.63125305 269.63184713 104.1875 267.5 C98.08975365 265.46741788 92.90944768 266.52784407 86.8125 268 C79.37486862 269.58840103 72.15746937 269.80410197 64.5625 269.8125 C63.42377441 269.81765625 62.28504883 269.8228125 61.11181641 269.828125 C55.93092383 269.78488011 51.95939129 269.68083137 47.1875 267.5 C47.84792959 264.06169123 49.20197604 261.52051849 50.99609375 258.52734375 C51.8617395 257.06941406 51.8617395 257.06941406 52.74487305 255.58203125 C53.36531494 254.54433594 53.98575684 253.50664062 54.625 252.4375 C69.50675974 227.19229794 82.13348319 201.41921253 91.1875 173.5 C91.70787842 171.91807861 91.70787842 171.91807861 92.23876953 170.30419922 C94.62225224 163.05655425 96.94116314 155.79132334 99.1875 148.5 C99.40921875 147.78440918 99.6309375 147.06881836 99.859375 146.33154297 C101.15058509 142.09257875 102.23254754 137.82507025 103.1875 133.5 C103.36796875 132.71061035 103.5484375 131.9212207 103.734375 131.10791016 C106.66166316 117.8436357 107.60124269 104.78812106 107.6875 91.25 C107.70302917 90.13292664 107.70302917 90.13292664 107.71887207 88.99328613 C107.91800475 70.86820982 102.63003893 59.11912566 90.125 46 C65.06418351 21.80215928 33.40242867 12.02193154 -1 12.1875 C-1.7677475 12.18899048 -2.535495 12.19048096 -3.32650757 12.1920166 C-19.09344602 12.24698154 -33.69664271 13.78579569 -48.734375 18.73046875 Z " fill="#070707" transform="translate(395.8125,74.5)"/>
<path d="M0 0 C20.66691582 17.04857567 20.66691582 17.04857567 22.78515625 30.2421875 C23.96705592 43.32631619 22.97069935 56.35037442 21.0625 69.3125 C20.90104492 70.44437744 20.90104492 70.44437744 20.73632812 71.59912109 C16.63428919 99.11406868 7.27177649 125.96912213 -3.9375 151.3125 C-4.41445313 152.40498047 -4.89140625 153.49746094 -5.3828125 154.62304688 C-11.94765965 169.5870367 -19.3200879 183.90186368 -27.58203125 197.99755859 C-29.39195332 201.08863948 -31.16586028 204.19935424 -32.9375 207.3125 C-33.9275 206.9825 -34.9175 206.6525 -35.9375 206.3125 C-35.27698757 203.45296449 -34.40722235 200.7809967 -33.34375 198.046875 C-33.03566406 197.23863281 -32.72757812 196.43039062 -32.41015625 195.59765625 C-31.76694122 193.92116405 -31.11858271 192.24663528 -30.46484375 190.57421875 C-24.73094572 175.43576831 -26.46447164 158.88191856 -28.4375 143.125 C-30.181615 129.01776947 -30.36922149 116.29079761 -28.01855469 102.24707031 C-26.96673067 95.54968962 -26.60199754 88.96407107 -26.5625 82.1875 C-26.54896484 81.25220459 -26.53542969 80.31690918 -26.52148438 79.35327148 C-26.58539289 69.40573397 -29.7509495 61.00631196 -34 52.125 C-34.38921631 51.309104 -34.77843262 50.49320801 -35.17944336 49.65258789 C-40.95535175 37.86283816 -48.47177908 27.32228322 -56.9375 17.3125 C-57.81341797 16.25289062 -57.81341797 16.25289062 -58.70703125 15.171875 C-62.74793969 10.39210972 -67.09164984 6.26697304 -71.9375 2.3125 C-72.87335938 1.5390625 -73.80921875 0.765625 -74.7734375 -0.03125 C-83.43357803 -7.02671301 -93.29753121 -14.14084374 -103.9375 -17.6875 C-103.9375 -18.3475 -103.9375 -19.0075 -103.9375 -19.6875 C-69.0930446 -28.53020167 -28.70159511 -22.09888074 0 0 Z " fill="#346892" transform="translate(467.9375,121.6875)"/>
<path d="M0 0 C11.64130003 11.64130003 10.48020869 34.96262496 10.5 50.375 C10.46575011 64.46017058 9.50430655 77.65788468 3.19140625 90.53125 C1.5338693 93.96588393 0.08068669 97.4758511 -1.375 101 C-1.6726123 101.71986084 -1.97022461 102.43972168 -2.27685547 103.18139648 C-5.47627686 111.01799756 -8.26387478 118.99207306 -11 127 C-22.23376658 127.34974367 -31.53685333 123.25610772 -40 116 C-46.20625733 110.10108129 -50.85232378 103.98406924 -54 96 C-54.26039063 95.37480469 -54.52078125 94.74960937 -54.7890625 94.10546875 C-57.22004246 87.7298798 -57.38692607 81.89428266 -57.25 75.125 C-57.24484375 74.11308594 -57.2396875 73.10117187 -57.234375 72.05859375 C-57.1862965 67.36493 -57.00166387 62.76669548 -56.44921875 58.10546875 C-55.89426253 52.62096361 -56.07411623 47.22857125 -56.25390625 41.73046875 C-56.32912705 38.86308277 -56.40153554 35.99563375 -56.47387695 33.12817383 C-56.53324506 31.15823215 -56.60859795 29.188711 -56.69946289 27.2199707 C-57.42941775 10.763923 -57.42941775 10.763923 -53.92285156 6.43676758 C-51.3058606 4.84683592 -48.9258857 3.87543309 -46 3 C-45.02289063 2.48050781 -44.04578125 1.96101562 -43.0390625 1.42578125 C-29.3011559 -4.90966112 -13.34891426 -9.38796475 0 0 Z " fill="#346891" transform="translate(277,211)"/>
<path d="M0 0 C1.27423828 0.0009668 1.27423828 0.0009668 2.57421875 0.00195312 C6.12003285 0.02716033 8.85659584 0.05636528 12.25 1.1875 C12.13286386 3.27129027 12.00574985 5.35451962 11.875 7.4375 C11.80539062 8.59765625 11.73578125 9.7578125 11.6640625 10.953125 C11.40569783 14.25010038 10.84197074 17.42757962 10.2265625 20.67578125 C9.06015294 27.46264746 8.94710832 34.18422216 8.98925781 41.05053711 C8.99997037 43.11927708 8.98930058 45.18714565 8.9765625 47.25585938 C8.96958895 54.68916912 9.52399283 61.80286038 10.78710938 69.14331055 C11.52118474 73.97094016 11.63258564 78.74869606 11.625 83.625 C11.6247583 85.10552856 11.6247583 85.10552856 11.62451172 86.6159668 C11.49999583 94.63020276 11.23003061 105.20746939 5.25 111.1875 C4.86779297 110.44814209 4.48558594 109.70878418 4.09179688 108.94702148 C2.63659743 106.13315432 1.18053767 103.31973435 -0.27606201 100.5065918 C-0.92551897 99.25187856 -1.57464808 97.99699558 -2.22344971 96.74194336 C-5.48872829 90.42616677 -8.75740478 84.11659165 -12.19018555 77.88964844 C-22.79843023 58.5737221 -32.50259688 36.65952045 -29.75 14.1875 C-28.16368221 9.03560554 -25.5539988 6.36137094 -20.875 3.8125 C-13.93453734 0.70526358 -7.50071643 -0.11013417 0 0 Z " fill="#356992" transform="translate(417.75,203.8125)"/>
<path d="M0 0 C4.30916178 1.22092917 5.98620732 2.53085215 8.6328125 6.04296875 C10.06816608 8.63764637 10.64658679 10.99060963 10.3828125 13.9609375 C7.7991246 22.54133313 -0.77976322 28.84921428 -8.25 33.0625 C-16.12081811 36.71750305 -23.12998316 37.68942049 -31.75 37.5625 C-33.32587891 37.58570313 -33.32587891 37.58570313 -34.93359375 37.609375 C-42.40253153 37.57244576 -48.41570862 36.04189813 -55.25 33.0625 C-55.25 32.4025 -55.25 31.7425 -55.25 31.0625 C-54.19256592 30.78369995 -54.19256592 30.78369995 -53.11376953 30.49926758 C-49.86442196 29.63570223 -46.61980526 28.75547244 -43.375 27.875 C-42.26640625 27.58302734 -41.1578125 27.29105469 -40.015625 26.99023438 C-26.61022766 23.34672742 -26.61022766 23.34672742 -16.0625 14.75 C-15.42699219 13.97914063 -14.79148437 13.20828125 -14.13671875 12.4140625 C-13.51410156 11.63804687 -12.89148438 10.86203125 -12.25 10.0625 C-10.96513109 8.57742469 -9.67382041 7.09788912 -8.375 5.625 C-7.54355469 4.66787109 -7.54355469 4.66787109 -6.6953125 3.69140625 C-3.47933283 0.06691025 -3.47933283 0.06691025 0 0 Z " fill="#376A93" transform="translate(283.25,352.9375)"/>
<path d="M0 0 C1.3200575 0.6966269 2.62752786 1.41789998 3.91796875 2.16796875 C9.96613419 4.93633859 16.96768389 4.33218281 23.48046875 4.328125 C24.54201172 4.32876953 25.60355469 4.32941406 26.69726562 4.33007812 C34.96385026 4.27486718 42.90659862 3.60099913 51.04296875 2.140625 C42.16362264 11.346532 32.10656065 14.90821665 20.04296875 18.140625 C19.12902344 18.38941406 18.21507812 18.63820313 17.2734375 18.89453125 C11.15030369 20.2734417 4.98157598 20.36933452 -1.26953125 20.453125 C-2.56068848 20.47983276 -2.56068848 20.47983276 -3.87792969 20.50708008 C-9.01124598 20.50057588 -12.46956828 19.91509232 -16.95703125 17.140625 C-17.34673713 7.203125 -17.34673713 7.203125 -14.95703125 3.140625 C-10.68876998 -0.71457873 -5.49945157 -2.41492883 0 0 Z " fill="#386A93" transform="translate(436.95703125,352.859375)"/>
<path d="M0 0 C3.21919409 1.16584191 6.54510081 2.54510081 9 5 C9.3125 7.3125 9.3125 7.3125 9 10 C6.34336484 13.29789192 4.19889411 14.70681412 -0.05078125 15.2734375 C-4.12382475 15.45633755 -7.1396004 15.41915103 -10.5 12.9375 C-13.40909257 9.51931623 -13.82642417 7.42618358 -14 3 C-9.553936 -0.84441772 -5.66698166 -0.79625751 0 0 Z " fill="#F4F7F9" transform="translate(268,213)"/>
<path d="M0 0 C2.30078125 1.0234375 2.30078125 1.0234375 4 2 C3.73212125 5.92888829 3.47562903 7.54876221 0.5625 10.3125 C-3.58661883 13.04484655 -5.97828917 13.34045497 -11 13 C-13.875 11.875 -13.875 11.875 -16 10 C-16.8125 6.8125 -16.8125 6.8125 -17 4 C-11.38596846 0.09458675 -6.82900019 -0.98374207 0 0 Z " fill="#F4F6F9" transform="translate(414,210)"/>
<path d="M0 0 C0.99 0.33 1.98 0.66 3 1 C2.34 2.98 1.68 4.96 1 7 C0.01 6.67 -0.98 6.34 -2 6 C-1.49396008 3.83125748 -1.00016187 2.00032373 0 0 Z " fill="#46759B" transform="translate(434,322)"/>
<path d="M0 0 C3.96 0.33 7.92 0.66 12 1 C12 1.33 12 1.66 12 2 C5.565 2.495 5.565 2.495 -1 3 C-0.67 2.01 -0.34 1.02 0 0 Z " fill="#ABABAB" transform="translate(463,331)"/>
</svg>
