<?xml version="1.0" encoding="UTF-8"?>
<svg version="1.1" xmlns="http://www.w3.org/2000/svg" width="600" height="600">
<path d="M0 0 C198 0 396 0 600 0 C600 198 600 396 600 600 C402 600 204 600 0 600 C0 402 0 204 0 0 Z " fill="#FEFEFF" transform="translate(0,0)"/>
<path d="M0 0 C15.33784602 8.80649897 29.05605332 19.72677554 42.05859375 31.6796875 C44.05317928 33.45028214 46.09128295 35.06128241 48.25 36.625 C52.30304201 34.99211977 55.09479928 32.10436053 58.1875 29.125 C68.96588509 18.98655296 80.79877113 10.58398018 93.25 2.625 C94.25804687 1.97402344 95.26609375 1.32304688 96.3046875 0.65234375 C104.21621046 -4.22535672 112.50337106 -7.36310112 121.25 -10.375 C122.28125 -10.74753906 123.3125 -11.12007813 124.375 -11.50390625 C134.62791415 -14.61042779 152.49290334 -15.95727033 162.5 -11.3359375 C163.36625 -10.86027344 163.36625 -10.86027344 164.25 -10.375 C164.25 -9.715 164.25 -9.055 164.25 -8.375 C164.91 -8.189375 165.57 -8.00375 166.25 -7.8125 C177.30519306 -2.51521999 182.83473627 8.25376704 187.08203125 19.25 C196.53863798 46.57611442 194.4353267 80.34894429 187.1171875 108.046875 C186.36713713 111.14167742 186.17527844 113.48669428 186.25 116.625 C187.1929895 116.9492395 187.1929895 116.9492395 188.1550293 117.2800293 C204.16790106 122.79438603 219.94752378 128.33691394 235.25 135.625 C235.25 136.285 235.25 136.945 235.25 137.625 C236.13558594 137.89441406 237.02117187 138.16382813 237.93359375 138.44140625 C256.00111501 144.88953221 273.1375485 162.88821602 281.28125 179.76171875 C285.12940067 189.39991094 284.20002463 200.22584688 280.5625 209.76171875 C270.95948487 230.71115354 252.67190004 243.57893064 233.1965332 254.52148438 C231.89747506 255.25793776 230.60679765 256.00937153 229.32495117 256.77539062 C225.08991258 259.29288266 222.09195662 260.22973824 217.25 260.625 C216.92 261.615 216.59 262.605 216.25 263.625 C213.27004482 265.20810119 210.21142319 265.87265781 206.9375 266.5625 C201.50410805 267.71065437 196.54005389 269.65808836 191.4375 271.8125 C189.25 272.625 189.25 272.625 186.25 272.625 C186.44335938 273.31722656 186.63671875 274.00945312 186.8359375 274.72265625 C188.83674612 282.24054608 190.03652377 289.68037519 190.94726562 297.39990234 C191.17688511 299.08760555 191.44878921 300.76962193 191.74023438 302.44775391 C193.2102459 311.02940723 193.65189728 319.42743384 193.625 328.125 C193.62412384 328.82165771 193.62324768 329.51831543 193.62234497 330.23608398 C193.52810619 353.06991175 189.89820591 375.57841192 173.3828125 392.54296875 C162.60727097 402.6910189 151.8219072 404.09830845 137.6640625 403.90234375 C125.90049113 403.49170154 115.64247579 398.86980087 105.25 393.625 C104.65574219 393.33109375 104.06148438 393.0371875 103.44921875 392.734375 C89.38062722 385.74450637 77.22715182 376.75452623 65.25 366.625 C63.98575621 365.57151962 62.72142821 364.51814029 61.45703125 363.46484375 C60.15824286 362.37312267 58.86005979 361.28068104 57.5625 360.1875 C56.93730469 359.66687988 56.31210937 359.14625977 55.66796875 358.60986328 C54.15693584 357.32540061 52.69806692 355.9800524 51.25 354.625 C51.25 353.965 51.25 353.305 51.25 352.625 C50.26 352.625 49.27 352.625 48.25 352.625 C47.92 353.615 47.59 354.605 47.25 355.625 C45.16796875 357.53515625 45.16796875 357.53515625 42.4375 359.6875 C41.43589844 360.48414063 40.43429687 361.28078125 39.40234375 362.1015625 C38.87882324 362.51696289 38.35530273 362.93236328 37.81591797 363.36035156 C35.32799207 365.36962131 32.9241979 367.47709774 30.5 369.5625 C5.34687638 390.48032903 -24.03739449 404.89560545 -57.35351562 402.90185547 C-67.20628655 401.76360748 -74.7081945 395.05088445 -80.75 387.625 C-92.56611785 371.19574025 -95.36042278 352.32765672 -95.25 332.625 C-95.24989929 331.86151245 -95.24979858 331.0980249 -95.24969482 330.31140137 C-95.20076426 311.20673497 -92.71516846 292.09357053 -87.75 273.625 C-88.389375 273.50125 -89.02875 273.3775 -89.6875 273.25 C-91.2034375 272.940625 -91.2034375 272.940625 -92.75 272.625 C-93.42804688 272.4909375 -94.10609375 272.356875 -94.8046875 272.21875 C-95.54976563 272.0640625 -96.29484375 271.909375 -97.0625 271.75 C-97.75988281 271.60820312 -98.45726562 271.46640625 -99.17578125 271.3203125 C-128.08881735 263.51072156 -160.84046591 244.83832315 -177.75 219.625 C-184.488129 207.89343612 -188.4093405 195.92839829 -184.91015625 182.37109375 C-176.58720515 160.8771426 -155.23635419 143.25005434 -134.75 133.625 C-131.40625 132.94140625 -131.40625 132.94140625 -128.75 132.625 C-128.75 131.965 -128.75 131.305 -128.75 130.625 C-127.78513672 130.27888672 -127.78513672 130.27888672 -126.80078125 129.92578125 C-121.67420506 128.07553335 -116.57512685 126.17478635 -111.5 124.1875 C-91.9361413 116.625 -91.9361413 116.625 -87.75 116.625 C-87.89099121 115.99223145 -88.03198242 115.35946289 -88.17724609 114.70751953 C-92.32240857 95.93716463 -94.90489409 78.10623079 -95.09945679 58.89807129 C-95.11618126 57.32792872 -95.13860631 55.75783403 -95.16738892 54.18786621 C-95.47848162 35.07223455 -91.51283989 13.89007373 -78.5390625 -0.89453125 C-56.88790096 -23.15710433 -24.28687867 -13.3231548 0 0 Z " fill="#05D8FF" transform="translate(250.75,105.375)"/>
<path d="M0 0 C1.13937515 -0.00095673 2.27875031 -0.00191345 3.45265198 -0.00289917 C5.85539811 -0.00357645 8.25814611 -0.00175383 10.66088867 0.00244141 C14.27462045 0.0077511 17.88822539 0.00250413 21.50195312 -0.00390625 C31.93306891 -0.00874821 42.36523111 0.03231399 52.7890625 0.453125 C53.54738876 0.47510956 54.30571503 0.49709412 55.08702087 0.51974487 C59.47526464 0.73900361 62.41108329 1.39330589 65.87890625 4.1328125 C67.52539062 6.14379883 67.52539062 6.14379883 68.97265625 8.46484375 C69.52203857 9.33568604 70.0714209 10.20652832 70.63745117 11.10375977 C71.49947144 12.51032837 71.49947144 12.51032837 72.37890625 13.9453125 C72.98259033 14.91202881 73.58627441 15.87874512 74.20825195 16.87475586 C80.18137485 26.49341756 85.96118174 36.2317951 91.63818359 46.02783203 C92.63086306 47.71198834 93.67794395 49.36403411 94.7421875 51.00390625 C95.87890625 53.1328125 95.87890625 53.1328125 95.87890625 57.1328125 C96.53890625 57.1328125 97.19890625 57.1328125 97.87890625 57.1328125 C99.25065486 59.68720652 100.60116033 62.24945681 101.94140625 64.8203125 C102.33134766 65.54154297 102.72128906 66.26277344 103.12304688 67.00585938 C105.88010812 72.34919047 105.88010812 72.34919047 105.875 75.6796875 C104.45887059 79.16725326 102.72273071 82.41704419 100.87890625 85.6953125 C97.79113388 91.17340829 97.79113388 91.17340829 95.87890625 97.1328125 C95.21890625 97.1328125 94.55890625 97.1328125 93.87890625 97.1328125 C93.56566406 98.28716797 93.56566406 98.28716797 93.24609375 99.46484375 C91.3479199 104.55737303 88.69900579 109.11072172 86.00390625 113.8203125 C85.4310791 114.82747314 84.85825195 115.83463379 84.26806641 116.87231445 C78.76949169 126.46276404 73.0603405 135.96323727 66.87890625 145.1328125 C66.53102051 145.85460693 66.18313477 146.57640137 65.82470703 147.32006836 C62.5451768 150.37533963 58.60630887 149.81149235 54.28515625 149.875 C53.31332397 149.90351044 52.3414917 149.93202087 51.34020996 149.96139526 C48.18637399 150.04417484 45.03356719 150.09335525 41.87890625 150.1328125 C40.84378906 150.14735474 39.80867188 150.16189697 38.7421875 150.17687988 C32.3698527 150.25618602 25.9987487 150.27570945 19.62597656 150.26318359 C16.35346955 150.25777042 13.08109694 150.26319863 9.80859375 150.26953125 C4.70879656 150.27328861 -0.38923505 150.23990872 -5.48852539 150.16809082 C-7.14387563 150.14590793 -8.79934469 150.13050649 -10.45483398 150.12487793 C-21.97514015 150.05647072 -21.97514015 150.05647072 -25.40234375 146.6328125 C-26.55102539 144.9831543 -26.55102539 144.9831543 -27.62109375 143.1328125 C-28.04575928 142.48417236 -28.4704248 141.83553223 -28.90795898 141.16723633 C-30.38146854 138.85804425 -31.75527336 136.50726657 -33.12109375 134.1328125 C-33.67297363 133.18583496 -34.22485352 132.23885742 -34.79345703 131.26318359 C-38.45312175 124.94084258 -41.99122154 118.55729489 -45.48144531 112.14013672 C-47.39923952 108.62265771 -49.34844621 105.12360748 -51.30517578 101.62768555 C-52.51851673 99.4545905 -53.71922276 97.2749212 -54.91796875 95.09375 C-56.34291781 92.50805597 -57.81028988 89.9564148 -59.32421875 87.421875 C-59.9790625 86.29523438 -60.63390625 85.16859375 -61.30859375 84.0078125 C-62.16517578 82.58082031 -62.16517578 82.58082031 -63.0390625 81.125 C-64.94593213 75.85185149 -63.99372986 72.11511705 -61.80883789 67.15185547 C-60.12482941 63.7727346 -58.3615393 60.44992833 -56.55859375 57.1328125 C-55.94306641 55.97652344 -55.32753906 54.82023437 -54.69335938 53.62890625 C-53.18041026 50.79066063 -51.65615852 47.95913951 -50.12109375 45.1328125 C-49.46109375 45.1328125 -48.80109375 45.1328125 -48.12109375 45.1328125 C-48.00878418 44.40553955 -47.89647461 43.6782666 -47.78076172 42.92895508 C-47.08956635 39.99917694 -46.09429802 37.97799535 -44.56640625 35.39453125 C-44.03885742 34.49887451 -43.51130859 33.60321777 -42.96777344 32.68041992 C-42.11554199 31.26466675 -42.11554199 31.26466675 -41.24609375 29.8203125 C-40.66762695 28.85005127 -40.08916016 27.87979004 -39.49316406 26.88012695 C-26.8150581 5.82677685 -26.8150581 5.82677685 -22.12109375 1.1328125 C-14.81922999 -0.0916265 -7.37979483 -0.01396156 0 0 Z " fill="#FCFEFF" transform="translate(279.12109375,224.8671875)"/>
<path d="M0 0 C0.24008789 0.73186523 0.48017578 1.46373047 0.72753906 2.21777344 C1.88902687 5.73283107 3.0646299 9.24293986 4.25 12.75 C4.46709625 13.39316162 4.6841925 14.03632324 4.90786743 14.69897461 C8.78217117 26.10414497 13.30445914 37.12742912 18.32714844 48.07324219 C19.06819824 49.72308105 19.06819824 49.72308105 19.82421875 51.40625 C20.26854248 52.36853516 20.71286621 53.33082031 21.1706543 54.32226562 C23.31628296 61.2499239 18.29422034 69.32501882 15.625 75.6875 C12.94840522 82.07627682 10.44028017 88.51757978 8 95 C7.70770508 95.77456543 7.41541016 96.54913086 7.11425781 97.34716797 C6.15457482 99.89629511 5.20139843 102.44777029 4.25 105 C3.94400879 105.813479 3.63801758 106.62695801 3.32275391 107.46508789 C1.9064673 111.28810745 0.62052644 114.95024847 0 119 C-6.49520057 118.46625088 -11.94934157 116.81226886 -18 114.4375 C-19.37986084 113.90177368 -19.37986084 113.90177368 -20.78759766 113.35522461 C-44.49694483 103.97721717 -71.40251233 90.9462296 -83 67 C-83.433125 66.13375 -83.86625 65.2675 -84.3125 64.375 C-86.05992638 58.33843613 -84.91814165 53.72353756 -82.24609375 48.25 C-75.17651215 35.48486207 -63.53903522 26.96648348 -51 20 C-50.28247559 19.59749023 -49.56495117 19.19498047 -48.82568359 18.78027344 C-38.176536 12.85234532 -27.53440487 7.92243311 -16 4 C-14.83855469 3.5875 -13.67710937 3.175 -12.48046875 2.75 C-4.58376736 0 -4.58376736 0 0 0 Z " fill="#FCFEFF" transform="translate(170,241)"/>
<path d="M0 0 C1.41632811 7.38298694 2.55692659 14.77261417 3.53515625 22.2265625 C3.70754971 24.90104792 3.70754971 24.90104792 5 26 C7.85691411 44.39512247 8.92785043 67.85080775 1 85 C0.53078125 86.12148438 0.0615625 87.24296875 -0.421875 88.3984375 C-3.63673618 95.53681206 -7.18838728 100.70609161 -14.3515625 104.12109375 C-27.55414313 108.50248113 -42.19548506 102.1366585 -54 96.3125 C-67.58101866 89.33230234 -79.62817305 81.17068748 -91 71 C-92.52009152 69.68664093 -94.04081253 68.37400964 -95.5625 67.0625 C-98.13854534 64.79688718 -100.62259274 62.4764659 -103 60 C-101.31233047 55.89132836 -98.40437405 52.84440647 -95.5 49.5625 C-89.7104843 42.91045754 -84.29306009 36.05548941 -79 29 C-78.48840332 28.32018066 -77.97680664 27.64036133 -77.44970703 26.93994141 C-74.38740781 22.87060806 -71.33182134 18.79632721 -68.28344727 14.71655273 C-67.85990967 14.15009033 -67.43637207 13.58362793 -67 13 C-66.60748047 12.29762207 -66.21496094 11.59524414 -65.81054688 10.87158203 C-63.1306738 8.10136803 -60.13011501 8.02718445 -56.46484375 7.62109375 C-55.71775146 7.52379471 -54.97065918 7.42649567 -54.20092773 7.32624817 C-51.78149451 7.01421137 -49.35983217 6.72607559 -46.9375 6.4375 C-45.28757712 6.22765664 -43.63791622 6.01574296 -41.98852539 5.80175781 C-39.5504641 5.48554386 -37.11234714 5.17032269 -34.67332458 4.86160278 C-28.74049657 4.10989774 -22.83319286 3.25536269 -16.9375 2.25 C-16.24454834 2.13454834 -15.55159668 2.01909668 -14.83764648 1.90014648 C-3.41238621 -0.06438465 -3.41238621 -0.06438465 0 0 Z " fill="#FCFEFF" transform="translate(418,384)"/>
<path d="M0 0 C9.39442275 0.66294968 18.58709299 2.17467879 27.85806274 3.79501343 C34.73427061 4.99041307 41.49121452 6.12070176 48.4921875 6.2109375 C61.87025755 6.38954992 61.87025755 6.38954992 65.93847656 9.46582031 C69.55639389 13.22049049 72.20743795 17.50409326 74.80322266 22.00244141 C76.45653848 24.76201506 78.42694523 27.17035639 80.5 29.625 C81.20898438 30.47964844 81.91796875 31.33429688 82.6484375 32.21484375 C89.68355234 40.54713093 96.78656491 48.82138698 104 57 C95.98078849 76.97849804 61.11346208 92.50977985 42.76171875 100.390625 C36.23257567 102.74675796 30.00897772 103.38893611 23.125 103.5 C21.92943481 103.52803711 21.92943481 103.52803711 20.7097168 103.55664062 C14.23778533 103.48602045 10.1731855 101.74268768 5.21484375 97.45703125 C-2.4336512 87.60988637 -5.93067703 74.28403089 -6 62 C-6.03750479 60.34634835 -6.07529137 58.69270308 -6.11328125 57.0390625 C-6.3765087 41.34290737 -5.52866136 26.02102617 -1.6640625 10.7578125 C-0.80215583 7.1783648 -0.35888828 3.66066046 0 0 Z " fill="#FDFEFF" transform="translate(182,385)"/>
<path d="M0 0 C2.88077184 2.75199561 4.45932019 5.75361974 6.109375 9.31640625 C6.41230469 9.94095703 6.71523438 10.56550781 7.02734375 11.20898438 C19.06151754 36.26680847 13.0676517 74.494835 5.359375 100.25390625 C4.47608521 100.08955078 4.47608521 100.08955078 3.57495117 99.921875 C-4.59424884 98.41808811 -12.78030368 97.02171779 -20.97241211 95.64941406 C-22.53418165 95.38720382 -24.09570924 95.12354809 -25.65698242 94.85839844 C-27.96738841 94.46606994 -30.27852028 94.07828928 -32.58984375 93.69140625 C-33.72033897 93.49863602 -33.72033897 93.49863602 -34.87367249 93.30197144 C-38.6351899 92.6775602 -42.36758971 92.15887021 -46.16772461 91.83642578 C-46.89075272 91.76939453 -47.61378082 91.70236328 -48.35871887 91.63330078 C-50.32988775 91.4606942 -52.30387706 91.32120082 -54.27783203 91.18408203 C-59.49693134 89.74043688 -61.23229023 86.57215189 -64.15454102 82.09814453 C-64.48123779 81.51274902 -64.80793457 80.92735352 -65.14453125 80.32421875 C-67.78103919 75.86775347 -70.9552724 71.97368599 -74.265625 68.00390625 C-75.37555826 66.65540722 -76.48494832 65.30646087 -77.59375 63.95703125 C-78.11646484 63.32345703 -78.63917969 62.68988281 -79.17773438 62.03710938 C-81.77640585 58.86943641 -84.30874655 55.64918514 -86.84765625 52.43359375 C-89.25584887 49.50598703 -91.84613138 46.76027825 -94.48828125 44.04296875 C-95.640625 42.25390625 -95.640625 42.25390625 -95.640625 40.33984375 C-86.44552312 21.15943591 -52.84577879 5.57754497 -34.296875 -2.13671875 C-22.61670027 -6.2421267 -10.57584438 -6.99319887 0 0 Z " fill="#FDFEFF" transform="translate(410.640625,116.74609375)"/>
<path d="M0 0 C20.25223014 8.59021328 37.79322055 21.48016464 53.83740234 36.40869141 C55.62963362 38.14740111 55.62963362 38.14740111 57.72802734 39.08837891 C57.19370831 43.2007272 55.0299246 45.21494027 52.22802734 48.15087891 C51.30408671 49.13853391 50.38225438 50.12816488 49.46240234 51.11962891 C48.99898438 51.61849609 48.53556641 52.11736328 48.05810547 52.63134766 C41.78898374 59.4988437 36.19414276 67.01172342 30.47802734 74.33837891 C29.88731445 75.09513916 29.29660156 75.85189941 28.68798828 76.6315918 C27.83382324 77.73168579 27.83382324 77.73168579 26.96240234 78.85400391 C26.4593457 79.50143555 25.95628906 80.14886719 25.43798828 80.81591797 C23.76404136 82.95366083 23.76404136 82.95366083 22.68299866 84.85298157 C20.42300432 88.49270647 19.37233303 89.87266637 15.1730957 91.27856445 C13.80849431 91.45900476 12.43920399 91.60617853 11.06787109 91.72509766 C10.32925842 91.81541763 9.59064575 91.90573761 8.82965088 91.99879456 C6.4439189 92.28557935 4.05581399 92.53027959 1.66552734 92.77587891 C-0.79044682 93.06329021 -3.24482378 93.36224946 -5.69926453 93.66244507 C-7.31548614 93.8598324 -8.93211858 94.05388553 -10.54914856 94.24453735 C-18.28943341 95.16814681 -25.86568674 96.63582133 -33.47900391 98.29150391 C-37.08046574 99.0481447 -40.62610011 99.61179426 -44.27197266 100.08837891 C-58.62139457 28.45606469 -58.62139457 28.45606469 -41.27197266 2.08837891 C-30.57758329 -9.9295735 -13.18554551 -5.29065409 0 0 Z " fill="#FDFEFF" transform="translate(227.27197265625,116.91162109375)"/>
<path d="M0 0 C4.71079202 0.35996085 8.59087413 1.86107153 12.96484375 3.58203125 C13.87355225 3.93523437 14.78226074 4.2884375 15.71850586 4.65234375 C30.92984216 10.69070864 46.45381742 17.2803224 59.52734375 27.26953125 C60.48769531 27.99914062 61.44804687 28.72875 62.4375 29.48046875 C71.6319822 36.73210613 78.70914142 43.34736396 81.40234375 55.08203125 C82.0283058 62.13090822 79.58113504 68.25383079 75.40234375 73.83203125 C74.13434271 75.33153456 72.84188132 76.8106523 71.52734375 78.26953125 C70.89054687 78.99914062 70.25375 79.72875 69.59765625 80.48046875 C52.90398322 98.43404163 22.47820454 113.85650596 -1.47265625 117.26953125 C-6.50595543 105.9157915 -6.50595543 105.9157915 -7.47265625 100.76953125 C-8.92146657 93.3805986 -12.40261826 86.64579265 -15.47265625 79.81640625 C-15.82312012 79.03450928 -16.17358398 78.2526123 -16.53466797 77.44702148 C-17.22412559 75.91308121 -17.91818972 74.38119992 -18.61767578 72.85180664 C-19.60254917 70.67052872 -20.54277828 68.47475421 -21.47265625 66.26953125 C-21.80894043 65.52558105 -22.14522461 64.78163086 -22.49169922 64.01513672 C-24.1528546 59.91832662 -24.8515875 57.22866886 -23.33984375 52.98828125 C-22.70371594 51.56917608 -22.03858674 50.16277679 -21.34765625 48.76953125 C-20.66989055 47.27954693 -19.9940843 45.78866962 -19.3203125 44.296875 C-18.99434082 43.59675293 -18.66836914 42.89663086 -18.33251953 42.17529297 C-17.32250159 39.93673531 -16.51625143 37.67571351 -15.78515625 35.33203125 C-14.88509513 32.47554984 -13.86718782 29.7249779 -12.72265625 26.95703125 C-10.17011182 20.71968532 -8.02592927 14.33671195 -5.84667969 7.96166992 C-5.55438477 7.1132251 -5.26208984 6.26478027 -4.9609375 5.390625 C-4.69837158 4.62161865 -4.43580566 3.8526123 -4.1652832 3.06030273 C-3.12893841 0.38085646 -2.95560631 0.3221751 0 0 Z " fill="#FCFEFF" transform="translate(432.47265625,241.73046875)"/>
<path d="M0 0 C10.76185313 6.70868767 17.60458716 15.0573231 21.10546875 27.3125 C21.5424027 30.22248681 21.63105488 33.06015368 21.60546875 36 C21.59902344 36.78310547 21.59257812 37.56621094 21.5859375 38.37304688 C21.21768905 50.22483241 16.49088448 59.97249265 8.10546875 68.3125 C5.26397499 70.6872502 2.35953491 72.55354532 -0.89453125 74.3125 C-1.59578125 74.725 -2.29703125 75.1375 -3.01953125 75.5625 C-11.85236275 79.97891575 -23.53115164 79.72482116 -33.02734375 77.6171875 C-35.48587511 76.70005511 -37.63470802 75.64180778 -39.89453125 74.3125 C-40.65765625 73.9 -41.42078125 73.4875 -42.20703125 73.0625 C-51.74243889 67.39279816 -57.64029054 58.79225821 -60.89453125 48.3125 C-61.0853125 47.71308594 -61.27609375 47.11367188 -61.47265625 46.49609375 C-63.56406169 35.6711341 -62.33998727 24.53796741 -56.5390625 15.109375 C-55.08639015 13.0686235 -53.55011785 11.19149105 -51.89453125 9.3125 C-51.36988281 8.69503906 -50.84523438 8.07757813 -50.3046875 7.44140625 C-37.73853221 -6.30744601 -16.15475204 -8.77064382 0 0 Z " fill="#01D8FF" transform="translate(319.89453125,262.6875)"/>
<path d="M0 0 C0.66 0 1.32 0 2 0 C3.75789222 4.07997896 5.50481199 8.16457259 7.25 12.25 C7.74113281 13.38953125 8.23226562 14.5290625 8.73828125 15.703125 C17 35.090625 17 35.090625 17 41 C16.16807129 41.12060791 16.16807129 41.12060791 15.31933594 41.24365234 C12.79512602 41.61367977 10.27261061 41.99422859 7.75 42.375 C6.87730469 42.50132812 6.00460937 42.62765625 5.10546875 42.7578125 C4.26113281 42.88671875 3.41679687 43.015625 2.546875 43.1484375 C1.38430176 43.32125244 1.38430176 43.32125244 0.19824219 43.49755859 C-2.02757613 43.91198355 -2.02757613 43.91198355 -3.98632812 45.01367188 C-6.31952515 46.15650844 -8.18375078 46.40110584 -10.765625 46.6328125 C-11.65507812 46.71660156 -12.54453125 46.80039062 -13.4609375 46.88671875 C-14.38132812 46.96535156 -15.30171875 47.04398437 -16.25 47.125 C-17.18585938 47.21136719 -18.12171875 47.29773438 -19.0859375 47.38671875 C-21.39007353 47.59832308 -23.69462044 47.80248677 -26 48 C-25.42655586 43.7794511 -23.99614296 41.05617052 -21.6875 37.5 C-17.88032018 31.51767107 -14.3194224 25.412729 -10.8125 19.25 C-10.31387451 18.37537109 -9.81524902 17.50074219 -9.30151367 16.59960938 C-6.16585847 11.08577408 -3.06951357 5.55090732 0 0 Z " fill="#F5FDFF" transform="translate(395,324)"/>
<path d="M0 0 C3.18082359 2.97569931 4.87869122 6.39932611 6.8125 10.25 C11.2254022 18.84229742 16.19650698 27.04709644 21.30200195 35.24316406 C21.88167725 36.17870117 22.46135254 37.11423828 23.05859375 38.078125 C23.57736084 38.90731445 24.09612793 39.73650391 24.63061523 40.59082031 C26.00096022 43.00168933 27.03357102 45.40396882 28 48 C18.81742706 47.6714643 9.87495124 46.45684795 0.8125 45 C-0.29859131 44.82178711 -1.40968262 44.64357422 -2.55444336 44.45996094 C-10.58151133 43.13949622 -10.58151133 43.13949622 -14 42 C-13.53170929 34.38035453 -11.46063928 28.08148847 -8.6875 21 C-8.29626953 19.97132813 -7.90503906 18.94265625 -7.50195312 17.8828125 C-5.18248567 11.83604161 -2.70221366 5.88560527 0 0 Z " fill="#F1FCFF" transform="translate(203,324)"/>
<path d="M0 0 C4.47998436 0.39186624 6.75282615 3.53015756 9.5625 6.6875 C10.08118652 7.26040771 10.59987305 7.83331543 11.13427734 8.42358398 C14.94460636 12.68581964 18.58007446 17.07789824 22.125 21.5625 C22.81638062 22.43684692 22.81638062 22.43684692 23.52172852 23.32885742 C25.71822069 26.16212173 27.38513166 28.77026331 29 32 C11.18 32 -6.64 32 -25 32 C-22.75016468 26.3754117 -22.75016468 26.3754117 -20.20703125 23.51171875 C-19.66224121 22.89143799 -19.11745117 22.27115723 -18.55615234 21.63208008 C-17.69304443 20.66951294 -17.69304443 20.66951294 -16.8125 19.6875 C-16.22678223 19.02322998 -15.64106445 18.35895996 -15.03759766 17.67456055 C-13.36404336 15.77794305 -11.68276548 13.88844266 -10 12 C-8.62316284 10.43911862 -7.24766937 8.87704788 -5.875 7.3125 C-5.12863281 6.47138672 -5.12863281 6.47138672 -4.3671875 5.61328125 C-2.82942676 3.79872358 -1.41008236 1.91487516 0 0 Z " fill="#F3FDFF" transform="translate(298,173)"/>
<path d="M0 0 C-1.70030881 3.5837278 -3.74749978 6.93215443 -5.8125 10.3125 C-10.5687739 18.15944998 -15.07614663 26.14222647 -19.56958008 34.1418457 C-20.10091553 35.08761475 -20.63225098 36.03338379 -21.1796875 37.0078125 C-21.65132324 37.84973145 -22.12295898 38.69165039 -22.60888672 39.55908203 C-24.03570945 42.06265761 -25.50841037 44.53455804 -27 47 C-29.65721701 44.34278299 -30.61637427 41.25674465 -31.9375 37.8125 C-32.44573473 36.50616776 -32.95484649 35.2001764 -33.46484375 33.89453125 C-33.71758057 33.24476318 -33.97031738 32.59499512 -34.23071289 31.92553711 C-34.96864308 30.07848684 -35.76059853 28.25329885 -36.5546875 26.4296875 C-37.96142263 23.09154305 -39.11883428 19.77235644 -40.1875 16.3125 C-40.53167969 15.21550781 -40.87585938 14.11851562 -41.23046875 12.98828125 C-42 10 -42 10 -42 6 C-41.00097656 5.86722656 -40.00195312 5.73445312 -38.97265625 5.59765625 C-37.68230469 5.42105469 -36.39195312 5.24445313 -35.0625 5.0625 C-33.77472656 4.88847656 -32.48695313 4.71445313 -31.16015625 4.53515625 C-28.14533687 4.33837577 -28.14533687 4.33837577 -27 3 C-25.5148826 2.7032001 -24.01855105 2.46197224 -22.51953125 2.24609375 C-21.60236328 2.11396484 -20.68519531 1.98183594 -19.74023438 1.84570312 C-18.29100586 1.64364258 -18.29100586 1.64364258 -16.8125 1.4375 C-15.86568359 1.29892578 -14.91886719 1.16035156 -13.94335938 1.01757812 C-9.25918528 0.35401404 -4.74499698 -0.18342005 0 0 Z " fill="#F5FDFF" transform="translate(231,229)"/>
<path d="M0 0 C17.16 0 34.32 0 52 0 C50.14912919 4.62717702 48.00501379 7.88095859 44.9375 11.6875 C44.45015381 12.29964355 43.96280762 12.91178711 43.46069336 13.54248047 C37.99032107 20.35484381 32.21348586 26.85601622 26 33 C18.97027889 25.52806216 12.53304365 17.75210288 6.28271484 9.62255859 C4.95604849 7.94440393 3.57224838 6.3273258 2.17578125 4.70703125 C0 2 0 2 0 0 Z " fill="#FBFEFF" transform="translate(274,396)"/>
<path d="M0 0 C13.88777447 0.28237619 27.41723894 3.33253502 41 6 C39.89810198 12.37689482 37.43822781 18.26870013 35.1875 24.3125 C34.52911133 26.10977539 34.52911133 26.10977539 33.85742188 27.94335938 C31.55006693 34.16601795 29.12207682 40.14155747 26 46 C23.79562366 43.17623896 21.95871747 40.3032791 20.21484375 37.17578125 C19.68850342 36.23694092 19.16216309 35.29810059 18.61987305 34.33081055 C18.06468994 33.33476807 17.50950684 32.33872559 16.9375 31.3125 C12.36913178 23.15695448 7.73656035 15.05160255 2.89624023 7.05395508 C0 2.21313973 0 2.21313973 0 0 Z " fill="#F8FEFF" transform="translate(370,230)"/>
<path d="M0 0 C0.66 0.33 1.32 0.66 2 1 C-3.28 6.28 -8.56 11.56 -14 17 C-14.66 16.67 -15.32 16.34 -16 16 C-10.96679794 10.22494276 -5.96260189 4.82082706 0 0 Z " fill="#D3F8FF" transform="translate(106,269)"/>
<path d="M0 0 C0.66 0.33 1.32 0.66 2 1 C-2.62 5.62 -7.24 10.24 -12 15 C-12.33 14.01 -12.66 13.02 -13 12 C-8.71 8.04 -4.42 4.08 0 0 Z " fill="#D1F7FF" transform="translate(328,144)"/>
<path d="M0 0 C0.33 0.66 0.66 1.32 1 2 C0.67 2.66 0.34 3.32 0 4 C5.94 3.67 11.88 3.34 18 3 C18 3.33 18 3.66 18 4 C11.4 4.66 4.8 5.32 -2 6 C-1 1 -1 1 0 0 Z " fill="#95EEFF" transform="translate(371,366)"/>
<path d="M0 0 C-1.5830577 4.2742558 -4.50568404 6.26531794 -8 9 C-6.68994234 5.06982701 -4.75047804 0 0 0 Z " fill="#D2F8FF" transform="translate(192,115)"/>
</svg>
