<svg xmlns="http://www.w3.org/2000/svg" width="500" height="500" viewBox="0 0 500 500" version="1.1"><path d="M 79.780 48.030 C 63.365 50.796, 50.390 64.337, 47.943 81.258 C 46.633 90.316, 46.739 410.801, 48.055 418.910 C 50.161 431.889, 58.724 443.169, 70.747 448.804 L 76.500 451.500 247.843 451.761 C 436.380 452.049, 423.968 452.438, 434.118 445.924 C 442.220 440.725, 448.539 432.093, 450.901 423 C 451.776 419.631, 451.998 375.515, 451.785 247.500 L 451.500 76.500 448.804 70.747 C 443.169 58.724, 431.889 50.161, 418.910 48.055 C 411.261 46.814, 87.141 46.790, 79.780 48.030 M 345 237.502 C 317.334 243.096, 301.023 258.046, 297.848 280.720 C 295.555 297.091, 300.283 311.575, 311.484 322.500 C 319.115 329.942, 324.646 333.248, 343.998 341.935 C 361.890 349.966, 370.001 354.951, 373.579 360.114 C 378.888 367.775, 377.480 376.467, 370.058 381.843 C 364.549 385.834, 357.403 387.478, 346 387.376 C 330.832 387.241, 316.713 382.758, 303.890 374.005 L 298 369.985 298 389.467 L 298 408.949 300.750 410.363 C 310.174 415.211, 330.817 418.952, 348.308 418.982 C 373.753 419.025, 392.093 413.457, 404.386 401.958 C 414.554 392.446, 418.967 381.568, 418.973 366 C 418.978 352.881, 415.202 342.645, 407.085 333.776 C 399.803 325.819, 390.455 319.915, 372.349 311.838 C 354.921 304.064, 350.177 301.371, 344.728 296.159 C 335.405 287.242, 338.727 274.887, 351.770 269.968 C 366.165 264.539, 391.313 267.547, 406.644 276.532 L 411 279.084 411 260.581 L 411 242.077 405.750 240.509 C 390.703 236.014, 359.901 234.489, 345 237.502 M 141 256 L 141 272 166 272 L 191 272 191 344.500 L 191 417 210.993 417 L 230.987 417 231.243 344.750 L 231.500 272.500 256.750 272.233 L 282 271.966 282 255.983 L 282 240 211.500 240 L 141 240 141 256" stroke="none" fill="#347cc4" fill-rule="evenodd"/><path d="M 0 250.002 L 0 500.004 250.250 499.752 L 500.500 499.500 500.752 249.750 L 501.004 0 250.502 0 L 0 0 0 250.002 M 0.492 250.500 C 0.492 388, 0.608 444.101, 0.750 375.170 C 0.892 306.238, 0.892 193.738, 0.750 125.170 C 0.608 56.601, 0.492 113, 0.492 250.500 M 79.780 48.030 C 63.365 50.796, 50.390 64.337, 47.943 81.258 C 46.633 90.316, 46.739 410.801, 48.055 418.910 C 50.161 431.889, 58.724 443.169, 70.747 448.804 L 76.500 451.500 247.843 451.761 C 436.380 452.049, 423.968 452.438, 434.118 445.924 C 442.220 440.725, 448.539 432.093, 450.901 423 C 451.776 419.631, 451.998 375.515, 451.785 247.500 L 451.500 76.500 448.804 70.747 C 443.169 58.724, 431.889 50.161, 418.910 48.055 C 411.261 46.814, 87.141 46.790, 79.780 48.030 M 345 237.502 C 317.334 243.096, 301.023 258.046, 297.848 280.720 C 295.555 297.091, 300.283 311.575, 311.484 322.500 C 319.115 329.942, 324.646 333.248, 343.998 341.935 C 361.890 349.966, 370.001 354.951, 373.579 360.114 C 378.888 367.775, 377.480 376.467, 370.058 381.843 C 364.549 385.834, 357.403 387.478, 346 387.376 C 330.832 387.241, 316.713 382.758, 303.890 374.005 L 298 369.985 298 389.467 L 298 408.949 300.750 410.363 C 310.174 415.211, 330.817 418.952, 348.308 418.982 C 373.753 419.025, 392.093 413.457, 404.386 401.958 C 414.554 392.446, 418.967 381.568, 418.973 366 C 418.978 352.881, 415.202 342.645, 407.085 333.776 C 399.803 325.819, 390.455 319.915, 372.349 311.838 C 354.921 304.064, 350.177 301.371, 344.728 296.159 C 335.405 287.242, 338.727 274.887, 351.770 269.968 C 366.165 264.539, 391.313 267.547, 406.644 276.532 L 411 279.084 411 260.581 L 411 242.077 405.750 240.509 C 390.703 236.014, 359.901 234.489, 345 237.502 M 141 256 L 141 272 166 272 L 191 272 191 344.500 L 191 417 210.993 417 L 230.987 417 231.243 344.750 L 231.500 272.500 256.750 272.233 L 282 271.966 282 255.983 L 282 240 211.500 240 L 141 240 141 256" stroke="none" fill="#fbfbfb" fill-rule="evenodd"/></svg>