<svg version="1.1" id="Layer_1" xmlns="http://www.w3.org/2000/svg" xmlns:xlink="http://www.w3.org/1999/xlink" x="0px" y="0px"
	 width="100%" viewBox="0 0 500 500" enable-background="new 0 0 500 500" xml:space="preserve">
<path fill="#FFFFFF" opacity="1.000000" stroke="none" 
	d="
M276.000000,501.000000 
	C184.000015,501.000000 92.500046,501.000000 1.000049,501.000000 
	C1.000033,334.333405 1.000033,167.666794 1.000016,1.000139 
	C167.666565,1.000092 334.333130,1.000092 500.999756,1.000046 
	C500.999847,167.666519 500.999847,334.333038 500.999939,500.999786 
	C426.166656,501.000000 351.333344,501.000000 276.000000,501.000000 
M363.141113,87.015755 
	C341.669067,87.010300 320.196198,87.096207 298.725830,86.903595 
	C295.400879,86.873764 293.725739,87.995766 292.166168,90.753716 
	C282.602570,107.666191 272.880402,124.489067 263.197968,141.334274 
	C259.175415,148.332596 255.120743,155.312439 250.810562,162.767944 
	C249.546692,160.709778 248.661850,159.321991 247.828568,157.903900 
	C234.700806,135.562866 221.622879,113.192215 208.370590,90.925331 
	C207.369110,89.242607 205.147903,87.182579 203.477341,87.167984 
	C181.012222,86.971779 158.544205,87.108078 135.138519,87.027466 
	C110.611382,87.027466 86.084244,87.027466 60.803631,87.027466 
	C124.299950,196.644043 187.294266,305.393982 250.776276,414.985870 
	C314.295959,305.320404 377.323883,196.503906 440.674164,87.130875 
	C414.390594,87.130875 389.242371,87.130875 363.141113,87.015755 
z"/>
<path fill="#41B883" opacity="1.000000" stroke="none" 
	d="
M364.094147,87.130875 
	C389.242371,87.130875 414.390594,87.130875 440.674164,87.130875 
	C377.323883,196.503906 314.295959,305.320404 250.776276,414.985870 
	C187.294266,305.393982 124.299950,196.644043 60.803631,87.027466 
	C86.084244,87.027466 110.611382,87.027466 135.738434,87.402893 
	C149.178787,109.932396 162.000244,132.097488 174.863937,154.238037 
	C195.746613,190.180542 216.654404,226.108444 237.557663,262.038971 
	C241.778854,269.294769 246.026993,276.534912 250.506241,284.198944 
	C251.532974,282.911255 252.248962,282.213348 252.730560,281.380005 
	C264.128296,261.656952 275.505737,241.922211 286.876740,222.183762 
	C306.630981,187.893250 326.411255,153.617676 346.109192,119.294853 
	C352.223053,108.641739 358.105652,97.855927 364.094147,87.130875 
z"/>
<path fill="#35495E" opacity="1.000000" stroke="none" 
	d="
M363.617615,87.073318 
	C358.105652,97.855927 352.223053,108.641739 346.109192,119.294853 
	C326.411255,153.617676 306.630981,187.893250 286.876740,222.183762 
	C275.505737,241.922211 264.128296,261.656952 252.730560,281.380005 
	C252.248962,282.213348 251.532974,282.911255 250.506241,284.198944 
	C246.026993,276.534912 241.778854,269.294769 237.557663,262.038971 
	C216.654404,226.108444 195.746613,190.180542 174.863937,154.238037 
	C162.000244,132.097488 149.178787,109.932396 136.207642,87.470108 
	C158.544205,87.108078 181.012222,86.971779 203.477341,87.167984 
	C205.147903,87.182579 207.369110,89.242607 208.370590,90.925331 
	C221.622879,113.192215 234.700806,135.562866 247.828568,157.903900 
	C248.661850,159.321991 249.546692,160.709778 250.810562,162.767944 
	C255.120743,155.312439 259.175415,148.332596 263.197968,141.334274 
	C272.880402,124.489067 282.602570,107.666191 292.166168,90.753716 
	C293.725739,87.995766 295.400879,86.873764 298.725830,86.903595 
	C320.196198,87.096207 341.669067,87.010300 363.617615,87.073318 
z"/>
</svg>